999
dxfrw 0.6.3
  0
SECTION
  2
HEADER
  9
$ACADVER
  1
AC1009
  9
$DWGCODEPAGE
  3
ANSI_932
  9
$INSBASE
 10
0
 20
0
 30
0
  9
$EXTMIN
 10
10000000000
 20
10000000000
 30
0
  9
$EXTMAX
 10
-10000000000
 20
-10000000000
 30
0
  9
$LIMMIN
 10
0
 20
0
  9
$LIMMAX
 10
12
 20
9
  9
$ORTHOMODE
 70
    0
  9
$REGENMODE
 70
    1
  9
$FILLMODE
 70
    1
  9
$QTEXTMODE
 70
    0
  9
$MIRRTEXT
 70
    1
  9
$DRAGMODE
 70
    2
  9
$LTSCALE
 40
1
  9
$OSMODE
 70
   37
  9
$ATTMODE
 70
    1
  9
$TEXTSIZE
 40
0.2
  9
$TRACEWID
 40
0.05
  9
$TEXTSTYLE
  7
STANDARD
  9
$CLAYER
  8
0
  9
$CELTYPE
  6
BYLAYER
  9
$CECOLOR
 62
  256
  9
$DIMSCALE
 40
1
  9
$DIMASZ
 40
0.18
  9
$DIMEXO
 40
0.0625
  9
$DIMDLI
 40
0.38
  9
$DIMRND
 40
0
  9
$DIMDLE
 40
0
  9
$DIMEXE
 40
0.18
  9
$DIMTP
 40
0
  9
$DIMTM
 40
0
  9
$DIMTXT
 40
0.18
  9
$DIMCEN
 40
0.09
  9
$DIMTSZ
 40
0
  9
$DIMTOL
 70
    0
  9
$DIMLIM
 70
    0
  9
$DIMTIH
 70
    1
  9
$DIMTOH
 70
    1
  9
$DIMSE1
 70
    0
  9
$DIMSE2
 70
    0
  9
$DIMTAD
 70
    0
  9
$DIMZIN
 70
    0
  9
$DIMBLK
  1

  9
$DIMASO
 70
    1
  9
$DIMSHO
 70
    1
  9
$DIMPOST
  1

  9
$DIMAPOST
  1

  9
$DIMALT
 70
    0
  9
$DIMALTD
 70
    2
  9
$DIMALTF
 40
25.4
  9
$DIMLFAC
 40
1
  9
$DIMTOFL
 70
    0
  9
$DIMTVP
 40
0
  9
$DIMTIX
 70
    0
  9
$DIMSOXD
 70
    0
  9
$DIMSAH
 70
    0
  9
$DIMBLK1
  1

  9
$DIMBLK2
  1

  9
$DIMSTYLE
  2
STANDARD
  9
$DIMCLRD
 70
    0
  9
$DIMCLRE
 70
    0
  9
$DIMCLRT
 70
    0
  9
$DIMTFAC
 40
1
  9
$DIMGAP
 40
0.09
  9
$LUNITS
 70
    2
  9
$LUPREC
 70
    4
  9
$SKETCHINC
 40
0.1
  9
$FILLETRAD
 40
0.5
  9
$AUNITS
 70
    0
  9
$AUPREC
 70
    0
  9
$MENU
  1
.
  9
$ELEVATION
 40
0
  9
$PELEVATION
 40
0
  9
$THICKNESS
 40
0
  9
$LIMCHECK
 70
    0
  9
$BLIPMODE
 70
    0
  9
$CHAMFERA
 40
0.5
  9
$CHAMFERB
 40
0.5
  9
$SKPOLY
 70
    0
  9
$USRTIMER
 70
    1
  9
$ANGBASE
 50
0
  9
$ANGDIR
 70
    0
  9
$PDMODE
 70
    0
  9
$PDSIZE
 40
0
  9
$PLINEWID
 40
0
  9
$COORDS
 70
    1
  9
$SPLFRAME
 70
    0
  9
$SPLINETYPE
 70
    6
  9
$SPLINESEGS
 70
    8
  9
$ATTDIA
 70
    0
  9
$ATTREQ
 70
    1
  9
$HANDLING
 70
    1
  9
$HANDSEED
  5
20000
  9
$SURFTAB1
 70
    6
  9
$SURFTAB2
 70
    6
  9
$SURFTYPE
 70
    6
  9
$SURFU
 70
    6
  9
$SURFV
 70
    6
  9
$UCSNAME
  2

  9
$UCSORG
 10
0
 20
0
 30
0
  9
$UCSXDIR
 10
1
 20
0
 30
0
  9
$UCSYDIR
 10
0
 20
1
 30
0
  9
$PUCSNAME
  2

  9
$PUCSORG
 10
0
 20
0
 30
0
  9
$PUCSXDIR
 10
1
 20
0
 30
0
  9
$PUCSYDIR
 10
0
 20
1
 30
0
  9
$USERI1
 70
    0
  9
$USERI2
 70
    0
  9
$USERI3
 70
    0
  9
$USERI4
 70
    0
  9
$USERI5
 70
    0
  9
$USERR1
 40
0
  9
$USERR2
 40
0
  9
$USERR3
 40
0
  9
$USERR4
 40
0
  9
$USERR5
 40
0
  9
$WORLDVIEW
 70
    1
  9
$SHADEDGE
 70
    3
  9
$SHADEDIF
 70
   70
  9
$TILEMODE
 70
    1
  9
$MAXACTVP
 70
   64
  9
$PLIMCHECK
 70
    0
  9
$PEXTMIN
 10
1e+20
 20
1e+20
 30
1e+20
  9
$PEXTMAX
 10
-1e+20
 20
-1e+20
 30
-1e+20
  9
$GRIDMODE
 70
    0
  9
$SNAPSTYLE
 70
    0
  9
$PLIMMIN
 10
0
 20
0
  9
$PLIMMAX
 10
12
 20
9
  9
$UNITMODE
 70
    0
  9
$VISRETAIN
 70
    1
  9
$PLINEGEN
 70
    0
  9
$PSLTSCALE
 70
    1
  0
ENDSEC
  0
SECTION
  2
TABLES
  0
TABLE
  2
VPORT
 70
    1
  0
VPORT
  2
*ACTIVE
 70
    0
 10
0
 20
0
 11
1
 21
1
 12
164.336732942353
 22
121.7233617451423
 13
0
 23
0
 14
10
 24
10
 15
10
 25
10
 16
0
 26
0
 36
1
 17
0
 27
0
 37
0
 40
216.1252319092979
 41
1.856603773584906
 42
50
 43
0
 44
0
 50
0
 51
0
 71
    0
 72
  100
 73
    1
 74
    3
 75
    0
 76
    0
 77
    0
 78
    0
  0
ENDTAB
  0
TABLE
  2
LTYPE
 70
    4
  0
LTYPE
  2
BYBLOCK
 70
    0
  3

 72
   65
 73
    0
 40
0
  0
LTYPE
  2
BYLAYER
 70
    0
  3

 72
   65
 73
    0
 40
0
  0
LTYPE
  2
CONTINUOUS
 70
    0
  3
Solid line
 72
   65
 73
    0
 40
0
  0
LTYPE
  2
DOT
 70
    0
  3
Dot . . . . . . . . . . . . . . . . . . . . . .
 72
   65
 73
    2
 40
6.35
 49
0
 49
-6.35
  0
LTYPE
  2
DOTTINY
 70
    0
  3
Dot (.15x) .....................................
 72
   65
 73
    2
 40
0.9525
 49
0
 49
-0.9525
  0
LTYPE
  2
DOT2
 70
    0
  3
Dot (.5x) .....................................
 72
   65
 73
    2
 40
3.175
 49
0
 49
-3.175
  0
LTYPE
  2
DOTX2
 70
    0
  3
Dot (2x) .  .  .  .  .  .  .  .  .  .  .  .  .
 72
   65
 73
    2
 40
12.7
 49
0
 49
-12.7
  0
LTYPE
  2
DASHED
 70
    0
  3
Dashed _ _ _ _ _ _ _ _ _ _ _ _ _ _ _ _ _
 72
   65
 73
    2
 40
19.05
 49
12.7
 49
-6.35
  0
LTYPE
  2
DASHEDTINY
 70
    0
  3
Dashed (.15x) _ _ _ _ _ _ _ _ _ _ _ _ _ _ _ _ _
 72
   65
 73
    2
 40
2.8575
 49
1.905
 49
-0.9525
  0
LTYPE
  2
DASHED2
 70
    0
  3
Dashed (.5x) _ _ _ _ _ _ _ _ _ _ _ _ _ _ _ _ _
 72
   65
 73
    2
 40
9.524999999999999
 49
6.35
 49
-3.175
  0
LTYPE
  2
DASHEDX2
 70
    0
  3
Dashed (2x) ____  ____  ____  ____  ____  ___
 72
   65
 73
    2
 40
38.09999999999999
 49
25.4
 49
-12.7
  0
LTYPE
  2
DASHDOT
 70
    0
  3
Dash dot __ . __ . __ . __ . __ . __ . __ . __
 72
   65
 73
    4
 40
25.4
 49
12.7
 49
-6.35
 49
0
 49
-6.35
  0
LTYPE
  2
DASHDOTTINY
 70
    0
  3
Dash dot (.15x) _._._._._._._._._._._._._._._.
 72
   65
 73
    4
 40
3.81
 49
1.905
 49
-0.9525
 49
0
 49
-0.9525
  0
LTYPE
  2
DASHDOT2
 70
    0
  3
Dash dot (.5x) _._._._._._._._._._._._._._._.
 72
   65
 73
    4
 40
12.7
 49
6.35
 49
-3.175
 49
0
 49
-3.175
  0
LTYPE
  2
DASHDOTX2
 70
    0
  3
Dash dot (2x) ____  .  ____  .  ____  .  ___
 72
   65
 73
    4
 40
50.8
 49
25.4
 49
-12.7
 49
0
 49
-12.7
  0
LTYPE
  2
DIVIDE
 70
    0
  3
Divide ____ . . ____ . . ____ . . ____ . . ____
 72
   65
 73
    6
 40
31.75
 49
12.7
 49
-6.35
 49
0
 49
-6.35
 49
0
 49
-6.35
  0
LTYPE
  2
DIVIDETINY
 70
    0
  3
Divide (.15x) __..__..__..__..__..__..__..__.._
 72
   65
 73
    6
 40
4.7625
 49
1.905
 49
-0.9525
 49
0
 49
-0.9525
 49
0
 49
-0.9525
  0
LTYPE
  2
DIVIDE2
 70
    0
  3
Divide (.5x) __..__..__..__..__..__..__..__.._
 72
   65
 73
    6
 40
15.875
 49
6.35
 49
-3.175
 49
0
 49
-3.175
 49
0
 49
-3.175
  0
LTYPE
  2
DIVIDEX2
 70
    0
  3
Divide (2x) ________  .  .  ________  .  .  _
 72
   65
 73
    6
 40
63.5
 49
25.4
 49
-12.7
 49
0
 49
-12.7
 49
0
 49
-12.7
  0
LTYPE
  2
BORDER
 70
    0
  3
Border __ __ . __ __ . __ __ . __ __ . __ __ .
 72
   65
 73
    6
 40
44.45
 49
12.7
 49
-6.35
 49
12.7
 49
-6.35
 49
0
 49
-6.35
  0
LTYPE
  2
BORDERTINY
 70
    0
  3
Border (.15x) __.__.__.__.__.__.__.__.__.__.__.
 72
   65
 73
    6
 40
6.6675
 49
1.905
 49
-0.9525
 49
1.905
 49
-0.9525
 49
0
 49
-0.9525
  0
LTYPE
  2
BORDER2
 70
    0
  3
Border (.5x) __.__.__.__.__.__.__.__.__.__.__.
 72
   65
 73
    6
 40
22.225
 49
6.35
 49
-3.175
 49
6.35
 49
-3.175
 49
0
 49
-3.175
  0
LTYPE
  2
BORDERX2
 70
    0
  3
Border (2x) ____  ____  .  ____  ____  .  ___
 72
   65
 73
    6
 40
88.89999999999999
 49
25.4
 49
-12.7
 49
25.4
 49
-12.7
 49
0
 49
-12.7
  0
LTYPE
  2
CENTER
 70
    0
  3
Center ____ _ ____ _ ____ _ ____ _ ____ _ ____
 72
   65
 73
    4
 40
50.8
 49
31.75
 49
-6.35
 49
6.35
 49
-6.35
  0
LTYPE
  2
CENTERTINY
 70
    0
  3
Center (.15x) ___ _ ___ _ ___ _ ___ _ ___ _ ___
 72
   65
 73
    4
 40
7.619999999999999
 49
4.7625
 49
-0.9525
 49
0.9525
 49
-0.9525
  0
LTYPE
  2
CENTER2
 70
    0
  3
Center (.5x) ___ _ ___ _ ___ _ ___ _ ___ _ ___
 72
   65
 73
    4
 40
28.575
 49
19.05
 49
-3.175
 49
3.175
 49
-3.175
  0
LTYPE
  2
CENTERX2
 70
    0
  3
Center (2x) ________  __  ________  __  _____
 72
   65
 73
    4
 40
101.6
 49
63.5
 49
-12.7
 49
12.7
 49
-12.7
  0
ENDTAB
  0
TABLE
  2
LAYER
 70
    1
  0
LAYER
  2
0
 70
    0
 62
    7
  6
CONTINUOUS
  0
LAYER
  2
LAYER_2
 70
    0
 62
    7
  6
CONTINUOUS
  0
ENDTAB
  0
TABLE
  2
STYLE
 70
    3
  0
STYLE
  2
STANDARD
 70
    0
 40
0
 41
1
 50
0
 71
    0
 42
1
  3
TXT
  4

  0
ENDTAB
  0
TABLE
  2
VIEW
 70
    0
  0
ENDTAB
  0
TABLE
  2
UCS
 70
    0
  0
ENDTAB
  0
TABLE
  2
APPID
 70
    1
  0
APPID
  2
ACAD
 70
    0
  0
APPID
  2
LIBRECAD
 70
    0
  0
ENDTAB
  0
TABLE
  2
DIMSTYLE
 70
    1
  0
DIMSTYLE
  2
STANDARD
 70
    0
  3

  4

  5

  6

  7

 40
1
 41
0.18
 42
0.0625
 43
0.38
 44
0.18
 45
0
 46
0
 47
0
 48
0
 49
1
140
0.18
141
0.09
142
0
143
25.4
144
1
145
0
146
1
147
0.09
 71
    0
 72
    0
 73
    1
 74
    1
 75
    0
 76
    0
 77
    0
 78
    0
170
    0
171
    2
172
    0
173
    0
174
    0
175
    0
176
    0
177
    0
178
    0
  0
ENDTAB
  0
ENDSEC
  0
SECTION
  2
BLOCKS
  0
BLOCK
  8
0
  2
$MODEL_SPACE
 70
    0
 10
0
 20
0
 30
0
  3
$MODEL_SPACE
  1

  0
ENDBLK
  8
0
  0
BLOCK
  8
0
  2
$PAPER_SPACE
 70
    0
 10
0
 20
0
 30
0
  3
$PAPER_SPACE
  1

  0
ENDBLK
  8
0
  0
BLOCK
  8
0
  2
BLOCK_2
 70
    0
 10
0
 20
0
  3
BLOCK_2
  1

  0
POLYLINE
  5
31
  8
0
  6
BYLAYER
 62
    7
 66
    1
 10
0
 20
0
 30
0
 70
    0
  0
VERTEX
  5
32
  8
0
  6
BYLAYER
 62
    7
 10
58.21884086001126
 20
97.22093910329893
 30
0
  0
VERTEX
  5
33
  8
0
  6
BYLAYER
 62
    7
 10
28.45166557448431
 20
97.21404891232844
 30
0
  0
SEQEND
  5
34
  8
0
  6
BYLAYER
 62
    7
  0
ENDBLK
  8
0
  0
BLOCK
  8
0
  2
BLOCK_3
 70
    0
 10
0
 20
0
  3
BLOCK_3
  1

  0
POLYLINE
  5
35
  8
0
  6
BYLAYER
 62
    7
 66
    1
 10
0
 20
0
 30
0
 70
    0
  0
VERTEX
  5
36
  8
0
  6
BYLAYER
 62
    7
 10
21.22006564139637
 20
104.4439262976737
 30
0
  0
VERTEX
  5
37
  8
0
  6
BYLAYER
 62
    7
 10
21.22006564139637
 20
174.9798447913245
 30
0
  0
SEQEND
  5
38
  8
0
  6
BYLAYER
 62
    7
  0
ENDBLK
  8
0
  0
BLOCK
  8
0
  2
BLOCK_4
 70
    0
 10
0
 20
0
  3
BLOCK_4
  1

  0
POLYLINE
  5
39
  8
0
  6
BYLAYER
 62
    7
 66
    1
 10
0
 20
0
 30
0
 70
    0
  0
VERTEX
  5
3A
  8
0
  6
BYLAYER
 62
    7
 10
28.45132106493578
 20
182.2098944314441
 30
0
  0
VERTEX
  5
3B
  8
0
  6
BYLAYER
 62
    7
 10
187.4514349574774
 20
182.181644648465
 30
0
  0
SEQEND
  5
3C
  8
0
  6
BYLAYER
 62
    7
  0
ENDBLK
  8
0
  0
BLOCK
  8
0
  2
BLOCK_5
 70
    0
 10
0
 20
0
  3
BLOCK_5
  1

  0
POLYLINE
  5
3D
  8
0
  6
BYLAYER
 62
    7
 66
    1
 10
0
 20
0
 30
0
 70
    0
  0
VERTEX
  5
3E
  8
0
  6
BYLAYER
 62
    7
 10
187.4424777092158
 20
97.19027775348022
 30
0
  0
VERTEX
  5
3F
  8
0
  6
BYLAYER
 62
    7
 10
157.6851209458218
 20
97.22093910329893
 30
0
  0
VERTEX
  5
40
  8
0
  6
BYLAYER
 62
    7
 10
58.21884086001126
 20
97.22093910329893
 30
0
  0
SEQEND
  5
41
  8
0
  6
BYLAYER
 62
    7
  0
ENDBLK
  8
0
  0
BLOCK
  8
0
  2
BLOCK_6
 70
    0
 10
0
 20
0
  3
BLOCK_6
  1

  0
POLYLINE
  5
42
  8
0
  6
BYLAYER
 62
    7
 66
    1
 10
0
 20
0
 30
0
 70
    0
  0
VERTEX
  5
43
  8
0
  6
BYLAYER
 62
    7
 10
194.6799343046286
 20
174.9515950083454
 30
0
  0
VERTEX
  5
44
  8
0
  6
BYLAYER
 62
    7
 10
194.6799343046286
 20
104.4201551388255
 30
0
  0
SEQEND
  5
45
  8
0
  6
BYLAYER
 62
    7
  0
ENDBLK
  8
0
  0
ENDSEC
  0
SECTION
  2
ENTITIES
  0
INSERT
  5
46
  8
0
  6
BYLAYER
 62
  256
  2
BLOCK_2
 10
0
 20
0
 30
0
 41
1
 42
1
 43
0
 50
0
 70
    1
 71
    1
 44
0
 45
0
  0
INSERT
  5
47
  8
0
  6
BYLAYER
 62
  256
  2
BLOCK_3
 10
0
 20
0
 30
0
 41
1
 42
1
 43
0
 50
0
 70
    1
 71
    1
 44
0
 45
0
  0
INSERT
  5
48
  8
0
  6
BYLAYER
 62
  256
  2
BLOCK_4
 10
0
 20
0
 30
0
 41
1
 42
1
 43
0
 50
0
 70
    1
 71
    1
 44
0
 45
0
  0
INSERT
  5
49
  8
0
  6
BYLAYER
 62
  256
  2
BLOCK_5
 10
0
 20
0
 30
0
 41
1
 42
1
 43
0
 50
0
 70
    1
 71
    1
 44
0
 45
0
  0
INSERT
  5
4A
  8
0
  6
BYLAYER
 62
  256
  2
BLOCK_6
 10
0
 20
0
 30
0
 41
1
 42
1
 43
0
 50
0
 70
    1
 71
    1
 44
0
 45
0
  0
POLYLINE
  5
4B
  8
0
  6
BYLAYER
 62
    7
 66
    1
 10
0
 20
0
 30
0
 70
    0
  0
VERTEX
  5
4C
  8
0
  6
BYLAYER
 62
    7
 10
194.6799343046286
 20
104.4201551388255
 30
0
  0
VERTEX
  5
4D
  8
0
  6
BYLAYER
 62
    7
 10
194.6699122002612
 20
104.0358794212642
 30
0
  0
VERTEX
  5
4E
  8
0
  6
BYLAYER
 62
    7
 10
194.6401780114325
 20
103.6568635252938
 30
0
  0
VERTEX
  5
4F
  8
0
  6
BYLAYER
 62
    7
 10
194.5912299245527
 20
103.2836050822421
 30
0
  0
VERTEX
  5
50
  8
0
  6
BYLAYER
 62
    7
 10
194.5235661260325
 20
102.9166017234373
 30
0
  0
VERTEX
  5
51
  8
0
  6
BYLAYER
 62
    7
 10
194.4376848022819
 20
102.5563510802073
 30
0
  0
VERTEX
  5
52
  8
0
  6
BYLAYER
 62
    7
 10
194.3340841397114
 20
102.2033507838802
 30
0
  0
VERTEX
  5
53
  8
0
  6
BYLAYER
 62
    7
 10
194.2132623247313
 20
101.8580984657838
 30
0
  0
VERTEX
  5
54
  8
0
  6
BYLAYER
 62
    7
 10
194.0757175437519
 20
101.5210917572462
 30
0
  0
VERTEX
  5
55
  8
0
  6
BYLAYER
 62
    7
 10
193.9219479831836
 20
101.1928282895953
 30
0
  0
VERTEX
  5
56
  8
0
  6
BYLAYER
 62
    7
 10
193.7524518294368
 20
100.8738056941592
 30
0
  0
VERTEX
  5
57
  8
0
  6
BYLAYER
 62
    7
 10
193.5677272689217
 20
100.5645216022659
 30
0
  0
VERTEX
  5
58
  8
0
  6
BYLAYER
 62
    7
 10
193.3682724880487
 20
100.2654736452433
 30
0
  0
VERTEX
  5
59
  8
0
  6
BYLAYER
 62
    7
 10
193.1545856732282
 20
99.97715945441948
 30
0
  0
VERTEX
  5
5A
  8
0
  6
BYLAYER
 62
    7
 10
192.9271650108705
 20
99.70007666112232
 30
0
  0
VERTEX
  5
5B
  8
0
  6
BYLAYER
 62
    7
 10
192.6865086873859
 20
99.4347228966799
 30
0
  0
VERTEX
  5
5C
  8
0
  6
BYLAYER
 62
    7
 10
192.4331148891847
 20
99.18159579242015
 30
0
  0
VERTEX
  5
5D
  8
0
  6
BYLAYER
 62
    7
 10
192.1674818026775
 20
98.9411929796711
 30
0
  0
VERTEX
  5
5E
  8
0
  6
BYLAYER
 62
    7
 10
191.8901076142743
 20
98.71401208976071
 30
0
  0
VERTEX
  5
5F
  8
0
  6
BYLAYER
 62
    7
 10
191.6014905103856
 20
98.500550754017
 30
0
  0
VERTEX
  5
60
  8
0
  6
BYLAYER
 62
    7
 10
191.3021286774218
 20
98.30130660376793
 30
0
  0
VERTEX
  5
61
  8
0
  6
BYLAYER
 62
    7
 10
190.9925203017931
 20
98.11677727034152
 30
0
  0
VERTEX
  5
62
  8
0
  6
BYLAYER
 62
    7
 10
190.6731635699099
 20
97.94746038506572
 30
0
  0
VERTEX
  5
63
  8
0
  6
BYLAYER
 62
    7
 10
190.3445566681826
 20
97.79385357926856
 30
0
  0
VERTEX
  5
64
  8
0
  6
BYLAYER
 62
    7
 10
190.0071977830215
 20
97.65645448427799
 30
0
  0
VERTEX
  5
65
  8
0
  6
BYLAYER
 62
    7
 10
189.6615851008369
 20
97.53576073142203
 30
0
  0
VERTEX
  5
66
  8
0
  6
BYLAYER
 62
    7
 10
189.3082168080392
 20
97.43226995202865
 30
0
  0
VERTEX
  5
67
  8
0
  6
BYLAYER
 62
    7
 10
188.9475910910388
 20
97.34647977742586
 30
0
  0
VERTEX
  5
68
  8
0
  6
BYLAYER
 62
    7
 10
188.5802061362458
 20
97.27888783894163
 30
0
  0
VERTEX
  5
69
  8
0
  6
BYLAYER
 62
    7
 10
188.2065601300708
 20
97.22999176790394
 30
0
  0
VERTEX
  5
6A
  8
0
  6
BYLAYER
 62
    7
 10
187.827151258924
 20
97.20028919564082
 30
0
  0
VERTEX
  5
6B
  8
0
  6
BYLAYER
 62
    7
 10
187.4424777092158
 20
97.19027775348022
 30
0
  0
SEQEND
  5
6C
  8
0
  6
BYLAYER
 62
    7
  0
POLYLINE
  5
6D
  8
0
  6
BYLAYER
 62
    7
 66
    1
 10
0
 20
0
 30
0
 70
    0
  0
VERTEX
  5
6E
  8
0
  6
BYLAYER
 62
    7
 10
194.6799343046286
 20
174.9515950083454
 30
0
  0
VERTEX
  5
6F
  8
0
  6
BYLAYER
 62
    7
 10
194.6699239495043
 20
175.3358712520785
 30
0
  0
VERTEX
  5
70
  8
0
  6
BYLAYER
 62
    7
 10
194.6402246846068
 20
175.7148886803076
 30
0
  0
VERTEX
  5
71
  8
0
  6
BYLAYER
 62
    7
 10
194.5913342106495
 20
176.0881495923192
 30
0
  0
VERTEX
  5
72
  8
0
  6
BYLAYER
 62
    7
 10
194.5237502283457
 20
176.4551562874003
 30
0
  0
VERTEX
  5
73
  8
0
  6
BYLAYER
 62
    7
 10
194.4379704384085
 20
176.8154110648373
 30
0
  0
VERTEX
  5
74
  8
0
  6
BYLAYER
 62
    7
 10
194.3344925415514
 20
177.1684162239172
 30
0
  0
VERTEX
  5
75
  8
0
  6
BYLAYER
 62
    7
 10
194.2138142384875
 20
177.5136740639266
 30
0
  0
VERTEX
  5
76
  8
0
  6
BYLAYER
 62
    7
 10
194.0764332299302
 20
177.8506868841522
 30
0
  0
VERTEX
  5
77
  8
0
  6
BYLAYER
 62
    7
 10
193.9228472165928
 20
178.1789569838806
 30
0
  0
VERTEX
  5
78
  8
0
  6
BYLAYER
 62
    7
 10
193.7535538991885
 20
178.4979866623988
 30
0
  0
VERTEX
  5
79
  8
0
  6
BYLAYER
 62
    7
 10
193.5690509784307
 20
178.8072782189933
 30
0
  0
VERTEX
  5
7A
  8
0
  6
BYLAYER
 62
    7
 10
193.3698361550325
 20
179.106333952951
 30
0
  0
VERTEX
  5
7B
  8
0
  6
BYLAYER
 62
    7
 10
193.1564071297073
 20
179.3946561635584
 30
0
  0
VERTEX
  5
7C
  8
0
  6
BYLAYER
 62
    7
 10
192.9292616031684
 20
179.6717471501023
 30
0
  0
VERTEX
  5
7D
  8
0
  6
BYLAYER
 62
    7
 10
192.6888972761291
 20
179.9371092118695
 30
0
  0
VERTEX
  5
7E
  8
0
  6
BYLAYER
 62
    7
 10
192.4358118493025
 20
180.1902446481466
 30
0
  0
VERTEX
  5
7F
  8
0
  6
BYLAYER
 62
    7
 10
192.1705030234021
 20
180.4306557582204
 30
0
  0
VERTEX
  5
80
  8
0
  6
BYLAYER
 62
    7
 10
191.8934684991412
 20
180.6578448413776
 30
0
  0
VERTEX
  5
81
  8
0
  6
BYLAYER
 62
    7
 10
191.6052059772328
 20
180.8713141969048
 30
0
  0
VERTEX
  5
82
  8
0
  6
BYLAYER
 62
    7
 10
191.3062131583904
 20
181.0705661240889
 30
0
  0
VERTEX
  5
83
  8
0
  6
BYLAYER
 62
    7
 10
190.9969877433274
 20
181.2551029222166
 30
0
  0
VERTEX
  5
84
  8
0
  6
BYLAYER
 62
    7
 10
190.6780274327568
 20
181.4244268905745
 30
0
  0
VERTEX
  5
85
  8
0
  6
BYLAYER
 62
    7
 10
190.349829927392
 20
181.5780403284493
 30
0
  0
VERTEX
  5
86
  8
0
  6
BYLAYER
 62
    7
 10
190.0128929279464
 20
181.7154455351279
 30
0
  0
VERTEX
  5
87
  8
0
  6
BYLAYER
 62
    7
 10
189.6677141351331
 20
181.8361448098968
 30
0
  0
VERTEX
  5
88
  8
0
  6
BYLAYER
 62
    7
 10
189.3147912496655
 20
181.9396404520428
 30
0
  0
VERTEX
  5
89
  8
0
  6
BYLAYER
 62
    7
 10
188.9546219722569
 20
182.0254347608527
 30
0
  0
VERTEX
  5
8A
  8
0
  6
BYLAYER
 62
    7
 10
188.5877040036204
 20
182.0930300356132
 30
0
  0
VERTEX
  5
8B
  8
0
  6
BYLAYER
 62
    7
 10
188.2145350444695
 20
182.1419285756109
 30
0
  0
VERTEX
  5
8C
  8
0
  6
BYLAYER
 62
    7
 10
187.8356127955174
 20
182.1716326801326
 30
0
  0
VERTEX
  5
8D
  8
0
  6
BYLAYER
 62
    7
 10
187.4514349574774
 20
182.181644648465
 30
0
  0
SEQEND
  5
8E
  8
0
  6
BYLAYER
 62
    7
  0
POLYLINE
  5
8F
  8
0
  6
BYLAYER
 62
    7
 66
    1
 10
0
 20
0
 30
0
 70
    0
  0
VERTEX
  5
90
  8
0
  6
BYLAYER
 62
    7
 10
21.22006564139637
 20
104.4439262976737
 30
0
  0
VERTEX
  5
91
  8
0
  6
BYLAYER
 62
    7
 10
21.23007974332657
 20
104.0596505801124
 30
0
  0
VERTEX
  5
92
  8
0
  6
BYLAYER
 62
    7
 10
21.25979017925635
 20
103.680634684142
 30
0
  0
VERTEX
  5
93
  8
0
  6
BYLAYER
 62
    7
 10
21.30869914439447
 20
103.3073762410903
 30
0
  0
VERTEX
  5
94
  8
0
  6
BYLAYER
 62
    7
 10
21.37630883394974
 20
102.9403728822855
 30
0
  0
VERTEX
  5
95
  8
0
  6
BYLAYER
 62
    7
 10
21.46212144313089
 20
102.5801222390555
 30
0
  0
VERTEX
  5
96
  8
0
  6
BYLAYER
 62
    7
 10
21.56563916714675
 20
102.2271219427284
 30
0
  0
VERTEX
  5
97
  8
0
  6
BYLAYER
 62
    7
 10
21.68636420120605
 20
101.881869624632
 30
0
  0
VERTEX
  5
98
  8
0
  6
BYLAYER
 62
    7
 10
21.82379874051759
 20
101.5448629160944
 30
0
  0
VERTEX
  5
99
  8
0
  6
BYLAYER
 62
    7
 10
21.97744498029013
 20
101.2165994484435
 30
0
  0
VERTEX
  5
9A
  8
0
  6
BYLAYER
 62
    7
 10
22.14680511573247
 20
100.8975768530074
 30
0
  0
VERTEX
  5
9B
  8
0
  6
BYLAYER
 62
    7
 10
22.33138134205337
 20
100.5882927611141
 30
0
  0
VERTEX
  5
9C
  8
0
  6
BYLAYER
 62
    7
 10
22.53067585446161
 20
100.2892448040915
 30
0
  0
VERTEX
  5
9D
  8
0
  6
BYLAYER
 62
    7
 10
22.74419084816595
 20
100.0009306132677
 30
0
  0
VERTEX
  5
9E
  8
0
  6
BYLAYER
 62
    7
 10
22.97142851837519
 20
99.72384781997054
 30
0
  0
VERTEX
  5
9F
  8
0
  6
BYLAYER
 62
    7
 10
23.2118910602981
 20
99.45849405552809
 30
0
  0
VERTEX
  5
A0
  8
0
  6
BYLAYER
 62
    7
 10
23.46508066914344
 20
99.20536695126836
 30
0
  0
VERTEX
  5
A1
  8
0
  6
BYLAYER
 62
    7
 10
23.73049954012
 20
98.96496413851931
 30
0
  0
VERTEX
  5
A2
  8
0
  6
BYLAYER
 62
    7
 10
24.00764986843657
 20
98.73778324860892
 30
0
  0
VERTEX
  5
A3
  8
0
  6
BYLAYER
 62
    7
 10
24.29603384930189
 20
98.52432191286522
 30
0
  0
VERTEX
  5
A4
  8
0
  6
BYLAYER
 62
    7
 10
24.59515367792476
 20
98.32507776261615
 30
0
  0
VERTEX
  5
A5
  8
0
  6
BYLAYER
 62
    7
 10
24.90451154951396
 20
98.14054842918975
 30
0
  0
VERTEX
  5
A6
  8
0
  6
BYLAYER
 62
    7
 10
25.22360965927825
 20
97.97123154391394
 30
0
  0
VERTEX
  5
A7
  8
0
  6
BYLAYER
 62
    7
 10
25.55195020242641
 20
97.81762473811676
 30
0
  0
VERTEX
  5
A8
  8
0
  6
BYLAYER
 62
    7
 10
25.88903537416723
 20
97.68022564312622
 30
0
  0
VERTEX
  5
A9
  8
0
  6
BYLAYER
 62
    7
 10
26.23436736970947
 20
97.55953189027025
 30
0
  0
VERTEX
  5
AA
  8
0
  6
BYLAYER
 62
    7
 10
26.58744838426191
 20
97.45604111087687
 30
0
  0
VERTEX
  5
AB
  8
0
  6
BYLAYER
 62
    7
 10
26.94778061303333
 20
97.37025093627408
 30
0
  0
VERTEX
  5
AC
  8
0
  6
BYLAYER
 62
    7
 10
27.31486625123251
 20
97.30265899778985
 30
0
  0
VERTEX
  5
AD
  8
0
  6
BYLAYER
 62
    7
 10
27.6882074940682
 20
97.25376292675216
 30
0
  0
VERTEX
  5
AE
  8
0
  6
BYLAYER
 62
    7
 10
28.06730653674921
 20
97.22406035448904
 30
0
  0
VERTEX
  5
AF
  8
0
  6
BYLAYER
 62
    7
 10
28.45166557448431
 20
97.21404891232844
 30
0
  0
SEQEND
  5
B0
  8
0
  6
BYLAYER
 62
    7
  0
POLYLINE
  5
B1
  8
0
  6
BYLAYER
 62
    7
 66
    1
 10
0
 20
0
 30
0
 70
    0
  0
VERTEX
  5
B2
  8
0
  6
BYLAYER
 62
    7
 10
21.22006564139637
 20
174.9798447913245
 30
0
  0
VERTEX
  5
B3
  8
0
  6
BYLAYER
 62
    7
 10
21.23007921137265
 20
175.3641210350577
 30
0
  0
VERTEX
  5
B4
  8
0
  6
BYLAYER
 62
    7
 10
21.2597880745691
 20
175.7431384632867
 30
0
  0
VERTEX
  5
B5
  8
0
  6
BYLAYER
 62
    7
 10
21.30869446088714
 20
176.1163993752984
 30
0
  0
VERTEX
  5
B6
  8
0
  6
BYLAYER
 62
    7
 10
21.37630060022819
 20
176.4834060703793
 30
0
  0
VERTEX
  5
B7
  8
0
  6
BYLAYER
 62
    7
 10
21.46210872249368
 20
176.8436608478164
 30
0
  0
VERTEX
  5
B8
  8
0
  6
BYLAYER
 62
    7
 10
21.56562105758503
 20
177.1966660068963
 30
0
  0
VERTEX
  5
B9
  8
0
  6
BYLAYER
 62
    7
 10
21.68633983540366
 20
177.5419238469056
 30
0
  0
VERTEX
  5
BA
  8
0
  6
BYLAYER
 62
    7
 10
21.82376728585101
 20
177.8789366671313
 30
0
  0
VERTEX
  5
BB
  8
0
  6
BYLAYER
 62
    7
 10
21.97740563882848
 20
178.2072067668597
 30
0
  0
VERTEX
  5
BC
  8
0
  6
BYLAYER
 62
    7
 10
22.14675712423751
 20
178.5262364453779
 30
0
  0
VERTEX
  5
BD
  8
0
  6
BYLAYER
 62
    7
 10
22.33132397197951
 20
178.8355280019724
 30
0
  0
VERTEX
  5
BE
  8
0
  6
BYLAYER
 62
    7
 10
22.53060841195591
 20
179.1345837359301
 30
0
  0
VERTEX
  5
BF
  8
0
  6
BYLAYER
 62
    7
 10
22.74411267406814
 20
179.4229059465375
 30
0
  0
VERTEX
  5
C0
  8
0
  6
BYLAYER
 62
    7
 10
22.9713389882176
 20
179.6999969330814
 30
0
  0
VERTEX
  5
C1
  8
0
  6
BYLAYER
 62
    7
 10
23.21178958430574
 20
179.9653589948486
 30
0
  0
VERTEX
  5
C2
  8
0
  6
BYLAYER
 62
    7
 10
23.46496669223396
 20
180.2184944311257
 30
0
  0
VERTEX
  5
C3
  8
0
  6
BYLAYER
 62
    7
 10
23.73037254190371
 20
180.4589055411995
 30
0
  0
VERTEX
  5
C4
  8
0
  6
BYLAYER
 62
    7
 10
24.00750936321637
 20
180.6860946243567
 30
0
  0
VERTEX
  5
C5
  8
0
  6
BYLAYER
 62
    7
 10
24.29587938607341
 20
180.8995639798839
 30
0
  0
VERTEX
  5
C6
  8
0
  6
BYLAYER
 62
    7
 10
24.59498484037622
 20
181.098815907068
 30
0
  0
VERTEX
  5
C7
  8
0
  6
BYLAYER
 62
    7
 10
24.90432795602625
 20
181.2833527051957
 30
0
  0
VERTEX
  5
C8
  8
0
  6
BYLAYER
 62
    7
 10
25.22341096292489
 20
181.4526766735536
 30
0
  0
VERTEX
  5
C9
  8
0
  6
BYLAYER
 62
    7
 10
25.55173609097359
 20
181.6062901114284
 30
0
  0
VERTEX
  5
CA
  8
0
  6
BYLAYER
 62
    7
 10
25.88880557007377
 20
181.7436953181069
 30
0
  0
VERTEX
  5
CB
  8
0
  6
BYLAYER
 62
    7
 10
26.23412163012684
 20
181.8643945928759
 30
0
  0
VERTEX
  5
CC
  8
0
  6
BYLAYER
 62
    7
 10
26.58718650103422
 20
181.9678902350219
 30
0
  0
VERTEX
  5
CD
  8
0
  6
BYLAYER
 62
    7
 10
26.94750241269736
 20
182.0536845438318
 30
0
  0
VERTEX
  5
CE
  8
0
  6
BYLAYER
 62
    7
 10
27.31457159501766
 20
182.1212798185923
 30
0
  0
VERTEX
  5
CF
  8
0
  6
BYLAYER
 62
    7
 10
27.68789627789654
 20
182.17017835859
 30
0
  0
VERTEX
  5
D0
  8
0
  6
BYLAYER
 62
    7
 10
28.06697869123544
 20
182.1998824631117
 30
0
  0
VERTEX
  5
D1
  8
0
  6
BYLAYER
 62
    7
 10
28.45132106493578
 20
182.2098944314441
 30
0
  0
SEQEND
  5
D2
  8
0
  6
BYLAYER
 62
    7
  0
POLYLINE
  5
D3
  8
LAYER_2
  6
BYLAYER
 62
    7
 66
    1
 10
0
 20
0
 30
0
 70
    1
  0
VERTEX
  5
D4
  8
LAYER_2
  6
BYLAYER
 62
    7
 10
30.30076315793408
 20
173.9102000614126
 30
0
  0
VERTEX
  5
D5
  8
LAYER_2
  6
BYLAYER
 62
    7
 10
30.2503683750499
 20
173.8090623477258
 30
0
  0
VERTEX
  5
D6
  8
LAYER_2
  6
BYLAYER
 62
    7
 10
30.19132783213006
 20
173.7108518231337
 30
0
  0
VERTEX
  5
D7
  8
LAYER_2
  6
BYLAYER
 62
    7
 10
30.12437758286002
 20
173.6163045413219
 30
0
  0
VERTEX
  5
D8
  8
LAYER_2
  6
BYLAYER
 62
    7
 10
30.05025368092522
 20
173.5261565559758
 30
0
  0
VERTEX
  5
D9
  8
LAYER_2
  6
BYLAYER
 62
    7
 10
29.96969218001117
 20
173.4411439207808
 30
0
  0
VERTEX
  5
DA
  8
LAYER_2
  6
BYLAYER
 62
    7
 10
29.8834291338033
 20
173.3620026894224
 30
0
  0
VERTEX
  5
DB
  8
LAYER_2
  6
BYLAYER
 62
    7
 10
29.79220059598708
 20
173.2894689155861
 30
0
  0
VERTEX
  5
DC
  8
LAYER_2
  6
BYLAYER
 62
    7
 10
29.69674262024799
 20
173.2242786529573
 30
0
  0
VERTEX
  5
DD
  8
LAYER_2
  6
BYLAYER
 62
    7
 10
29.59779126027149
 20
173.1671679552216
 30
0
  0
VERTEX
  5
DE
  8
LAYER_2
  6
BYLAYER
 62
    7
 10
29.49608152114474
 20
173.1188694014236
 30
0
  0
VERTEX
  5
DF
  8
LAYER_2
  6
BYLAYER
 62
    7
 10
29.39219352610405
 20
173.079602353302
 30
0
  0
VERTEX
  5
E0
  8
LAYER_2
  6
BYLAYER
 62
    7
 10
29.28639021682197
 20
173.0485351581178
 30
0
  0
VERTEX
  5
E1
  8
LAYER_2
  6
BYLAYER
 62
    7
 10
29.17889569799742
 20
173.0247074727342
 30
0
  0
VERTEX
  5
E2
  8
LAYER_2
  6
BYLAYER
 62
    7
 10
29.06993407432929
 20
173.0071589540144
 30
0
  0
VERTEX
  5
E3
  8
LAYER_2
  6
BYLAYER
 62
    7
 10
28.95972945051652
 20
172.9949292588215
 30
0
  0
VERTEX
  5
E4
  8
LAYER_2
  6
BYLAYER
 62
    7
 10
28.848505931258
 20
172.9870580440187
 30
0
  0
VERTEX
  5
E5
  8
LAYER_2
  6
BYLAYER
 62
    7
 10
28.73648762125266
 20
172.9825849664692
 30
0
  0
VERTEX
  5
E6
  8
LAYER_2
  6
BYLAYER
 62
    7
 10
28.62389862519941
 20
172.9805496830363
 30
0
  0
VERTEX
  5
E7
  8
LAYER_2
  6
BYLAYER
 62
    7
 10
28.51096304779715
 20
172.979991850583
 30
0
  0
VERTEX
  5
E8
  8
LAYER_2
  6
BYLAYER
 62
    7
 10
28.39790500282685
 20
172.9799825983013
 30
0
  0
VERTEX
  5
E9
  8
LAYER_2
  6
BYLAYER
 62
    7
 10
28.2849488561384
 20
172.9804665582055
 30
0
  0
VERTEX
  5
EA
  8
LAYER_2
  6
BYLAYER
 62
    7
 10
28.17231925226604
 20
172.9823540965405
 30
0
  0
VERTEX
  5
EB
  8
LAYER_2
  6
BYLAYER
 62
    7
 10
28.06024085016597
 20
172.986605556443
 30
0
  0
VERTEX
  5
EC
  8
LAYER_2
  6
BYLAYER
 62
    7
 10
27.9489383087944
 20
172.9941812810498
 30
0
  0
VERTEX
  5
ED
  8
LAYER_2
  6
BYLAYER
 62
    7
 10
27.83863628710755
 20
173.0060416134978
 30
0
  0
VERTEX
  5
EE
  8
LAYER_2
  6
BYLAYER
 62
    7
 10
27.72955944406161
 20
173.0231468969237
 30
0
  0
VERTEX
  5
EF
  8
LAYER_2
  6
BYLAYER
 62
    7
 10
27.62193243861279
 20
173.0464574744645
 30
0
  0
VERTEX
  5
F0
  8
LAYER_2
  6
BYLAYER
 62
    7
 10
27.5159799297173
 20
173.0769336892567
 30
0
  0
VERTEX
  5
F1
  8
LAYER_2
  6
BYLAYER
 62
    7
 10
27.41192657633134
 20
173.1155358844374
 30
0
  0
VERTEX
  5
F2
  8
LAYER_2
  6
BYLAYER
 62
    7
 10
27.31002530869568
 20
173.1631305878434
 30
0
  0
VERTEX
  5
F3
  8
LAYER_2
  6
BYLAYER
 62
    7
 10
27.21082891105965
 20
173.2195892931566
 30
0
  0
VERTEX
  5
F4
  8
LAYER_2
  6
BYLAYER
 62
    7
 10
27.11507077037795
 20
173.2841841828771
 30
0
  0
VERTEX
  5
F5
  8
LAYER_2
  6
BYLAYER
 62
    7
 10
27.0234867555836
 20
173.3561792033194
 30
0
  0
VERTEX
  5
F6
  8
LAYER_2
  6
BYLAYER
 62
    7
 10
26.93681273560964
 20
173.434838300798
 30
0
  0
VERTEX
  5
F7
  8
LAYER_2
  6
BYLAYER
 62
    7
 10
26.85578457938911
 20
173.5194254216276
 30
0
  0
VERTEX
  5
F8
  8
LAYER_2
  6
BYLAYER
 62
    7
 10
26.78113815585502
 20
173.6092045121225
 30
0
  0
VERTEX
  5
F9
  8
LAYER_2
  6
BYLAYER
 62
    7
 10
26.71360933394044
 20
173.7034395185974
 30
0
  0
VERTEX
  5
FA
  8
LAYER_2
  6
BYLAYER
 62
    7
 10
26.65393398257838
 20
173.8013943873668
 30
0
  0
VERTEX
  5
FB
  8
LAYER_2
  6
BYLAYER
 62
    7
 10
26.60284797070187
 20
173.9023330647451
 30
0
  0
VERTEX
  5
FC
  8
LAYER_2
  6
BYLAYER
 62
    7
 10
26.56086481445557
 20
174.0055866073375
 30
0
  0
VERTEX
  5
FD
  8
LAYER_2
  6
BYLAYER
 62
    7
 10
26.52737687266619
 20
174.1108244583002
 30
0
  0
VERTEX
  5
FE
  8
LAYER_2
  6
BYLAYER
 62
    7
 10
26.50142393087331
 20
174.2178224740974
 30
0
  0
VERTEX
  5
FF
  8
LAYER_2
  6
BYLAYER
 62
    7
 10
26.48204564594012
 20
174.3263565500301
 30
0
  0
VERTEX
  5
100
  8
LAYER_2
  6
BYLAYER
 62
    7
 10
26.46828167472982
 20
174.4362025813995
 30
0
  0
VERTEX
  5
101
  8
LAYER_2
  6
BYLAYER
 62
    7
 10
26.45917167410559
 20
174.5471364635065
 30
0
  0
VERTEX
  5
102
  8
LAYER_2
  6
BYLAYER
 62
    7
 10
26.45375530093063
 20
174.6589340916524
 30
0
  0
VERTEX
  5
103
  8
LAYER_2
  6
BYLAYER
 62
    7
 10
26.45107221206813
 20
174.7713713611381
 30
0
  0
VERTEX
  5
104
  8
LAYER_2
  6
BYLAYER
 62
    7
 10
26.45016206438127
 20
174.8842241672648
 30
0
  0
VERTEX
  5
105
  8
LAYER_2
  6
BYLAYER
 62
    7
 10
26.45006568037505
 20
174.9972684049972
 30
0
  0
VERTEX
  5
106
  8
LAYER_2
  6
BYLAYER
 62
    7
 10
26.45031097512103
 20
175.1102798287384
 30
0
  0
VERTEX
  5
107
  8
LAYER_2
  6
BYLAYER
 62
    7
 10
26.4516643581018
 20
175.2230338354964
 30
0
  0
VERTEX
  5
108
  8
LAYER_2
  6
BYLAYER
 62
    7
 10
26.45508617245417
 20
175.3353057663146
 30
0
  0
VERTEX
  5
109
  8
LAYER_2
  6
BYLAYER
 62
    7
 10
26.46153676131492
 20
175.446870962237
 30
0
  0
VERTEX
  5
10A
  8
LAYER_2
  6
BYLAYER
 62
    7
 10
26.47197646782088
 20
175.5575047643074
 30
0
  0
VERTEX
  5
10B
  8
LAYER_2
  6
BYLAYER
 62
    7
 10
26.48736563510885
 20
175.6669825135695
 30
0
  0
VERTEX
  5
10C
  8
LAYER_2
  6
BYLAYER
 62
    7
 10
26.50866460631566
 20
175.7750795510673
 30
0
  0
VERTEX
  5
10D
  8
LAYER_2
  6
BYLAYER
 62
    7
 10
26.53683372457809
 20
175.8815712178443
 30
0
  0
VERTEX
  5
10E
  8
LAYER_2
  6
BYLAYER
 62
    7
 10
26.57283333303298
 20
175.9862328549445
 30
0
  0
VERTEX
  5
10F
  8
LAYER_2
  6
BYLAYER
 62
    7
 10
26.61760769026934
 20
176.0888349557977
 30
0
  0
VERTEX
  5
110
  8
LAYER_2
  6
BYLAYER
 62
    7
 10
26.67141495240645
 20
176.188941234013
 30
0
  0
VERTEX
  5
111
  8
LAYER_2
  6
BYLAYER
 62
    7
 10
26.73358513281896
 20
176.2858356764842
 30
0
  0
VERTEX
  5
112
  8
LAYER_2
  6
BYLAYER
 62
    7
 10
26.80338236257382
 20
176.3787824142782
 30
0
  0
VERTEX
  5
113
  8
LAYER_2
  6
BYLAYER
 62
    7
 10
26.88007077273802
 20
176.4670455784619
 30
0
  0
VERTEX
  5
114
  8
LAYER_2
  6
BYLAYER
 62
    7
 10
26.96291449437852
 20
176.5498893001024
 30
0
  0
VERTEX
  5
115
  8
LAYER_2
  6
BYLAYER
 62
    7
 10
27.05117765856227
 20
176.6265777102666
 30
0
  0
VERTEX
  5
116
  8
LAYER_2
  6
BYLAYER
 62
    7
 10
27.14412439635624
 20
176.6963749400215
 30
0
  0
VERTEX
  5
117
  8
LAYER_2
  6
BYLAYER
 62
    7
 10
27.24101883882741
 20
176.758545120434
 30
0
  0
VERTEX
  5
118
  8
LAYER_2
  6
BYLAYER
 62
    7
 10
27.34112511704274
 20
176.8123523825711
 30
0
  0
VERTEX
  5
119
  8
LAYER_2
  6
BYLAYER
 62
    7
 10
27.44372721789594
 20
176.8571267398075
 30
0
  0
VERTEX
  5
11A
  8
LAYER_2
  6
BYLAYER
 62
    7
 10
27.54838885499614
 20
176.8931263482624
 30
0
  0
VERTEX
  5
11B
  8
LAYER_2
  6
BYLAYER
 62
    7
 10
27.6548805217732
 20
176.9212954665248
 30
0
  0
VERTEX
  5
11C
  8
LAYER_2
  6
BYLAYER
 62
    7
 10
27.7629775592709
 20
176.9425944377316
 30
0
  0
VERTEX
  5
11D
  8
LAYER_2
  6
BYLAYER
 62
    7
 10
27.87245530853306
 20
176.9579836050195
 30
0
  0
VERTEX
  5
11E
  8
LAYER_2
  6
BYLAYER
 62
    7
 10
27.98308911060343
 20
176.9684233115255
 30
0
  0
VERTEX
  5
11F
  8
LAYER_2
  6
BYLAYER
 62
    7
 10
28.09465430652586
 20
176.9748739003863
 30
0
  0
VERTEX
  5
120
  8
LAYER_2
  6
BYLAYER
 62
    7
 10
28.20692623734409
 20
176.9782957147387
 30
0
  0
VERTEX
  5
121
  8
LAYER_2
  6
BYLAYER
 62
    7
 10
28.31968024410195
 20
176.9796490977194
 30
0
  0
VERTEX
  5
122
  8
LAYER_2
  6
BYLAYER
 62
    7
 10
28.43269166784322
 20
176.9798943924654
 30
0
  0
VERTEX
  5
123
  8
LAYER_2
  6
BYLAYER
 62
    7
 10
28.54573590557561
 20
176.9797980084592
 30
0
  0
VERTEX
  5
124
  8
LAYER_2
  6
BYLAYER
 62
    7
 10
28.65858871170233
 20
176.9788878607723
 30
0
  0
VERTEX
  5
125
  8
LAYER_2
  6
BYLAYER
 62
    7
 10
28.77102598118806
 20
176.9762047719098
 30
0
  0
VERTEX
  5
126
  8
LAYER_2
  6
BYLAYER
 62
    7
 10
28.8828236093339
 20
176.9707883987348
 30
0
  0
VERTEX
  5
127
  8
LAYER_2
  6
BYLAYER
 62
    7
 10
28.99375749144095
 20
176.9616783981106
 30
0
  0
VERTEX
  5
128
  8
LAYER_2
  6
BYLAYER
 62
    7
 10
29.10360352281029
 20
176.9479144269003
 30
0
  0
VERTEX
  5
129
  8
LAYER_2
  6
BYLAYER
 62
    7
 10
29.21213759874299
 20
176.9285361419671
 30
0
  0
VERTEX
  5
12A
  8
LAYER_2
  6
BYLAYER
 62
    7
 10
29.31913561454017
 20
176.9025832001743
 30
0
  0
VERTEX
  5
12B
  8
LAYER_2
  6
BYLAYER
 62
    7
 10
29.42437346550289
 20
176.8690952583849
 30
0
  0
VERTEX
  5
12C
  8
LAYER_2
  6
BYLAYER
 62
    7
 10
29.52762700809528
 20
176.8271121021386
 30
0
  0
VERTEX
  5
12D
  8
LAYER_2
  6
BYLAYER
 62
    7
 10
29.62856568547366
 20
176.7760260902621
 30
0
  0
VERTEX
  5
12E
  8
LAYER_2
  6
BYLAYER
 62
    7
 10
29.72652055424302
 20
176.7163507389
 30
0
  0
VERTEX
  5
12F
  8
LAYER_2
  6
BYLAYER
 62
    7
 10
29.8207555607179
 20
176.6488219169854
 30
0
  0
VERTEX
  5
130
  8
LAYER_2
  6
BYLAYER
 62
    7
 10
29.91053465121283
 20
176.5741754934514
 30
0
  0
VERTEX
  5
131
  8
LAYER_2
  6
BYLAYER
 62
    7
 10
29.99512177204237
 20
176.4931473372309
 30
0
  0
VERTEX
  5
132
  8
LAYER_2
  6
BYLAYER
 62
    7
 10
30.07378086952102
 20
176.4064733172569
 30
0
  0
VERTEX
  5
133
  8
LAYER_2
  6
BYLAYER
 62
    7
 10
30.14577588996334
 20
176.3148893024626
 30
0
  0
VERTEX
  5
134
  8
LAYER_2
  6
BYLAYER
 62
    7
 10
30.21037077968384
 20
176.2191311617808
 30
0
  0
VERTEX
  5
135
  8
LAYER_2
  6
BYLAYER
 62
    7
 10
30.26682948499708
 20
176.1199347641448
 30
0
  0
VERTEX
  5
136
  8
LAYER_2
  6
BYLAYER
 62
    7
 10
30.31442418840303
 20
176.0180392480253
 30
0
  0
VERTEX
  5
137
  8
LAYER_2
  6
BYLAYER
 62
    7
 10
30.3530263835837
 20
175.9144216618537
 30
0
  0
VERTEX
  5
138
  8
LAYER_2
  6
BYLAYER
 62
    7
 10
30.38350259837599
 20
175.8104540550956
 30
0
  0
VERTEX
  5
139
  8
LAYER_2
  6
BYLAYER
 62
    7
 10
30.4068131759167
 20
175.7075457192952
 30
0
  0
VERTEX
  5
13A
  8
LAYER_2
  6
BYLAYER
 62
    7
 10
30.42391845934264
 20
175.607105945997
 30
0
  0
VERTEX
  5
13B
  8
LAYER_2
  6
BYLAYER
 62
    7
 10
30.43577879179064
 20
175.5105440267453
 30
0
  0
VERTEX
  5
13C
  8
LAYER_2
  6
BYLAYER
 62
    7
 10
30.44335451639748
 20
175.4192692530845
 30
0
  0
VERTEX
  5
13D
  8
LAYER_2
  6
BYLAYER
 62
    7
 10
30.44760597629998
 20
175.3346909165589
 30
0
  0
VERTEX
  5
13E
  8
LAYER_2
  6
BYLAYER
 62
    7
 10
30.44949351463495
 20
175.258218308713
 30
0
  0
VERTEX
  5
13F
  8
LAYER_2
  6
BYLAYER
 62
    7
 10
30.4499774745392
 20
175.1912607210909
 30
0
  0
VERTEX
  5
140
  8
LAYER_2
  6
BYLAYER
 62
    7
 10
30.44999321070348
 20
175.1351291211342
 30
0
  0
VERTEX
  5
141
  8
LAYER_2
  6
BYLAYER
 62
    7
 10
30.44999321070348
 20
175.0892344991576
 30
0
  0
VERTEX
  5
142
  8
LAYER_2
  6
BYLAYER
 62
    7
 10
30.44999321070348
 20
175.0512693236179
 30
0
  0
VERTEX
  5
143
  8
LAYER_2
  6
BYLAYER
 62
    7
 10
30.44999321070348
 20
175.0188641445863
 30
0
  0
VERTEX
  5
144
  8
LAYER_2
  6
BYLAYER
 62
    7
 10
30.44999321070348
 20
174.9896495121341
 30
0
  0
VERTEX
  5
145
  8
LAYER_2
  6
BYLAYER
 62
    7
 10
30.44999321070348
 20
174.9612559763326
 30
0
  0
VERTEX
  5
146
  8
LAYER_2
  6
BYLAYER
 62
    7
 10
30.44999321070348
 20
174.931314087253
 30
0
  0
VERTEX
  5
147
  8
LAYER_2
  6
BYLAYER
 62
    7
 10
30.44999321070348
 20
174.8974543949666
 30
0
  0
VERTEX
  5
148
  8
LAYER_2
  6
BYLAYER
 62
    7
 10
30.44999321070348
 20
174.8573074495447
 30
0
  0
VERTEX
  5
149
  8
LAYER_2
  6
BYLAYER
 62
    7
 10
30.44999321070348
 20
174.8085038010585
 30
0
  0
VERTEX
  5
14A
  8
LAYER_2
  6
BYLAYER
 62
    7
 10
30.44992035809107
 20
174.7489606307406
 30
0
  0
VERTEX
  5
14B
  8
LAYER_2
  6
BYLAYER
 62
    7
 10
30.44910681296827
 20
174.6789360365178
 30
0
  0
VERTEX
  5
14C
  8
LAYER_2
  6
BYLAYER
 62
    7
 10
30.4465941992188
 20
174.5998312013884
 30
0
  0
VERTEX
  5
14D
  8
LAYER_2
  6
BYLAYER
 62
    7
 10
30.44142217370587
 20
174.5130550473917
 30
0
  0
VERTEX
  5
14E
  8
LAYER_2
  6
BYLAYER
 62
    7
 10
30.43263039329266
 20
174.4200164965673
 30
0
  0
VERTEX
  5
14F
  8
LAYER_2
  6
BYLAYER
 62
    7
 10
30.41925851484235
 20
174.3221244709548
 30
0
  0
VERTEX
  5
150
  8
LAYER_2
  6
BYLAYER
 62
    7
 10
30.40034619521816
 20
174.2207878925936
 30
0
  0
VERTEX
  5
151
  8
LAYER_2
  6
BYLAYER
 62
    7
 10
30.37493309128326
 20
174.1174156835231
 30
0
  0
VERTEX
  5
152
  8
LAYER_2
  6
BYLAYER
 62
    7
 10
30.34205885990083
 20
174.0134167657829
 30
0
  0
SEQEND
  5
153
  8
LAYER_2
  6
BYLAYER
 62
    7
  0
POLYLINE
  5
154
  8
LAYER_2
  6
BYLAYER
 62
    7
 66
    1
 10
0
 20
0
 30
0
 70
    1
  0
VERTEX
  5
155
  8
LAYER_2
  6
BYLAYER
 62
    7
 10
30.30076315793408
 20
103.3743389860198
 30
0
  0
VERTEX
  5
156
  8
LAYER_2
  6
BYLAYER
 62
    7
 10
30.2503683750499
 20
103.2731853832596
 30
0
  0
VERTEX
  5
157
  8
LAYER_2
  6
BYLAYER
 62
    7
 10
30.19132783213006
 20
103.1749622098675
 30
0
  0
VERTEX
  5
158
  8
LAYER_2
  6
BYLAYER
 62
    7
 10
30.12437758286002
 20
103.0804051500241
 30
0
  0
VERTEX
  5
159
  8
LAYER_2
  6
BYLAYER
 62
    7
 10
30.05025368092522
 20
102.9902498879102
 30
0
  0
VERTEX
  5
15A
  8
LAYER_2
  6
BYLAYER
 62
    7
 10
29.96969218001117
 20
102.9052321077062
 30
0
  0
VERTEX
  5
15B
  8
LAYER_2
  6
BYLAYER
 62
    7
 10
29.8834291338033
 20
102.8260874935927
 30
0
  0
VERTEX
  5
15C
  8
LAYER_2
  6
BYLAYER
 62
    7
 10
29.79220059598708
 20
102.7535517297504
 30
0
  0
VERTEX
  5
15D
  8
LAYER_2
  6
BYLAYER
 62
    7
 10
29.69674262024799
 20
102.6883605003599
 30
0
  0
VERTEX
  5
15E
  8
LAYER_2
  6
BYLAYER
 62
    7
 10
29.59779126027149
 20
102.6312494896018
 30
0
  0
VERTEX
  5
15F
  8
LAYER_2
  6
BYLAYER
 62
    7
 10
29.49608152114474
 20
102.5829509077728
 30
0
  0
VERTEX
  5
160
  8
LAYER_2
  6
BYLAYER
 62
    7
 10
29.39219352610405
 20
102.5436838596512
 30
0
  0
VERTEX
  5
161
  8
LAYER_2
  6
BYLAYER
 62
    7
 10
29.28639021682197
 20
102.512616664467
 30
0
  0
VERTEX
  5
162
  8
LAYER_2
  6
BYLAYER
 62
    7
 10
29.17889569799742
 20
102.4887889790834
 30
0
  0
VERTEX
  5
163
  8
LAYER_2
  6
BYLAYER
 62
    7
 10
29.06993407432929
 20
102.4712404603636
 30
0
  0
VERTEX
  5
164
  8
LAYER_2
  6
BYLAYER
 62
    7
 10
28.95972945051652
 20
102.4590107651707
 30
0
  0
VERTEX
  5
165
  8
LAYER_2
  6
BYLAYER
 62
    7
 10
28.848505931258
 20
102.4511395503679
 30
0
  0
VERTEX
  5
166
  8
LAYER_2
  6
BYLAYER
 62
    7
 10
28.73648762125266
 20
102.4466664728184
 30
0
  0
VERTEX
  5
167
  8
LAYER_2
  6
BYLAYER
 62
    7
 10
28.62389862519941
 20
102.4446311893855
 30
0
  0
VERTEX
  5
168
  8
LAYER_2
  6
BYLAYER
 62
    7
 10
28.51096304779715
 20
102.4440733569323
 30
0
  0
VERTEX
  5
169
  8
LAYER_2
  6
BYLAYER
 62
    7
 10
28.39790500282685
 20
102.4440641046505
 30
0
  0
VERTEX
  5
16A
  8
LAYER_2
  6
BYLAYER
 62
    7
 10
28.2849488561384
 20
102.4445480645547
 30
0
  0
VERTEX
  5
16B
  8
LAYER_2
  6
BYLAYER
 62
    7
 10
28.17231925226604
 20
102.4464356028897
 30
0
  0
VERTEX
  5
16C
  8
LAYER_2
  6
BYLAYER
 62
    7
 10
28.06024085016597
 20
102.4506870627922
 30
0
  0
VERTEX
  5
16D
  8
LAYER_2
  6
BYLAYER
 62
    7
 10
27.9489383087944
 20
102.458262787399
 30
0
  0
VERTEX
  5
16E
  8
LAYER_2
  6
BYLAYER
 62
    7
 10
27.83863628710755
 20
102.470123119847
 30
0
  0
VERTEX
  5
16F
  8
LAYER_2
  6
BYLAYER
 62
    7
 10
27.72955944406161
 20
102.487228403273
 30
0
  0
VERTEX
  5
170
  8
LAYER_2
  6
BYLAYER
 62
    7
 10
27.62193243861279
 20
102.5105389808137
 30
0
  0
VERTEX
  5
171
  8
LAYER_2
  6
BYLAYER
 62
    7
 10
27.5159799297173
 20
102.541015195606
 30
0
  0
VERTEX
  5
172
  8
LAYER_2
  6
BYLAYER
 62
    7
 10
27.41192657633134
 20
102.5796173907866
 30
0
  0
VERTEX
  5
173
  8
LAYER_2
  6
BYLAYER
 62
    7
 10
27.31002530869568
 20
102.6272121146272
 30
0
  0
VERTEX
  5
174
  8
LAYER_2
  6
BYLAYER
 62
    7
 10
27.21082891105965
 20
102.6836710979801
 30
0
  0
VERTEX
  5
175
  8
LAYER_2
  6
BYLAYER
 62
    7
 10
27.11507077037795
 20
102.7482668910562
 30
0
  0
VERTEX
  5
176
  8
LAYER_2
  6
BYLAYER
 62
    7
 10
27.0234867555836
 20
102.8202638096748
 30
0
  0
VERTEX
  5
177
  8
LAYER_2
  6
BYLAYER
 62
    7
 10
26.93681273560964
 20
102.8989261696555
 30
0
  0
VERTEX
  5
178
  8
LAYER_2
  6
BYLAYER
 62
    7
 10
26.85578457938911
 20
102.9835182868175
 30
0
  0
VERTEX
  5
179
  8
LAYER_2
  6
BYLAYER
 62
    7
 10
26.78113815585502
 20
103.0733044769803
 30
0
  0
VERTEX
  5
17A
  8
LAYER_2
  6
BYLAYER
 62
    7
 10
26.71360933394044
 20
103.1675490559633
 30
0
  0
VERTEX
  5
17B
  8
LAYER_2
  6
BYLAYER
 62
    7
 10
26.65393398257838
 20
103.2655163395859
 30
0
  0
VERTEX
  5
17C
  8
LAYER_2
  6
BYLAYER
 62
    7
 10
26.60284797070187
 20
103.3664706436674
 30
0
  0
VERTEX
  5
17D
  8
LAYER_2
  6
BYLAYER
 62
    7
 10
26.56086481445557
 20
103.4697432247862
 30
0
  0
VERTEX
  5
17E
  8
LAYER_2
  6
BYLAYER
 62
    7
 10
26.52737687266619
 20
103.575002871252
 30
0
  0
VERTEX
  5
17F
  8
LAYER_2
  6
BYLAYER
 62
    7
 10
26.50142393087331
 20
103.6820245158647
 30
0
  0
VERTEX
  5
180
  8
LAYER_2
  6
BYLAYER
 62
    7
 10
26.48204564594012
 20
103.7905831301635
 30
0
  0
VERTEX
  5
181
  8
LAYER_2
  6
BYLAYER
 62
    7
 10
26.46828167472982
 20
103.9004536856871
 30
0
  0
VERTEX
  5
182
  8
LAYER_2
  6
BYLAYER
 62
    7
 10
26.45917167410559
 20
104.0114111539746
 30
0
  0
VERTEX
  5
183
  8
LAYER_2
  6
BYLAYER
 62
    7
 10
26.45375530093063
 20
104.1232305065649
 30
0
  0
VERTEX
  5
184
  8
LAYER_2
  6
BYLAYER
 62
    7
 10
26.45107221206813
 20
104.2356867149968
 30
0
  0
VERTEX
  5
185
  8
LAYER_2
  6
BYLAYER
 62
    7
 10
26.45016206438127
 20
104.3485547508094
 30
0
  0
VERTEX
  5
186
  8
LAYER_2
  6
BYLAYER
 62
    7
 10
26.45006568037505
 20
104.4616095862143
 30
0
  0
VERTEX
  5
187
  8
LAYER_2
  6
BYLAYER
 62
    7
 10
26.45031097512103
 20
104.5746264745462
 30
0
  0
VERTEX
  5
188
  8
LAYER_2
  6
BYLAYER
 62
    7
 10
26.4516643581018
 20
104.6873813839308
 30
0
  0
VERTEX
  5
189
  8
LAYER_2
  6
BYLAYER
 62
    7
 10
26.45508617245417
 20
104.7996503944217
 30
0
  0
VERTEX
  5
18A
  8
LAYER_2
  6
BYLAYER
 62
    7
 10
26.46153676131492
 20
104.9112095860723
 30
0
  0
VERTEX
  5
18B
  8
LAYER_2
  6
BYLAYER
 62
    7
 10
26.47197646782088
 20
105.0218350389361
 30
0
  0
VERTEX
  5
18C
  8
LAYER_2
  6
BYLAYER
 62
    7
 10
26.48736563510885
 20
105.1313028330668
 30
0
  0
VERTEX
  5
18D
  8
LAYER_2
  6
BYLAYER
 62
    7
 10
26.50866460631566
 20
105.2393890485178
 30
0
  0
VERTEX
  5
18E
  8
LAYER_2
  6
BYLAYER
 62
    7
 10
26.53683372457809
 20
105.3458697653426
 30
0
  0
VERTEX
  5
18F
  8
LAYER_2
  6
BYLAYER
 62
    7
 10
26.57283333303298
 20
105.4505210635947
 30
0
  0
VERTEX
  5
190
  8
LAYER_2
  6
BYLAYER
 62
    7
 10
26.61760769026934
 20
105.553114166954
 30
0
  0
VERTEX
  5
191
  8
LAYER_2
  6
BYLAYER
 62
    7
 10
26.67141495240645
 20
105.6532131456263
 30
0
  0
VERTEX
  5
192
  8
LAYER_2
  6
BYLAYER
 62
    7
 10
26.73358513281896
 20
105.7501018376325
 30
0
  0
VERTEX
  5
193
  8
LAYER_2
  6
BYLAYER
 62
    7
 10
26.80338236257382
 20
105.8430441892871
 30
0
  0
VERTEX
  5
194
  8
LAYER_2
  6
BYLAYER
 62
    7
 10
26.88007077273802
 20
105.9313041469048
 30
0
  0
VERTEX
  5
195
  8
LAYER_2
  6
BYLAYER
 62
    7
 10
26.96291449437852
 20
106.0141456568
 30
0
  0
VERTEX
  5
196
  8
LAYER_2
  6
BYLAYER
 62
    7
 10
27.05117765856227
 20
106.0908326652872
 30
0
  0
VERTEX
  5
197
  8
LAYER_2
  6
BYLAYER
 62
    7
 10
27.14412439635624
 20
106.160629118681
 30
0
  0
VERTEX
  5
198
  8
LAYER_2
  6
BYLAYER
 62
    7
 10
27.24101883882741
 20
106.2227989632959
 30
0
  0
VERTEX
  5
199
  8
LAYER_2
  6
BYLAYER
 62
    7
 10
27.34112511704274
 20
106.2766061454466
 30
0
  0
VERTEX
  5
19A
  8
LAYER_2
  6
BYLAYER
 62
    7
 10
27.44372721789594
 20
106.321380500931
 30
0
  0
VERTEX
  5
19B
  8
LAYER_2
  6
BYLAYER
 62
    7
 10
27.54838885499614
 20
106.3573801093859
 30
0
  0
VERTEX
  5
19C
  8
LAYER_2
  6
BYLAYER
 62
    7
 10
27.6548805217732
 20
106.3855492276483
 30
0
  0
VERTEX
  5
19D
  8
LAYER_2
  6
BYLAYER
 62
    7
 10
27.7629775592709
 20
106.4068481988551
 30
0
  0
VERTEX
  5
19E
  8
LAYER_2
  6
BYLAYER
 62
    7
 10
27.87245530853306
 20
106.4222373661431
 30
0
  0
VERTEX
  5
19F
  8
LAYER_2
  6
BYLAYER
 62
    7
 10
27.98308911060343
 20
106.432677072649
 30
0
  0
VERTEX
  5
1A0
  8
LAYER_2
  6
BYLAYER
 62
    7
 10
28.09465430652586
 20
106.4391276615098
 30
0
  0
VERTEX
  5
1A1
  8
LAYER_2
  6
BYLAYER
 62
    7
 10
28.20692623734409
 20
106.4425494758622
 30
0
  0
VERTEX
  5
1A2
  8
LAYER_2
  6
BYLAYER
 62
    7
 10
28.31968024410195
 20
106.4439028588429
 30
0
  0
VERTEX
  5
1A3
  8
LAYER_2
  6
BYLAYER
 62
    7
 10
28.43269166784322
 20
106.4441481535889
 30
0
  0
VERTEX
  5
1A4
  8
LAYER_2
  6
BYLAYER
 62
    7
 10
28.54573590557561
 20
106.4440517695827
 30
0
  0
VERTEX
  5
1A5
  8
LAYER_2
  6
BYLAYER
 62
    7
 10
28.65858871170233
 20
106.4431416218958
 30
0
  0
VERTEX
  5
1A6
  8
LAYER_2
  6
BYLAYER
 62
    7
 10
28.77102598118806
 20
106.4404585330333
 30
0
  0
VERTEX
  5
1A7
  8
LAYER_2
  6
BYLAYER
 62
    7
 10
28.8828236093339
 20
106.4350421598583
 30
0
  0
VERTEX
  5
1A8
  8
LAYER_2
  6
BYLAYER
 62
    7
 10
28.99375749144095
 20
106.4259321592341
 30
0
  0
VERTEX
  5
1A9
  8
LAYER_2
  6
BYLAYER
 62
    7
 10
29.10360352281029
 20
106.4121681880238
 30
0
  0
VERTEX
  5
1AA
  8
LAYER_2
  6
BYLAYER
 62
    7
 10
29.21213759874299
 20
106.3927899030907
 30
0
  0
VERTEX
  5
1AB
  8
LAYER_2
  6
BYLAYER
 62
    7
 10
29.31913561454017
 20
106.3668369612978
 30
0
  0
VERTEX
  5
1AC
  8
LAYER_2
  6
BYLAYER
 62
    7
 10
29.42437346550289
 20
106.3333490195084
 30
0
  0
VERTEX
  5
1AD
  8
LAYER_2
  6
BYLAYER
 62
    7
 10
29.52762700809528
 20
106.2913658632761
 30
0
  0
VERTEX
  5
1AE
  8
LAYER_2
  6
BYLAYER
 62
    7
 10
29.62856568547366
 20
106.2402798898442
 30
0
  0
VERTEX
  5
1AF
  8
LAYER_2
  6
BYLAYER
 62
    7
 10
29.72652055424302
 20
106.1806047758908
 30
0
  0
VERTEX
  5
1B0
  8
LAYER_2
  6
BYLAYER
 62
    7
 10
29.8207555607179
 20
106.1130765751015
 30
0
  0
VERTEX
  5
1B1
  8
LAYER_2
  6
BYLAYER
 62
    7
 10
29.91053465121283
 20
106.0384313411617
 30
0
  0
VERTEX
  5
1B2
  8
LAYER_2
  6
BYLAYER
 62
    7
 10
29.99512177204237
 20
105.9574051277569
 30
0
  0
VERTEX
  5
1B3
  8
LAYER_2
  6
BYLAYER
 62
    7
 10
30.07378086952102
 20
105.8707339885726
 30
0
  0
VERTEX
  5
1B4
  8
LAYER_2
  6
BYLAYER
 62
    7
 10
30.14577588996334
 20
105.7791539772942
 30
0
  0
VERTEX
  5
1B5
  8
LAYER_2
  6
BYLAYER
 62
    7
 10
30.21037077968384
 20
105.6834011476072
 30
0
  0
VERTEX
  5
1B6
  8
LAYER_2
  6
BYLAYER
 62
    7
 10
30.26682948499708
 20
105.5842115531971
 30
0
  0
VERTEX
  5
1B7
  8
LAYER_2
  6
BYLAYER
 62
    7
 10
30.31442418840303
 20
105.482324514596
 30
0
  0
VERTEX
  5
1B8
  8
LAYER_2
  6
BYLAYER
 62
    7
 10
30.3530263835837
 20
105.3787170664863
 30
0
  0
VERTEX
  5
1B9
  8
LAYER_2
  6
BYLAYER
 62
    7
 10
30.38350259837599
 20
105.2747609194806
 30
0
  0
VERTEX
  5
1BA
  8
LAYER_2
  6
BYLAYER
 62
    7
 10
30.4068131759167
 20
105.1718649956182
 30
0
  0
VERTEX
  5
1BB
  8
LAYER_2
  6
BYLAYER
 62
    7
 10
30.42391845934264
 20
105.0714382169387
 30
0
  0
VERTEX
  5
1BC
  8
LAYER_2
  6
BYLAYER
 62
    7
 10
30.43577879179064
 20
104.9748895054817
 30
0
  0
VERTEX
  5
1BD
  8
LAYER_2
  6
BYLAYER
 62
    7
 10
30.44335451639748
 20
104.8836277832865
 30
0
  0
VERTEX
  5
1BE
  8
LAYER_2
  6
BYLAYER
 62
    7
 10
30.44760597629998
 20
104.7990619723927
 30
0
  0
VERTEX
  5
1BF
  8
LAYER_2
  6
BYLAYER
 62
    7
 10
30.44949351463495
 20
104.7226009948398
 30
0
  0
VERTEX
  5
1C0
  8
LAYER_2
  6
BYLAYER
 62
    7
 10
30.4499774745392
 20
104.6556537726672
 30
0
  0
VERTEX
  5
1C1
  8
LAYER_2
  6
BYLAYER
 62
    7
 10
30.44999321070348
 20
104.5995309086189
 30
0
  0
VERTEX
  5
1C2
  8
LAYER_2
  6
BYLAYER
 62
    7
 10
30.44999321070348
 20
104.5536431212069
 30
0
  0
VERTEX
  5
1C3
  8
LAYER_2
  6
BYLAYER
 62
    7
 10
30.44999321070348
 20
104.515682691108
 30
0
  0
VERTEX
  5
1C4
  8
LAYER_2
  6
BYLAYER
 62
    7
 10
30.44999321070348
 20
104.4832799836413
 30
0
  0
VERTEX
  5
1C5
  8
LAYER_2
  6
BYLAYER
 62
    7
 10
30.44999321070348
 20
104.4540653641254
 30
0
  0
VERTEX
  5
1C6
  8
LAYER_2
  6
BYLAYER
 62
    7
 10
30.44999321070348
 20
104.4256691978793
 30
0
  0
VERTEX
  5
1C7
  8
LAYER_2
  6
BYLAYER
 62
    7
 10
30.44999321070348
 20
104.3957218502217
 30
0
  0
VERTEX
  5
1C8
  8
LAYER_2
  6
BYLAYER
 62
    7
 10
30.44999321070348
 20
104.3618536864715
 30
0
  0
VERTEX
  5
1C9
  8
LAYER_2
  6
BYLAYER
 62
    7
 10
30.44999321070348
 20
104.3216950719476
 30
0
  0
VERTEX
  5
1CA
  8
LAYER_2
  6
BYLAYER
 62
    7
 10
30.44999321070348
 20
104.2728763719687
 30
0
  0
VERTEX
  5
1CB
  8
LAYER_2
  6
BYLAYER
 62
    7
 10
30.44992035809107
 20
104.2133146530925
 30
0
  0
VERTEX
  5
1CC
  8
LAYER_2
  6
BYLAYER
 62
    7
 10
30.44910681296827
 20
104.1432684708943
 30
0
  0
VERTEX
  5
1CD
  8
LAYER_2
  6
BYLAYER
 62
    7
 10
30.4465941992188
 20
104.06413974549
 30
0
  0
VERTEX
  5
1CE
  8
LAYER_2
  6
BYLAYER
 62
    7
 10
30.44142217370587
 20
103.9773381379286
 30
0
  0
VERTEX
  5
1CF
  8
LAYER_2
  6
BYLAYER
 62
    7
 10
30.43263039329266
 20
103.8842733092595
 30
0
  0
VERTEX
  5
1D0
  8
LAYER_2
  6
BYLAYER
 62
    7
 10
30.41925851484235
 20
103.7863549205317
 30
0
  0
VERTEX
  5
1D1
  8
LAYER_2
  6
BYLAYER
 62
    7
 10
30.40034619521816
 20
103.6849926327947
 30
0
  0
VERTEX
  5
1D2
  8
LAYER_2
  6
BYLAYER
 62
    7
 10
30.37493309128326
 20
103.5815961070976
 30
0
  0
VERTEX
  5
1D3
  8
LAYER_2
  6
BYLAYER
 62
    7
 10
30.34205885990083
 20
103.4775750044896
 30
0
  0
SEQEND
  5
1D4
  8
LAYER_2
  6
BYLAYER
 62
    7
  0
POLYLINE
  5
1D5
  8
LAYER_2
  6
BYLAYER
 62
    7
 66
    1
 10
0
 20
0
 30
0
 70
    1
  0
VERTEX
  5
1D6
  8
LAYER_2
  6
BYLAYER
 62
    7
 10
189.293183003892
 20
103.3505678271716
 30
0
  0
VERTEX
  5
1D7
  8
LAYER_2
  6
BYLAYER
 62
    7
 10
189.2428075351072
 20
103.2494142244114
 30
0
  0
VERTEX
  5
1D8
  8
LAYER_2
  6
BYLAYER
 62
    7
 10
189.1837891770552
 20
103.1511910510193
 30
0
  0
VERTEX
  5
1D9
  8
LAYER_2
  6
BYLAYER
 62
    7
 10
189.1168632444118
 20
103.0566339911759
 30
0
  0
VERTEX
  5
1DA
  8
LAYER_2
  6
BYLAYER
 62
    7
 10
189.0427650518528
 20
102.9664787290619
 30
0
  0
VERTEX
  5
1DB
  8
LAYER_2
  6
BYLAYER
 62
    7
 10
188.9622299140539
 20
102.8814609488579
 30
0
  0
VERTEX
  5
1DC
  8
LAYER_2
  6
BYLAYER
 62
    7
 10
188.8759931456908
 20
102.8023163347445
 30
0
  0
VERTEX
  5
1DD
  8
LAYER_2
  6
BYLAYER
 62
    7
 10
188.7847900614393
 20
102.7297805709022
 30
0
  0
VERTEX
  5
1DE
  8
LAYER_2
  6
BYLAYER
 62
    7
 10
188.6893559759751
 20
102.6645893415117
 30
0
  0
VERTEX
  5
1DF
  8
LAYER_2
  6
BYLAYER
 62
    7
 10
188.590426203974
 20
102.6074783307536
 30
0
  0
VERTEX
  5
1E0
  8
LAYER_2
  6
BYLAYER
 62
    7
 10
188.4887350134055
 20
102.5591797489246
 30
0
  0
VERTEX
  5
1E1
  8
LAYER_2
  6
BYLAYER
 62
    7
 10
188.3848620698575
 20
102.519912700803
 30
0
  0
VERTEX
  5
1E2
  8
LAYER_2
  6
BYLAYER
 62
    7
 10
188.2790704296774
 20
102.4888455056189
 30
0
  0
VERTEX
  5
1E3
  8
LAYER_2
  6
BYLAYER
 62
    7
 10
188.1715843823167
 20
102.4650178202352
 30
0
  0
VERTEX
  5
1E4
  8
LAYER_2
  6
BYLAYER
 62
    7
 10
188.0626282172265
 20
102.4474693015154
 30
0
  0
VERTEX
  5
1E5
  8
LAYER_2
  6
BYLAYER
 62
    7
 10
187.9524262238584
 20
102.4352396063225
 30
0
  0
VERTEX
  5
1E6
  8
LAYER_2
  6
BYLAYER
 62
    7
 10
187.8412026916635
 20
102.4273683915197
 30
0
  0
VERTEX
  5
1E7
  8
LAYER_2
  6
BYLAYER
 62
    7
 10
187.7291819100934
 20
102.4228953139702
 30
0
  0
VERTEX
  5
1E8
  8
LAYER_2
  6
BYLAYER
 62
    7
 10
187.6165881685992
 20
102.4208600305373
 30
0
  0
VERTEX
  5
1E9
  8
LAYER_2
  6
BYLAYER
 62
    7
 10
187.5036457566324
 20
102.4203021980841
 30
0
  0
VERTEX
  5
1EA
  8
LAYER_2
  6
BYLAYER
 62
    7
 10
187.3905789757538
 20
102.4202929458023
 30
0
  0
VERTEX
  5
1EB
  8
LAYER_2
  6
BYLAYER
 62
    7
 10
187.2776124636158
 20
102.4207769057065
 30
0
  0
VERTEX
  5
1EC
  8
LAYER_2
  6
BYLAYER
 62
    7
 10
187.1649712294503
 20
102.4226644440415
 30
0
  0
VERTEX
  5
1ED
  8
LAYER_2
  6
BYLAYER
 62
    7
 10
187.0528803017185
 20
102.426915903944
 30
0
  0
VERTEX
  5
1EE
  8
LAYER_2
  6
BYLAYER
 62
    7
 10
186.9415647088813
 20
102.4344916285508
 30
0
  0
VERTEX
  5
1EF
  8
LAYER_2
  6
BYLAYER
 62
    7
 10
186.8312494793998
 20
102.4463519609988
 30
0
  0
VERTEX
  5
1F0
  8
LAYER_2
  6
BYLAYER
 62
    7
 10
186.7221596417352
 20
102.4634572444248
 30
0
  0
VERTEX
  5
1F1
  8
LAYER_2
  6
BYLAYER
 62
    7
 10
186.6145202243484
 20
102.4867678219655
 30
0
  0
VERTEX
  5
1F2
  8
LAYER_2
  6
BYLAYER
 62
    7
 10
186.5085562557005
 20
102.5172440367578
 30
0
  0
VERTEX
  5
1F3
  8
LAYER_2
  6
BYLAYER
 62
    7
 10
186.4044927642526
 20
102.5558462319384
 30
0
  0
VERTEX
  5
1F4
  8
LAYER_2
  6
BYLAYER
 62
    7
 10
186.3025830190985
 20
102.603440955779
 30
0
  0
VERTEX
  5
1F5
  8
LAYER_2
  6
BYLAYER
 62
    7
 10
186.2033798182366
 20
102.6598999391319
 30
0
  0
VERTEX
  5
1F6
  8
LAYER_2
  6
BYLAYER
 62
    7
 10
186.1076163665602
 20
102.724495732208
 30
0
  0
VERTEX
  5
1F7
  8
LAYER_2
  6
BYLAYER
 62
    7
 10
186.0160283482499
 20
102.7964926508266
 30
0
  0
VERTEX
  5
1F8
  8
LAYER_2
  6
BYLAYER
 62
    7
 10
185.9293514474863
 20
102.8751550108073
 30
0
  0
VERTEX
  5
1F9
  8
LAYER_2
  6
BYLAYER
 62
    7
 10
185.8483213484501
 20
102.9597471279693
 30
0
  0
VERTEX
  5
1FA
  8
LAYER_2
  6
BYLAYER
 62
    7
 10
185.7736737353216
 20
103.0495333181321
 30
0
  0
VERTEX
  5
1FB
  8
LAYER_2
  6
BYLAYER
 62
    7
 10
185.7061442922817
 20
103.1437778971151
 30
0
  0
VERTEX
  5
1FC
  8
LAYER_2
  6
BYLAYER
 62
    7
 10
185.646468703511
 20
103.2417451807377
 30
0
  0
VERTEX
  5
1FD
  8
LAYER_2
  6
BYLAYER
 62
    7
 10
185.59538265319
 20
103.3426994848192
 30
0
  0
VERTEX
  5
1FE
  8
LAYER_2
  6
BYLAYER
 62
    7
 10
185.5533994969296
 20
103.445972065938
 30
0
  0
VERTEX
  5
1FF
  8
LAYER_2
  6
BYLAYER
 62
    7
 10
185.5199115551403
 20
103.5512317124037
 30
0
  0
VERTEX
  5
200
  8
LAYER_2
  6
BYLAYER
 62
    7
 10
185.4939586133474
 20
103.6582533570165
 30
0
  0
VERTEX
  5
201
  8
LAYER_2
  6
BYLAYER
 62
    7
 10
185.4745803284142
 20
103.7668119713152
 30
0
  0
VERTEX
  5
202
  8
LAYER_2
  6
BYLAYER
 62
    7
 10
185.4608163572039
 20
103.8766825268389
 30
0
  0
VERTEX
  5
203
  8
LAYER_2
  6
BYLAYER
 62
    7
 10
185.4517063565796
 20
103.9876399951264
 30
0
  0
VERTEX
  5
204
  8
LAYER_2
  6
BYLAYER
 62
    7
 10
185.4462899834047
 20
104.0994593477166
 30
0
  0
VERTEX
  5
205
  8
LAYER_2
  6
BYLAYER
 62
    7
 10
185.4436068945422
 20
104.2119155561486
 30
0
  0
VERTEX
  5
206
  8
LAYER_2
  6
BYLAYER
 62
    7
 10
185.4426967468553
 20
104.3247835919611
 30
0
  0
VERTEX
  5
207
  8
LAYER_2
  6
BYLAYER
 62
    7
 10
185.4426003628491
 20
104.437838427366
 30
0
  0
VERTEX
  5
208
  8
LAYER_2
  6
BYLAYER
 62
    7
 10
185.4428456575951
 20
104.5508553156979
 30
0
  0
VERTEX
  5
209
  8
LAYER_2
  6
BYLAYER
 62
    7
 10
185.4441990405758
 20
104.6636102250825
 30
0
  0
VERTEX
  5
20A
  8
LAYER_2
  6
BYLAYER
 62
    7
 10
185.4476208549282
 20
104.7758792355734
 30
0
  0
VERTEX
  5
20B
  8
LAYER_2
  6
BYLAYER
 62
    7
 10
185.454071443789
 20
104.887438427224
 30
0
  0
VERTEX
  5
20C
  8
LAYER_2
  6
BYLAYER
 62
    7
 10
185.464511150295
 20
104.9980638800879
 30
0
  0
VERTEX
  5
20D
  8
LAYER_2
  6
BYLAYER
 62
    7
 10
185.4799003175829
 20
105.1075316742185
 30
0
  0
VERTEX
  5
20E
  8
LAYER_2
  6
BYLAYER
 62
    7
 10
185.5011992887897
 20
105.2156178896695
 30
0
  0
VERTEX
  5
20F
  8
LAYER_2
  6
BYLAYER
 62
    7
 10
185.5293684070521
 20
105.3220986064943
 30
0
  0
VERTEX
  5
210
  8
LAYER_2
  6
BYLAYER
 62
    7
 10
185.565368015507
 20
105.4267499047464
 30
0
  0
VERTEX
  5
211
  8
LAYER_2
  6
BYLAYER
 62
    7
 10
185.6101423744954
 20
105.5293430081058
 30
0
  0
VERTEX
  5
212
  8
LAYER_2
  6
BYLAYER
 62
    7
 10
185.6639497166189
 20
105.629441986778
 30
0
  0
VERTEX
  5
213
  8
LAYER_2
  6
BYLAYER
 62
    7
 10
185.726120232829
 20
105.7263306787842
 30
0
  0
VERTEX
  5
214
  8
LAYER_2
  6
BYLAYER
 62
    7
 10
185.7959182389449
 20
105.8192730304389
 30
0
  0
VERTEX
  5
215
  8
LAYER_2
  6
BYLAYER
 62
    7
 10
185.8726080507861
 20
105.9075329880565
 30
0
  0
VERTEX
  5
216
  8
LAYER_2
  6
BYLAYER
 62
    7
 10
185.955453984172
 20
105.9903744979517
 30
0
  0
VERTEX
  5
217
  8
LAYER_2
  6
BYLAYER
 62
    7
 10
186.0437203549218
 20
106.0670615064389
 30
0
  0
VERTEX
  5
218
  8
LAYER_2
  6
BYLAYER
 62
    7
 10
186.1366714788551
 20
106.1368579598328
 30
0
  0
VERTEX
  5
219
  8
LAYER_2
  6
BYLAYER
 62
    7
 10
186.2335716717913
 20
106.1990278044477
 30
0
  0
VERTEX
  5
21A
  8
LAYER_2
  6
BYLAYER
 62
    7
 10
186.3336852495497
 20
106.2528349865983
 30
0
  0
VERTEX
  5
21B
  8
LAYER_2
  6
BYLAYER
 62
    7
 10
186.4362963622486
 20
106.2976093420828
 30
0
  0
VERTEX
  5
21C
  8
LAYER_2
  6
BYLAYER
 62
    7
 10
186.5409685834402
 20
106.3336089505376
 30
0
  0
VERTEX
  5
21D
  8
LAYER_2
  6
BYLAYER
 62
    7
 10
186.6474720423054
 20
106.3617780688001
 30
0
  0
VERTEX
  5
21E
  8
LAYER_2
  6
BYLAYER
 62
    7
 10
186.755581710383
 20
106.3830770400069
 30
0
  0
VERTEX
  5
21F
  8
LAYER_2
  6
BYLAYER
 62
    7
 10
186.865072559212
 20
106.3984662072948
 30
0
  0
VERTEX
  5
220
  8
LAYER_2
  6
BYLAYER
 62
    7
 10
186.9757195603313
 20
106.4089059138008
 30
0
  0
VERTEX
  5
221
  8
LAYER_2
  6
BYLAYER
 62
    7
 10
187.0872976852799
 20
106.4153565026616
 30
0
  0
VERTEX
  5
222
  8
LAYER_2
  6
BYLAYER
 62
    7
 10
187.1995819055966
 20
106.4187783170139
 30
0
  0
VERTEX
  5
223
  8
LAYER_2
  6
BYLAYER
 62
    7
 10
187.3123471928205
 20
106.4201316999947
 30
0
  0
VERTEX
  5
224
  8
LAYER_2
  6
BYLAYER
 62
    7
 10
187.4253685184903
 20
106.4203769947407
 30
0
  0
VERTEX
  5
225
  8
LAYER_2
  6
BYLAYER
 62
    7
 10
187.5384209287638
 20
106.4202806107345
 30
0
  0
VERTEX
  5
226
  8
LAYER_2
  6
BYLAYER
 62
    7
 10
187.6512799463255
 20
106.4193704630476
 30
0
  0
VERTEX
  5
227
  8
LAYER_2
  6
BYLAYER
 62
    7
 10
187.7637212812757
 20
106.4166873741851
 30
0
  0
VERTEX
  5
228
  8
LAYER_2
  6
BYLAYER
 62
    7
 10
187.8755206441631
 20
106.4112710010101
 30
0
  0
VERTEX
  5
229
  8
LAYER_2
  6
BYLAYER
 62
    7
 10
187.9864537455363
 20
106.4021610003859
 30
0
  0
VERTEX
  5
22A
  8
LAYER_2
  6
BYLAYER
 62
    7
 10
188.0962962959439
 20
106.3883970291756
 30
0
  0
VERTEX
  5
22B
  8
LAYER_2
  6
BYLAYER
 62
    7
 10
188.2048240059345
 20
106.3690187442424
 30
0
  0
VERTEX
  5
22C
  8
LAYER_2
  6
BYLAYER
 62
    7
 10
188.311812586057
 20
106.3430658024496
 30
0
  0
VERTEX
  5
22D
  8
LAYER_2
  6
BYLAYER
 62
    7
 10
188.4170377468599
 20
106.3095778606602
 30
0
  0
VERTEX
  5
22E
  8
LAYER_2
  6
BYLAYER
 62
    7
 10
188.520275160125
 20
106.2675947044279
 30
0
  0
VERTEX
  5
22F
  8
LAYER_2
  6
BYLAYER
 62
    7
 10
188.6211942763387
 20
106.2165087309959
 30
0
  0
VERTEX
  5
230
  8
LAYER_2
  6
BYLAYER
 62
    7
 10
188.7191267700217
 20
106.1568336170426
 30
0
  0
VERTEX
  5
231
  8
LAYER_2
  6
BYLAYER
 62
    7
 10
188.8133373264983
 20
106.0893054162533
 30
0
  0
VERTEX
  5
232
  8
LAYER_2
  6
BYLAYER
 62
    7
 10
188.9030906310928
 20
106.0146601823135
 30
0
  0
VERTEX
  5
233
  8
LAYER_2
  6
BYLAYER
 62
    7
 10
188.9876513691294
 20
105.9336339689087
 30
0
  0
VERTEX
  5
234
  8
LAYER_2
  6
BYLAYER
 62
    7
 10
189.0662842259324
 20
105.8469628297244
 30
0
  0
VERTEX
  5
235
  8
LAYER_2
  6
BYLAYER
 62
    7
 10
189.138253886826
 20
105.755382818446
 30
0
  0
VERTEX
  5
236
  8
LAYER_2
  6
BYLAYER
 62
    7
 10
189.2028250371345
 20
105.6596299887589
 30
0
  0
VERTEX
  5
237
  8
LAYER_2
  6
BYLAYER
 62
    7
 10
189.2592623621823
 20
105.5604403943488
 30
0
  0
VERTEX
  5
238
  8
LAYER_2
  6
BYLAYER
 62
    7
 10
189.3068387780968
 20
105.4585533557477
 30
0
  0
VERTEX
  5
239
  8
LAYER_2
  6
BYLAYER
 62
    7
 10
189.3454261205668
 20
105.354945907638
 30
0
  0
VERTEX
  5
23A
  8
LAYER_2
  6
BYLAYER
 62
    7
 10
189.3758906092279
 20
105.2509897606323
 30
0
  0
VERTEX
  5
23B
  8
LAYER_2
  6
BYLAYER
 62
    7
 10
189.3991922177123
 20
105.1480938367699
 30
0
  0
VERTEX
  5
23C
  8
LAYER_2
  6
BYLAYER
 62
    7
 10
189.4162909196517
 20
105.0476670580904
 30
0
  0
VERTEX
  5
23D
  8
LAYER_2
  6
BYLAYER
 62
    7
 10
189.4281466886782
 20
104.9511183466334
 30
0
  0
VERTEX
  5
23E
  8
LAYER_2
  6
BYLAYER
 62
    7
 10
189.4357194984237
 20
104.8598566244382
 30
0
  0
VERTEX
  5
23F
  8
LAYER_2
  6
BYLAYER
 62
    7
 10
189.4399693225201
 20
104.7752908135444
 30
0
  0
VERTEX
  5
240
  8
LAYER_2
  6
BYLAYER
 62
    7
 10
189.4418561345995
 20
104.6988298359915
 30
0
  0
VERTEX
  5
241
  8
LAYER_2
  6
BYLAYER
 62
    7
 10
189.4423399082937
 20
104.6318826138189
 30
0
  0
VERTEX
  5
242
  8
LAYER_2
  6
BYLAYER
 62
    7
 10
189.4423556384033
 20
104.5757597497707
 30
0
  0
VERTEX
  5
243
  8
LAYER_2
  6
BYLAYER
 62
    7
 10
189.4423556384033
 20
104.5298719623586
 30
0
  0
VERTEX
  5
244
  8
LAYER_2
  6
BYLAYER
 62
    7
 10
189.4423556384033
 20
104.4919115322597
 30
0
  0
VERTEX
  5
245
  8
LAYER_2
  6
BYLAYER
 62
    7
 10
189.4423556384033
 20
104.459508824793
 30
0
  0
VERTEX
  5
246
  8
LAYER_2
  6
BYLAYER
 62
    7
 10
189.4423556384033
 20
104.4302942052771
 30
0
  0
VERTEX
  5
247
  8
LAYER_2
  6
BYLAYER
 62
    7
 10
189.4423556384033
 20
104.401898039031
 30
0
  0
VERTEX
  5
248
  8
LAYER_2
  6
BYLAYER
 62
    7
 10
189.4423556384033
 20
104.3719506913734
 30
0
  0
VERTEX
  5
249
  8
LAYER_2
  6
BYLAYER
 62
    7
 10
189.4423556384033
 20
104.3380825276232
 30
0
  0
VERTEX
  5
24A
  8
LAYER_2
  6
BYLAYER
 62
    7
 10
189.4423556384033
 20
104.2979239130993
 30
0
  0
VERTEX
  5
24B
  8
LAYER_2
  6
BYLAYER
 62
    7
 10
189.4423556384033
 20
104.2491052131204
 30
0
  0
VERTEX
  5
24C
  8
LAYER_2
  6
BYLAYER
 62
    7
 10
189.4422828138219
 20
104.1895434942442
 30
0
  0
VERTEX
  5
24D
  8
LAYER_2
  6
BYLAYER
 62
    7
 10
189.4414695817215
 20
104.1194973120461
 30
0
  0
VERTEX
  5
24E
  8
LAYER_2
  6
BYLAYER
 62
    7
 10
189.4389579347338
 20
104.0403685866417
 30
0
  0
VERTEX
  5
24F
  8
LAYER_2
  6
BYLAYER
 62
    7
 10
189.4337878992268
 20
103.9535669790803
 30
0
  0
VERTEX
  5
250
  8
LAYER_2
  6
BYLAYER
 62
    7
 10
189.4249995015686
 20
103.8605021504112
 30
0
  0
VERTEX
  5
251
  8
LAYER_2
  6
BYLAYER
 62
    7
 10
189.4116327681273
 20
103.7625837616835
 30
0
  0
VERTEX
  5
252
  8
LAYER_2
  6
BYLAYER
 62
    7
 10
189.392727725271
 20
103.6612214739465
 30
0
  0
VERTEX
  5
253
  8
LAYER_2
  6
BYLAYER
 62
    7
 10
189.3673243993676
 20
103.5578249482494
 30
0
  0
VERTEX
  5
254
  8
LAYER_2
  6
BYLAYER
 62
    7
 10
189.3344628167853
 20
103.4538038456413
 30
0
  0
SEQEND
  5
255
  8
LAYER_2
  6
BYLAYER
 62
    7
  0
POLYLINE
  5
256
  8
LAYER_2
  6
BYLAYER
 62
    7
 66
    1
 10
0
 20
0
 30
0
 70
    1
  0
VERTEX
  5
257
  8
LAYER_2
  6
BYLAYER
 62
    7
 10
189.3007622139596
 20
173.8818354419173
 30
0
  0
VERTEX
  5
258
  8
LAYER_2
  6
BYLAYER
 62
    7
 10
189.2503867451748
 20
173.7806818391571
 30
0
  0
VERTEX
  5
259
  8
LAYER_2
  6
BYLAYER
 62
    7
 10
189.1913683871227
 20
173.682458665765
 30
0
  0
VERTEX
  5
25A
  8
LAYER_2
  6
BYLAYER
 62
    7
 10
189.1244424544794
 20
173.5879016059216
 30
0
  0
VERTEX
  5
25B
  8
LAYER_2
  6
BYLAYER
 62
    7
 10
189.0503442619204
 20
173.4977463438076
 30
0
  0
VERTEX
  5
25C
  8
LAYER_2
  6
BYLAYER
 62
    7
 10
188.9698091241215
 20
173.4127285636036
 30
0
  0
VERTEX
  5
25D
  8
LAYER_2
  6
BYLAYER
 62
    7
 10
188.8835723557584
 20
173.3335839494902
 30
0
  0
VERTEX
  5
25E
  8
LAYER_2
  6
BYLAYER
 62
    7
 10
188.7923692715069
 20
173.2610481856479
 30
0
  0
VERTEX
  5
25F
  8
LAYER_2
  6
BYLAYER
 62
    7
 10
188.6969351860427
 20
173.1958569562574
 30
0
  0
VERTEX
  5
260
  8
LAYER_2
  6
BYLAYER
 62
    7
 10
188.5980054140416
 20
173.1387459454993
 30
0
  0
VERTEX
  5
261
  8
LAYER_2
  6
BYLAYER
 62
    7
 10
188.4963142234731
 20
173.0904473636703
 30
0
  0
VERTEX
  5
262
  8
LAYER_2
  6
BYLAYER
 62
    7
 10
188.3924412799251
 20
173.0511803155487
 30
0
  0
VERTEX
  5
263
  8
LAYER_2
  6
BYLAYER
 62
    7
 10
188.286649639745
 20
173.0201131203645
 30
0
  0
VERTEX
  5
264
  8
LAYER_2
  6
BYLAYER
 62
    7
 10
188.1791635923842
 20
172.9962854349809
 30
0
  0
VERTEX
  5
265
  8
LAYER_2
  6
BYLAYER
 62
    7
 10
188.0702074272941
 20
172.9787369162611
 30
0
  0
VERTEX
  5
266
  8
LAYER_2
  6
BYLAYER
 62
    7
 10
187.9600054339259
 20
172.9665072210682
 30
0
  0
VERTEX
  5
267
  8
LAYER_2
  6
BYLAYER
 62
    7
 10
187.8487819017311
 20
172.9586360062654
 30
0
  0
VERTEX
  5
268
  8
LAYER_2
  6
BYLAYER
 62
    7
 10
187.7367611201609
 20
172.9541629287159
 30
0
  0
VERTEX
  5
269
  8
LAYER_2
  6
BYLAYER
 62
    7
 10
187.6241673786668
 20
172.952127645283
 30
0
  0
VERTEX
  5
26A
  8
LAYER_2
  6
BYLAYER
 62
    7
 10
187.5112249667
 20
172.9515698128297
 30
0
  0
VERTEX
  5
26B
  8
LAYER_2
  6
BYLAYER
 62
    7
 10
187.3981581858213
 20
172.951560560548
 30
0
  0
VERTEX
  5
26C
  8
LAYER_2
  6
BYLAYER
 62
    7
 10
187.2851916736833
 20
172.9520445204522
 30
0
  0
VERTEX
  5
26D
  8
LAYER_2
  6
BYLAYER
 62
    7
 10
187.1725504395179
 20
172.9539320587872
 30
0
  0
VERTEX
  5
26E
  8
LAYER_2
  6
BYLAYER
 62
    7
 10
187.060459511786
 20
172.9581835186897
 30
0
  0
VERTEX
  5
26F
  8
LAYER_2
  6
BYLAYER
 62
    7
 10
186.9491439189488
 20
172.9657592432965
 30
0
  0
VERTEX
  5
270
  8
LAYER_2
  6
BYLAYER
 62
    7
 10
186.8388286894674
 20
172.9776195757445
 30
0
  0
VERTEX
  5
271
  8
LAYER_2
  6
BYLAYER
 62
    7
 10
186.7297388518027
 20
172.9947248591704
 30
0
  0
VERTEX
  5
272
  8
LAYER_2
  6
BYLAYER
 62
    7
 10
186.6220994344159
 20
173.0180354367112
 30
0
  0
VERTEX
  5
273
  8
LAYER_2
  6
BYLAYER
 62
    7
 10
186.5161354657681
 20
173.0485116515035
 30
0
  0
VERTEX
  5
274
  8
LAYER_2
  6
BYLAYER
 62
    7
 10
186.4120719743202
 20
173.0871138466841
 30
0
  0
VERTEX
  5
275
  8
LAYER_2
  6
BYLAYER
 62
    7
 10
186.3101622291661
 20
173.1347085705247
 30
0
  0
VERTEX
  5
276
  8
LAYER_2
  6
BYLAYER
 62
    7
 10
186.2109590283041
 20
173.1911675538776
 30
0
  0
VERTEX
  5
277
  8
LAYER_2
  6
BYLAYER
 62
    7
 10
186.1151955766278
 20
173.2557633469537
 30
0
  0
VERTEX
  5
278
  8
LAYER_2
  6
BYLAYER
 62
    7
 10
186.0236075583175
 20
173.3277602655723
 30
0
  0
VERTEX
  5
279
  8
LAYER_2
  6
BYLAYER
 62
    7
 10
185.9369306575539
 20
173.406422625553
 30
0
  0
VERTEX
  5
27A
  8
LAYER_2
  6
BYLAYER
 62
    7
 10
185.8559005585176
 20
173.491014742715
 30
0
  0
VERTEX
  5
27B
  8
LAYER_2
  6
BYLAYER
 62
    7
 10
185.7812529453892
 20
173.5808009328778
 30
0
  0
VERTEX
  5
27C
  8
LAYER_2
  6
BYLAYER
 62
    7
 10
185.7137235023494
 20
173.6750455118608
 30
0
  0
VERTEX
  5
27D
  8
LAYER_2
  6
BYLAYER
 62
    7
 10
185.6540479135786
 20
173.7730127954834
 30
0
  0
VERTEX
  5
27E
  8
LAYER_2
  6
BYLAYER
 62
    7
 10
185.6029618632575
 20
173.8739670995649
 30
0
  0
VERTEX
  5
27F
  8
LAYER_2
  6
BYLAYER
 62
    7
 10
185.5609787069972
 20
173.9772396806837
 30
0
  0
VERTEX
  5
280
  8
LAYER_2
  6
BYLAYER
 62
    7
 10
185.5274907652079
 20
174.0824993271494
 30
0
  0
VERTEX
  5
281
  8
LAYER_2
  6
BYLAYER
 62
    7
 10
185.501537823415
 20
174.1895209717622
 30
0
  0
VERTEX
  5
282
  8
LAYER_2
  6
BYLAYER
 62
    7
 10
185.4821595384818
 20
174.2980795860609
 30
0
  0
VERTEX
  5
283
  8
LAYER_2
  6
BYLAYER
 62
    7
 10
185.4683955672714
 20
174.4079501415846
 30
0
  0
VERTEX
  5
284
  8
LAYER_2
  6
BYLAYER
 62
    7
 10
185.4592855666473
 20
174.5189076098721
 30
0
  0
VERTEX
  5
285
  8
LAYER_2
  6
BYLAYER
 62
    7
 10
185.4538691934723
 20
174.6307269624623
 30
0
  0
VERTEX
  5
286
  8
LAYER_2
  6
BYLAYER
 62
    7
 10
185.4511861046098
 20
174.7431831708943
 30
0
  0
VERTEX
  5
287
  8
LAYER_2
  6
BYLAYER
 62
    7
 10
185.4502759569229
 20
174.8560512067068
 30
0
  0
VERTEX
  5
288
  8
LAYER_2
  6
BYLAYER
 62
    7
 10
185.4501795729167
 20
174.9691060421117
 30
0
  0
VERTEX
  5
289
  8
LAYER_2
  6
BYLAYER
 62
    7
 10
185.4504248676627
 20
175.0821229304436
 30
0
  0
VERTEX
  5
28A
  8
LAYER_2
  6
BYLAYER
 62
    7
 10
185.4517782506435
 20
175.1948778398282
 30
0
  0
VERTEX
  5
28B
  8
LAYER_2
  6
BYLAYER
 62
    7
 10
185.4552000649958
 20
175.3071468503191
 30
0
  0
VERTEX
  5
28C
  8
LAYER_2
  6
BYLAYER
 62
    7
 10
185.4616506538565
 20
175.4187060419697
 30
0
  0
VERTEX
  5
28D
  8
LAYER_2
  6
BYLAYER
 62
    7
 10
185.4720903603626
 20
175.5293314948336
 30
0
  0
VERTEX
  5
28E
  8
LAYER_2
  6
BYLAYER
 62
    7
 10
185.4874795276505
 20
175.6387992889642
 30
0
  0
VERTEX
  5
28F
  8
LAYER_2
  6
BYLAYER
 62
    7
 10
185.5087784988573
 20
175.7468855044152
 30
0
  0
VERTEX
  5
290
  8
LAYER_2
  6
BYLAYER
 62
    7
 10
185.5369476171198
 20
175.85336622124
 30
0
  0
VERTEX
  5
291
  8
LAYER_2
  6
BYLAYER
 62
    7
 10
185.5729472255746
 20
175.9580175194921
 30
0
  0
VERTEX
  5
292
  8
LAYER_2
  6
BYLAYER
 62
    7
 10
185.617721584563
 20
176.0606106228514
 30
0
  0
VERTEX
  5
293
  8
LAYER_2
  6
BYLAYER
 62
    7
 10
185.6715289266865
 20
176.1607096015237
 30
0
  0
VERTEX
  5
294
  8
LAYER_2
  6
BYLAYER
 62
    7
 10
185.7336994428966
 20
176.2575982935299
 30
0
  0
VERTEX
  5
295
  8
LAYER_2
  6
BYLAYER
 62
    7
 10
185.8034974490125
 20
176.3505406451845
 30
0
  0
VERTEX
  5
296
  8
LAYER_2
  6
BYLAYER
 62
    7
 10
185.8801872608537
 20
176.4388006028022
 30
0
  0
VERTEX
  5
297
  8
LAYER_2
  6
BYLAYER
 62
    7
 10
185.9630331942395
 20
176.5216421126973
 30
0
  0
VERTEX
  5
298
  8
LAYER_2
  6
BYLAYER
 62
    7
 10
186.0512995649894
 20
176.5983291211846
 30
0
  0
VERTEX
  5
299
  8
LAYER_2
  6
BYLAYER
 62
    7
 10
186.1442506889227
 20
176.6681255745784
 30
0
  0
VERTEX
  5
29A
  8
LAYER_2
  6
BYLAYER
 62
    7
 10
186.2411508818588
 20
176.7302954191933
 30
0
  0
VERTEX
  5
29B
  8
LAYER_2
  6
BYLAYER
 62
    7
 10
186.3412644596172
 20
176.7841026013439
 30
0
  0
VERTEX
  5
29C
  8
LAYER_2
  6
BYLAYER
 62
    7
 10
186.4438755723161
 20
176.8288769568284
 30
0
  0
VERTEX
  5
29D
  8
LAYER_2
  6
BYLAYER
 62
    7
 10
186.5485477935077
 20
176.8648765652833
 30
0
  0
VERTEX
  5
29E
  8
LAYER_2
  6
BYLAYER
 62
    7
 10
186.6550512523729
 20
176.8930456835457
 30
0
  0
VERTEX
  5
29F
  8
LAYER_2
  6
BYLAYER
 62
    7
 10
186.7631609204505
 20
176.9143446547525
 30
0
  0
VERTEX
  5
2A0
  8
LAYER_2
  6
BYLAYER
 62
    7
 10
186.8726517692795
 20
176.9297338220405
 30
0
  0
VERTEX
  5
2A1
  8
LAYER_2
  6
BYLAYER
 62
    7
 10
186.9832987703988
 20
176.9401735285464
 30
0
  0
VERTEX
  5
2A2
  8
LAYER_2
  6
BYLAYER
 62
    7
 10
187.0948768953474
 20
176.9466241174072
 30
0
  0
VERTEX
  5
2A3
  8
LAYER_2
  6
BYLAYER
 62
    7
 10
187.2071611156641
 20
176.9500459317596
 30
0
  0
VERTEX
  5
2A4
  8
LAYER_2
  6
BYLAYER
 62
    7
 10
187.319926402888
 20
176.9513993147403
 30
0
  0
VERTEX
  5
2A5
  8
LAYER_2
  6
BYLAYER
 62
    7
 10
187.4329477285579
 20
176.9516446094863
 30
0
  0
VERTEX
  5
2A6
  8
LAYER_2
  6
BYLAYER
 62
    7
 10
187.5460001388313
 20
176.9515482254801
 30
0
  0
VERTEX
  5
2A7
  8
LAYER_2
  6
BYLAYER
 62
    7
 10
187.658859156393
 20
176.9506380777933
 30
0
  0
VERTEX
  5
2A8
  8
LAYER_2
  6
BYLAYER
 62
    7
 10
187.7713004913433
 20
176.9479549889307
 30
0
  0
VERTEX
  5
2A9
  8
LAYER_2
  6
BYLAYER
 62
    7
 10
187.8830998542306
 20
176.9425386157557
 30
0
  0
VERTEX
  5
2AA
  8
LAYER_2
  6
BYLAYER
 62
    7
 10
187.9940329556038
 20
176.9334286151316
 30
0
  0
VERTEX
  5
2AB
  8
LAYER_2
  6
BYLAYER
 62
    7
 10
188.1038755060114
 20
176.9196646439212
 30
0
  0
VERTEX
  5
2AC
  8
LAYER_2
  6
BYLAYER
 62
    7
 10
188.2124032160021
 20
176.900286358988
 30
0
  0
VERTEX
  5
2AD
  8
LAYER_2
  6
BYLAYER
 62
    7
 10
188.3193917961246
 20
176.8743334171952
 30
0
  0
VERTEX
  5
2AE
  8
LAYER_2
  6
BYLAYER
 62
    7
 10
188.4246169569275
 20
176.8408454754058
 30
0
  0
VERTEX
  5
2AF
  8
LAYER_2
  6
BYLAYER
 62
    7
 10
188.5278543701926
 20
176.7988623191735
 30
0
  0
VERTEX
  5
2B0
  8
LAYER_2
  6
BYLAYER
 62
    7
 10
188.6287734864063
 20
176.7477763457416
 30
0
  0
VERTEX
  5
2B1
  8
LAYER_2
  6
BYLAYER
 62
    7
 10
188.7267059800893
 20
176.6881012317882
 30
0
  0
VERTEX
  5
2B2
  8
LAYER_2
  6
BYLAYER
 62
    7
 10
188.8209165365659
 20
176.6205730309989
 30
0
  0
VERTEX
  5
2B3
  8
LAYER_2
  6
BYLAYER
 62
    7
 10
188.9106698411604
 20
176.5459277970591
 30
0
  0
VERTEX
  5
2B4
  8
LAYER_2
  6
BYLAYER
 62
    7
 10
188.995230579197
 20
176.4649015836544
 30
0
  0
VERTEX
  5
2B5
  8
LAYER_2
  6
BYLAYER
 62
    7
 10
189.073863436
 20
176.37823044447
 30
0
  0
VERTEX
  5
2B6
  8
LAYER_2
  6
BYLAYER
 62
    7
 10
189.1458330968936
 20
176.2866504331916
 30
0
  0
VERTEX
  5
2B7
  8
LAYER_2
  6
BYLAYER
 62
    7
 10
189.2104042472021
 20
176.1908976035046
 30
0
  0
VERTEX
  5
2B8
  8
LAYER_2
  6
BYLAYER
 62
    7
 10
189.2668415722498
 20
176.0917080090945
 30
0
  0
VERTEX
  5
2B9
  8
LAYER_2
  6
BYLAYER
 62
    7
 10
189.3144179881644
 20
175.9898209704934
 30
0
  0
VERTEX
  5
2BA
  8
LAYER_2
  6
BYLAYER
 62
    7
 10
189.3530053306344
 20
175.8862135223837
 30
0
  0
VERTEX
  5
2BB
  8
LAYER_2
  6
BYLAYER
 62
    7
 10
189.3834698192955
 20
175.782257375378
 30
0
  0
VERTEX
  5
2BC
  8
LAYER_2
  6
BYLAYER
 62
    7
 10
189.4067714277798
 20
175.6793614515156
 30
0
  0
VERTEX
  5
2BD
  8
LAYER_2
  6
BYLAYER
 62
    7
 10
189.4238701297193
 20
175.5789346728361
 30
0
  0
VERTEX
  5
2BE
  8
LAYER_2
  6
BYLAYER
 62
    7
 10
189.4357258987458
 20
175.482385961379
 30
0
  0
VERTEX
  5
2BF
  8
LAYER_2
  6
BYLAYER
 62
    7
 10
189.4432987084913
 20
175.3911242391839
 30
0
  0
VERTEX
  5
2C0
  8
LAYER_2
  6
BYLAYER
 62
    7
 10
189.4475485325878
 20
175.3065584282901
 30
0
  0
VERTEX
  5
2C1
  8
LAYER_2
  6
BYLAYER
 62
    7
 10
189.4494353446671
 20
175.2300974507372
 30
0
  0
VERTEX
  5
2C2
  8
LAYER_2
  6
BYLAYER
 62
    7
 10
189.4499191183613
 20
175.1631502285647
 30
0
  0
VERTEX
  5
2C3
  8
LAYER_2
  6
BYLAYER
 62
    7
 10
189.4499348484709
 20
175.1070273645164
 30
0
  0
VERTEX
  5
2C4
  8
LAYER_2
  6
BYLAYER
 62
    7
 10
189.4499348484709
 20
175.0611395771043
 30
0
  0
VERTEX
  5
2C5
  8
LAYER_2
  6
BYLAYER
 62
    7
 10
189.4499348484709
 20
175.0231791470054
 30
0
  0
VERTEX
  5
2C6
  8
LAYER_2
  6
BYLAYER
 62
    7
 10
189.4499348484709
 20
174.9907764395387
 30
0
  0
VERTEX
  5
2C7
  8
LAYER_2
  6
BYLAYER
 62
    7
 10
189.4499348484709
 20
174.9615618200228
 30
0
  0
VERTEX
  5
2C8
  8
LAYER_2
  6
BYLAYER
 62
    7
 10
189.4499348484709
 20
174.9331656537767
 30
0
  0
VERTEX
  5
2C9
  8
LAYER_2
  6
BYLAYER
 62
    7
 10
189.4499348484709
 20
174.9032183061191
 30
0
  0
VERTEX
  5
2CA
  8
LAYER_2
  6
BYLAYER
 62
    7
 10
189.4499348484709
 20
174.8693501423689
 30
0
  0
VERTEX
  5
2CB
  8
LAYER_2
  6
BYLAYER
 62
    7
 10
189.4499348484709
 20
174.829191527845
 30
0
  0
VERTEX
  5
2CC
  8
LAYER_2
  6
BYLAYER
 62
    7
 10
189.4499348484709
 20
174.7803728278661
 30
0
  0
VERTEX
  5
2CD
  8
LAYER_2
  6
BYLAYER
 62
    7
 10
189.4498620238895
 20
174.7208111089899
 30
0
  0
VERTEX
  5
2CE
  8
LAYER_2
  6
BYLAYER
 62
    7
 10
189.4490487917891
 20
174.6507649267918
 30
0
  0
VERTEX
  5
2CF
  8
LAYER_2
  6
BYLAYER
 62
    7
 10
189.4465371448013
 20
174.5716362013874
 30
0
  0
VERTEX
  5
2D0
  8
LAYER_2
  6
BYLAYER
 62
    7
 10
189.4413671092944
 20
174.4848345938261
 30
0
  0
VERTEX
  5
2D1
  8
LAYER_2
  6
BYLAYER
 62
    7
 10
189.4325787116362
 20
174.3917697651569
 30
0
  0
VERTEX
  5
2D2
  8
LAYER_2
  6
BYLAYER
 62
    7
 10
189.4192119781949
 20
174.2938513764292
 30
0
  0
VERTEX
  5
2D3
  8
LAYER_2
  6
BYLAYER
 62
    7
 10
189.4003069353386
 20
174.1924890886922
 30
0
  0
VERTEX
  5
2D4
  8
LAYER_2
  6
BYLAYER
 62
    7
 10
189.3749036094353
 20
174.0890925629951
 30
0
  0
VERTEX
  5
2D5
  8
LAYER_2
  6
BYLAYER
 62
    7
 10
189.3420420268529
 20
173.985071460387
 30
0
  0
SEQEND
  5
2D6
  8
LAYER_2
  6
BYLAYER
 62
    7
  0
ENDSEC
  0
EOF
