<?xml version="1.0" encoding="UTF-8" standalone="no"?>
<!-- Created with Inkscape (http://www.inkscape.org/) -->

<svg
   xmlns:dc="http://purl.org/dc/elements/1.1/"
   xmlns:cc="http://creativecommons.org/ns#"
   xmlns:rdf="http://www.w3.org/1999/02/22-rdf-syntax-ns#"
   xmlns:svg="http://www.w3.org/2000/svg"
   xmlns="http://www.w3.org/2000/svg"
   xmlns:sodipodi="http://sodipodi.sourceforge.net/DTD/sodipodi-0.dtd"
   xmlns:inkscape="http://www.inkscape.org/namespaces/inkscape"
   width="210mm"
   height="297mm"
   viewBox="0 0 744.09448819 1052.3622047"
   id="svg8749"
   version="1.1"
   inkscape:version="0.91 r13725"
   sodipodi:docname="whitterm220.svg">
  <defs
     id="defs8751" />
  <sodipodi:namedview
     id="base"
     pagecolor="#ffffff"
     bordercolor="#666666"
     borderopacity="1.0"
     inkscape:pageopacity="0.0"
     inkscape:pageshadow="2"
     inkscape:zoom="2"
     inkscape:cx="185.75784"
     inkscape:cy="599.02009"
     inkscape:document-units="px"
     inkscape:current-layer="layer1"
     showgrid="false"
     inkscape:window-width="1366"
     inkscape:window-height="724"
     inkscape:window-x="32"
     inkscape:window-y="0"
     inkscape:window-maximized="1" />
  <metadata
     id="metadata8754">
    <rdf:RDF>
      <cc:Work
         rdf:about="">
        <dc:format>image/svg+xml</dc:format>
        <dc:type
           rdf:resource="http://purl.org/dc/dcmitype/StillImage" />
        <dc:title></dc:title>
      </cc:Work>
    </rdf:RDF>
  </metadata>
  <g
     inkscape:label="SilkS"
     inkscape:groupmode="layer"
     id="layer1">
    <g
       style="font-style:normal;font-weight:normal;font-size:15px;line-height:125%;font-family:sans-serif;letter-spacing:0px;word-spacing:0px;fill:#000000;fill-opacity:1;stroke:none;stroke-width:1px;stroke-linecap:butt;stroke-linejoin:miter;stroke-opacity:1"
       id="text9339"
       transform="translate(0,-0.15911865)">
      <path
         d="m 148.24673,412.93564 -1.09863,-9.47266 1.12305,0 0.64697,5.76782 0.0855,0.95826 0.0305,0 0.12207,-0.95826 0.99487,-5.76782 1.12305,0 1.13525,5.99976 0.11597,0.91553 0.0305,0 0.0732,-0.92164 0.71411,-5.99365 0.96436,0 -1.14747,9.47266 -1.16577,0 -1.2207,-6.4209 -0.12817,-0.96436 -0.0305,0 -0.11597,0.96436 -1.09863,6.4209 -1.15357,0 z"
         style="font-style:normal;font-variant:normal;font-weight:normal;font-stretch:normal;font-size:12.5px;font-family:Monaco;-inkscape-font-specification:Monaco"
         id="path9400"
         inkscape:connector-curvature="0" />
      <path
         d="m 155.24136,412.93564 0,-9.47266 1.23291,0 0,4.07715 3.50342,0 0,-4.07715 1.22681,0 0,9.47266 -1.22681,0 0,-4.44946 -3.50342,0 0,4.44946 -1.23291,0 z"
         style="font-style:normal;font-variant:normal;font-weight:normal;font-stretch:normal;font-size:12.5px;font-family:Monaco;-inkscape-font-specification:Monaco"
         id="path9402"
         inkscape:connector-curvature="0" />
      <path
         d="m 163.01724,412.93564 0,-0.94605 2.0813,0 0,-7.57446 -2.0813,0 0,-0.95215 5.39551,0 0,0.95215 -2.0813,0 0,7.57446 2.0813,0 0,0.94605 -5.39551,0 z"
         style="font-style:normal;font-variant:normal;font-weight:normal;font-stretch:normal;font-size:12.5px;font-family:Monaco;-inkscape-font-specification:Monaco"
         id="path9404"
         inkscape:connector-curvature="0" />
      <path
         d="m 172.59366,412.93564 0,-8.42896 -2.83814,0 0,-1.0437 6.91529,0 0,1.0437 -2.84424,0 0,8.42896 -1.23291,0 z"
         style="font-style:normal;font-variant:normal;font-weight:normal;font-stretch:normal;font-size:12.5px;font-family:Monaco;-inkscape-font-specification:Monaco"
         id="path9406"
         inkscape:connector-curvature="0" />
      <path
         d="m 180.08878,412.93564 0,-8.42896 -2.83814,0 0,-1.0437 6.91528,0 0,1.0437 -2.84423,0 0,8.42896 -1.23291,0 z"
         style="font-style:normal;font-variant:normal;font-weight:normal;font-stretch:normal;font-size:12.5px;font-family:Monaco;-inkscape-font-specification:Monaco"
         id="path9408"
         inkscape:connector-curvature="0" />
      <path
         d="m 190.80655,411.89194 0,1.0437 -5.11475,0 0,-9.47266 5.01709,0 0,0.95215 -3.78418,0 0,3.21655 3.40576,0 0,0.94605 -3.40576,0 0,3.31421 3.88184,0 z"
         style="font-style:normal;font-variant:normal;font-weight:normal;font-stretch:normal;font-size:12.5px;font-family:Monaco;-inkscape-font-specification:Monaco"
         id="path9410"
         inkscape:connector-curvature="0" />
      <path
         d="m 194.11465,408.91342 0,4.02222 -1.23291,0 0,-9.47266 2.53296,0 q 1.23902,0 1.82495,0.25635 0.58594,0.25024 0.90332,0.76294 0.32349,0.51269 0.32349,1.10474 0,0.54931 -0.21362,1.10473 -0.21362,0.55542 -0.59204,0.99487 -0.37232,0.43335 -1.08033,0.82398 l 2.74048,4.42505 -1.46484,0 -2.50855,-4.02222 -1.23291,0 z m 0,-0.95215 1.7273,0 q 0.57983,-0.31738 0.8606,-0.64697 0.28686,-0.32959 0.43334,-0.7019 0.14649,-0.37232 0.14649,-0.74463 0,-0.66529 -0.48828,-1.05591 -0.48218,-0.39673 -1.75781,-0.39673 l -0.92164,0 0,3.54614 z"
         style="font-style:normal;font-variant:normal;font-weight:normal;font-stretch:normal;font-size:12.5px;font-family:Monaco;-inkscape-font-specification:Monaco"
         id="path9412"
         inkscape:connector-curvature="0" />
      <path
         d="m 200.80411,412.93564 -0.99488,0 0,-9.47266 1.23902,0 2.18506,6.2378 2.18506,-6.2378 1.20849,0 0,9.47266 -1.13525,0 0,-6.03638 0.0305,-0.83008 -0.0305,0 -0.26856,0.83008 -1.46484,4.14429 -1.23291,0 -1.48316,-4.14429 -0.23803,-0.83008 -0.0305,0 0.0305,0.83008 0,6.03638 z"
         style="font-style:normal;font-variant:normal;font-weight:normal;font-stretch:normal;font-size:12.5px;font-family:Monaco;-inkscape-font-specification:Monaco"
         id="path9414"
         inkscape:connector-curvature="0" />
      <path
         d="m 208.34805,409.5726 0,-0.94604 4.73633,0 0,0.94604 -4.73633,0 z"
         style="font-style:normal;font-variant:normal;font-weight:normal;font-stretch:normal;font-size:12.5px;font-family:Monaco;-inkscape-font-specification:Monaco"
         id="path9416"
         inkscape:connector-curvature="0" />
      <path
         d="m 221.12271,412.93564 -5.7312,0 0,-1.0437 q 0,-0.40283 0.16479,-0.8606 0.1648,-0.46387 0.62867,-1.0376 0.46386,-0.57373 0.98266,-1.10473 l 0.64698,-0.65918 q 0.19531,-0.20142 0.85449,-0.93384 0.65918,-0.73242 0.8667,-1.12305 0.21362,-0.39062 0.21362,-0.76904 0,-0.61035 -0.48828,-0.93994 -0.48828,-0.33569 -1.09863,-0.33569 -0.3479,0 -0.78125,0.0793 -0.42725,0.0794 -0.75074,0.18921 -0.32348,0.10376 -1.0498,0.43335 l 0,-1.00708 q 0.76904,-0.36621 1.53808,-0.50049 0.77515,-0.14038 1.27564,-0.14038 0.73853,0 1.35498,0.24414 0.62256,0.23804 0.92163,0.74463 0.30518,0.50659 0.30518,1.08032 0,0.64087 -0.39063,1.31226 -0.38452,0.67138 -1.45874,1.72729 l -0.6958,0.6897 -0.58594,0.57373 q -0.55542,0.56152 -0.89721,1.08643 -0.3418,0.5249 -0.37842,1.25122 l 4.55322,0 0,1.0437 z"
         style="font-style:normal;font-variant:normal;font-weight:normal;font-stretch:normal;font-size:12.5px;font-family:Monaco;-inkscape-font-specification:Monaco"
         id="path9418"
         inkscape:connector-curvature="0" />
      <path
         d="m 228.61783,412.93564 -5.7312,0 0,-1.0437 q 0,-0.40283 0.16479,-0.8606 0.1648,-0.46387 0.62866,-1.0376 0.46387,-0.57373 0.98267,-1.10473 l 0.64697,-0.65918 q 0.19532,-0.20142 0.8545,-0.93384 0.65917,-0.73242 0.86669,-1.12305 0.21363,-0.39062 0.21363,-0.76904 0,-0.61035 -0.48828,-0.93994 -0.48829,-0.33569 -1.09864,-0.33569 -0.3479,0 -0.78125,0.0793 -0.42724,0.0794 -0.75073,0.18921 -0.32349,0.10376 -1.0498,0.43335 l 0,-1.00708 q 0.76904,-0.36621 1.53808,-0.50049 0.77515,-0.14038 1.27564,-0.14038 0.73852,0 1.35498,0.24414 0.62256,0.23804 0.92163,0.74463 0.30517,0.50659 0.30517,1.08032 0,0.64087 -0.39062,1.31226 -0.38452,0.67138 -1.45874,1.72729 l -0.6958,0.6897 -0.58594,0.57373 q -0.55542,0.56152 -0.89722,1.08643 -0.34179,0.5249 -0.37841,1.25122 l 4.55322,0 0,1.0437 z"
         style="font-style:normal;font-variant:normal;font-weight:normal;font-stretch:normal;font-size:12.5px;font-family:Monaco;-inkscape-font-specification:Monaco"
         id="path9420"
         inkscape:connector-curvature="0" />
      <path
         d="m 233.21988,403.18222 q 1.61743,0 2.46582,1.36108 0.84839,1.35498 0.84839,3.65601 0,2.30713 -0.84839,3.66821 -0.84839,1.35498 -2.46582,1.35498 -1.61133,0 -2.46582,-1.35498 -0.84839,-1.36108 -0.84839,-3.66821 0,-2.30103 0.84839,-3.65601 0.85449,-1.36108 2.46582,-1.36108 z m -1.84937,7.04346 3.27759,-5.13306 q -0.31128,-0.56763 -0.67749,-0.76294 -0.36011,-0.20141 -0.75073,-0.20141 -1.01929,0 -1.55029,1.13525 -0.53101,1.12915 -0.53101,2.86865 0,0.39673 0.0244,0.85449 0.0244,0.45777 0.20752,1.23902 z m 3.68653,-4.00391 -3.25318,5.16358 q 0.26245,0.44555 0.60425,0.67138 0.3418,0.21973 0.76294,0.21973 1.15967,0 1.64795,-1.29395 0.48828,-1.30005 0.48828,-2.88086 0,-0.97656 -0.25024,-1.87988 z"
         style="font-style:normal;font-variant:normal;font-weight:normal;font-stretch:normal;font-size:12.5px;font-family:Monaco;-inkscape-font-specification:Monaco"
         id="path9422"
         inkscape:connector-curvature="0" />
    </g>
    <path
       transform="matrix(1,0,-0.08716695,0.99619372,0,0)"
       style="opacity:1;fill:#000000;fill-opacity:1;fill-rule:nonzero;stroke:none;stroke-width:1;stroke-linecap:butt;stroke-linejoin:miter;stroke-miterlimit:4;stroke-dasharray:none;stroke-dashoffset:0;stroke-opacity:1"
       d="m 184.05698,416.12201 88.2008,0 0,1.01401 -88.2008,0 z"
       id="rect9343" />
    <path
       id="use9359"
       d="m 146.90189,414.53813 89.0838,0 -0.0893,1.01015 -89.08379,0 z"
       style="opacity:1;fill:#000000;fill-opacity:1;fill-rule:nonzero;stroke:none;stroke-width:1;stroke-linecap:butt;stroke-linejoin:miter;stroke-miterlimit:4;stroke-dasharray:none;stroke-dashoffset:0;stroke-opacity:1"
       inkscape:connector-curvature="0" />
    <path
       id="use9369"
       d="m 126.91054,414.53813 128.87414,0 -0.12915,1.01015 -128.87414,0 z"
       style="opacity:1;fill:#000000;fill-opacity:1;fill-rule:nonzero;stroke:none;stroke-width:1;stroke-linecap:butt;stroke-linejoin:miter;stroke-miterlimit:4;stroke-dasharray:none;stroke-dashoffset:0;stroke-opacity:1"
       inkscape:connector-curvature="0" />
    <path
       id="use9535"
       d="m 126.91054,400.53813 128.87414,0 -0.12915,1.01015 -128.87414,0 z"
       style="opacity:1;fill:#000000;fill-opacity:1;fill-rule:nonzero;stroke:none;stroke-width:1;stroke-linecap:butt;stroke-linejoin:miter;stroke-miterlimit:4;stroke-dasharray:none;stroke-dashoffset:0;stroke-opacity:1"
       inkscape:connector-curvature="0" />
    <path
       inkscape:tile-y0="403.39117"
       inkscape:tile-x0="126.78139"
       inkscape:connector-curvature="0"
       style="opacity:1;fill:#000000;fill-opacity:1;fill-rule:nonzero;stroke:none;stroke-width:1;stroke-linecap:butt;stroke-linejoin:miter;stroke-miterlimit:4;stroke-dasharray:none;stroke-dashoffset:0;stroke-opacity:1"
       d="m 126.79849,403.39117 17.08652,0 -0.0171,1.01015 -17.08652,0 z"
       id="use9551"
       inkscape:tile-cx="135.3332"
       inkscape:tile-cy="403.89624"
       inkscape:tile-w="17.10362"
       inkscape:tile-h="1.01015" />
    <path
       id="use9565"
       d="m 126.79849,403.39117 17.08652,0 -0.0171,1.01015 -17.08652,0 z"
       style="opacity:1;fill:#000000;fill-opacity:1;fill-rule:nonzero;stroke:none;stroke-width:1;stroke-linecap:butt;stroke-linejoin:miter;stroke-miterlimit:4;stroke-dasharray:none;stroke-dashoffset:0;stroke-opacity:1"
       inkscape:connector-curvature="0"
       inkscape:tile-x0="126.78139"
       inkscape:tile-y0="403.39117" />
    <path
       id="use9567"
       d="m 126.79849,405.41147 17.08652,0 -0.0171,1.01015 -17.08652,0 z"
       style="opacity:1;fill:#000000;fill-opacity:1;fill-rule:nonzero;stroke:none;stroke-width:1;stroke-linecap:butt;stroke-linejoin:miter;stroke-miterlimit:4;stroke-dasharray:none;stroke-dashoffset:0;stroke-opacity:1"
       inkscape:connector-curvature="0"
       inkscape:tile-x0="126.78139"
       inkscape:tile-y0="403.39117" />
    <path
       id="use9569"
       d="m 126.79849,407.43177 17.08652,0 -0.0171,1.01015 -17.08652,0 z"
       style="opacity:1;fill:#000000;fill-opacity:1;fill-rule:nonzero;stroke:none;stroke-width:1;stroke-linecap:butt;stroke-linejoin:miter;stroke-miterlimit:4;stroke-dasharray:none;stroke-dashoffset:0;stroke-opacity:1"
       inkscape:connector-curvature="0"
       inkscape:tile-x0="126.78139"
       inkscape:tile-y0="403.39117" />
    <path
       id="use9571"
       d="m 126.79849,409.45207 17.08652,0 -0.0171,1.01015 -17.08652,0 z"
       style="opacity:1;fill:#000000;fill-opacity:1;fill-rule:nonzero;stroke:none;stroke-width:1;stroke-linecap:butt;stroke-linejoin:miter;stroke-miterlimit:4;stroke-dasharray:none;stroke-dashoffset:0;stroke-opacity:1"
       inkscape:connector-curvature="0"
       inkscape:tile-x0="126.78139"
       inkscape:tile-y0="403.39117" />
    <path
       id="use9573"
       d="m 126.79849,411.47237 17.08652,0 -0.0171,1.01015 -17.08652,0 z"
       style="opacity:1;fill:#000000;fill-opacity:1;fill-rule:nonzero;stroke:none;stroke-width:1;stroke-linecap:butt;stroke-linejoin:miter;stroke-miterlimit:4;stroke-dasharray:none;stroke-dashoffset:0;stroke-opacity:1"
       inkscape:connector-curvature="0"
       inkscape:tile-x0="126.78139"
       inkscape:tile-y0="403.39117" />
    <path
       inkscape:tile-h="1.01015"
       inkscape:tile-w="17.10362"
       inkscape:tile-cy="403.89624"
       inkscape:tile-cx="135.3332"
       id="path9575"
       d="m 238.69816,403.39117 17.08652,0 -0.0171,1.01015 -17.08652,0 z"
       style="opacity:1;fill:#000000;fill-opacity:1;fill-rule:nonzero;stroke:none;stroke-width:1;stroke-linecap:butt;stroke-linejoin:miter;stroke-miterlimit:4;stroke-dasharray:none;stroke-dashoffset:0;stroke-opacity:1"
       inkscape:connector-curvature="0"
       inkscape:tile-x0="126.78139"
       inkscape:tile-y0="403.39117" />
    <path
       id="use9577"
       d="m 238.69816,403.39117 17.08652,0 -0.0171,1.01015 -17.08652,0 z"
       style="opacity:1;fill:#000000;fill-opacity:1;fill-rule:nonzero;stroke:none;stroke-width:1;stroke-linecap:butt;stroke-linejoin:miter;stroke-miterlimit:4;stroke-dasharray:none;stroke-dashoffset:0;stroke-opacity:1"
       inkscape:connector-curvature="0"
       inkscape:tile-x0="126.78139"
       inkscape:tile-y0="403.39117" />
    <path
       id="use9579"
       d="m 238.69816,405.41147 17.08652,0 -0.0171,1.01015 -17.08652,0 z"
       style="opacity:1;fill:#000000;fill-opacity:1;fill-rule:nonzero;stroke:none;stroke-width:1;stroke-linecap:butt;stroke-linejoin:miter;stroke-miterlimit:4;stroke-dasharray:none;stroke-dashoffset:0;stroke-opacity:1"
       inkscape:connector-curvature="0"
       inkscape:tile-x0="126.78139"
       inkscape:tile-y0="403.39117" />
    <path
       id="use9581"
       d="m 238.69816,407.43177 17.08652,0 -0.0171,1.01015 -17.08652,0 z"
       style="opacity:1;fill:#000000;fill-opacity:1;fill-rule:nonzero;stroke:none;stroke-width:1;stroke-linecap:butt;stroke-linejoin:miter;stroke-miterlimit:4;stroke-dasharray:none;stroke-dashoffset:0;stroke-opacity:1"
       inkscape:connector-curvature="0"
       inkscape:tile-x0="126.78139"
       inkscape:tile-y0="403.39117" />
    <path
       id="use9583"
       d="m 238.69816,409.45207 17.08652,0 -0.0171,1.01015 -17.08652,0 z"
       style="opacity:1;fill:#000000;fill-opacity:1;fill-rule:nonzero;stroke:none;stroke-width:1;stroke-linecap:butt;stroke-linejoin:miter;stroke-miterlimit:4;stroke-dasharray:none;stroke-dashoffset:0;stroke-opacity:1"
       inkscape:connector-curvature="0"
       inkscape:tile-x0="126.78139"
       inkscape:tile-y0="403.39117" />
    <path
       id="use9585"
       d="m 238.69816,411.47237 17.08652,0 -0.0171,1.01015 -17.08652,0 z"
       style="opacity:1;fill:#000000;fill-opacity:1;fill-rule:nonzero;stroke:none;stroke-width:1;stroke-linecap:butt;stroke-linejoin:miter;stroke-miterlimit:4;stroke-dasharray:none;stroke-dashoffset:0;stroke-opacity:1"
       inkscape:connector-curvature="0"
       inkscape:tile-x0="126.78139"
       inkscape:tile-y0="403.39117" />
    <path
       id="use9597"
       d="m 126.91054,414.53813 128.87414,0 -0.12915,1.01015 -128.87414,0 z"
       style="opacity:1;fill:#000000;fill-opacity:1;fill-rule:nonzero;stroke:none;stroke-width:1;stroke-linecap:butt;stroke-linejoin:miter;stroke-miterlimit:4;stroke-dasharray:none;stroke-dashoffset:0;stroke-opacity:1"
       inkscape:connector-curvature="0" />
    <path
       id="use9599"
       d="m 126.91054,417.56858 128.87414,0 -0.12915,1.01015 -128.87414,0 z"
       style="opacity:1;fill:#000000;fill-opacity:1;fill-rule:nonzero;stroke:none;stroke-width:1;stroke-linecap:butt;stroke-linejoin:miter;stroke-miterlimit:4;stroke-dasharray:none;stroke-dashoffset:0;stroke-opacity:1"
       inkscape:connector-curvature="0" />
    <path
       id="use9601"
       d="m 126.91054,420.59904 128.87414,0 -0.12915,1.01015 -128.87414,0 z"
       style="opacity:1;fill:#000000;fill-opacity:1;fill-rule:nonzero;stroke:none;stroke-width:1;stroke-linecap:butt;stroke-linejoin:miter;stroke-miterlimit:4;stroke-dasharray:none;stroke-dashoffset:0;stroke-opacity:1"
       inkscape:connector-curvature="0" />
    <path
       id="use9603"
       d="m 126.91054,423.62949 128.87414,0 -0.12915,1.01015 -128.87414,0 z"
       style="opacity:1;fill:#000000;fill-opacity:1;fill-rule:nonzero;stroke:none;stroke-width:1;stroke-linecap:butt;stroke-linejoin:miter;stroke-miterlimit:4;stroke-dasharray:none;stroke-dashoffset:0;stroke-opacity:1"
       inkscape:connector-curvature="0" />
    <path
       id="use9605"
       d="m 126.91054,426.65994 128.87414,0 -0.12915,1.01015 -128.87414,0 z"
       style="opacity:1;fill:#000000;fill-opacity:1;fill-rule:nonzero;stroke:none;stroke-width:1;stroke-linecap:butt;stroke-linejoin:miter;stroke-miterlimit:4;stroke-dasharray:none;stroke-dashoffset:0;stroke-opacity:1"
       inkscape:connector-curvature="0" />
    <path
       style="fill:#000000"
       d="m 191.26429,481.80889 c -0.004,-0.0256 -0.0589,-0.34245 -0.12134,-0.70414 -0.25981,-1.50411 -0.39249,-2.33364 -0.45869,-2.86761 -0.0174,-0.14034 -0.0247,-0.17185 -0.0515,-0.22305 -0.0552,-0.10529 -0.16515,-0.21072 -0.3263,-0.31286 -0.0728,-0.0461 -0.28564,-0.15177 -0.38286,-0.19 -0.42322,-0.16646 -0.92286,-0.27442 -1.3827,-0.29878 -0.19905,-0.0106 -0.37971,0.004 -0.46943,0.0374 -0.0277,0.0104 -0.038,0.0195 -0.0817,0.0732 -0.31463,0.3859 -0.63337,0.75531 -1.37424,1.59269 -0.64002,0.72339 -0.95229,1.08214 -1.18009,1.35575 -0.0721,0.0867 -0.079,0.0932 -0.0901,0.0861 -0.006,-0.004 -0.61196,-0.35702 -1.34523,-0.78403 -0.73326,-0.42701 -1.33621,-0.77943 -1.33987,-0.78316 -0.005,-0.005 0.0297,-0.10532 0.13075,-0.37913 0.48898,-1.32497 0.86593,-2.30458 1.11626,-2.90084 0.0389,-0.0926 0.0735,-0.17908 0.0769,-0.19217 0.0327,-0.12618 -0.007,-0.31066 -0.11332,-0.52829 -0.30134,-0.61605 -1.07481,-1.34336 -1.6986,-1.59725 -0.15753,-0.0641 -0.27524,-0.0926 -0.40311,-0.0974 -0.12181,-0.005 -0.15505,0.003 -0.33254,0.0737 -0.46849,0.18723 -1.60126,0.6949 -2.6852,1.20344 -0.14204,0.0666 -0.26094,0.12235 -0.26424,0.12379 -0.004,0.001 -0.0158,-0.013 -0.0277,-0.0319 -0.012,-0.019 -0.0919,-0.14269 -0.17755,-0.27481 -0.62069,-0.9572 -1.37397,-2.14917 -1.40505,-2.22333 -0.0137,-0.0327 -0.0103,-0.0849 0.008,-0.12212 0.0416,-0.0849 0.5022,-0.51201 2.38918,-2.21514 0.19158,-0.17291 0.35584,-0.32282 0.36504,-0.33313 0.0991,-0.11121 0.12597,-0.39321 0.073,-0.76643 -0.0781,-0.55017 -0.33594,-1.316 -0.59467,-1.76663 -0.0833,-0.14501 -0.17,-0.25721 -0.19884,-0.25721 -0.0144,0 -0.39508,-0.0717 -0.63838,-0.12022 -0.40423,-0.0806 -0.77634,-0.15957 -1.62748,-0.34524 -0.6822,-0.14882 -0.93437,-0.20277 -1.27917,-0.27362 -0.14367,-0.0295 -0.26731,-0.0551 -0.27475,-0.0568 l -0.0135,-0.003 0,-1.52816 0,-1.52816 0.0135,-0.003 c 0.007,-0.002 0.0514,-0.009 0.0976,-0.0154 0.0462,-0.007 0.28157,-0.0433 0.52294,-0.0811 1.64103,-0.25691 2.42468,-0.36019 2.9386,-0.38722 0.12698,-0.007 0.16647,-0.0144 0.23319,-0.0452 0.17187,-0.0793 0.35297,-0.28993 0.50175,-0.58352 0.20714,-0.40873 0.35689,-0.97581 0.39505,-1.496 0.009,-0.12589 0.004,-0.41918 -0.009,-0.50276 -0.0282,-0.18401 -0.0701,-0.30153 -0.12903,-0.36181 -0.0154,-0.0156 -0.0887,-0.0731 -0.16302,-0.12763 -0.29368,-0.21537 -0.64722,-0.49857 -1.05997,-0.84908 -0.14924,-0.12674 -0.29544,-0.25332 -0.70865,-0.61353 -0.35999,-0.31384 -0.69358,-0.60089 -0.86035,-0.74032 -0.10263,-0.0858 -0.10922,-0.0926 -0.1027,-0.10494 0.004,-0.007 0.0386,-0.0687 0.0773,-0.13636 0.0387,-0.0677 0.16431,-0.29201 0.27913,-0.49845 0.34562,-0.62137 0.49222,-0.87581 0.66094,-1.14705 0.0913,-0.1467 0.29434,-0.45641 0.29929,-0.45641 0.0232,0 1.02543,0.19098 1.49604,0.28508 1.09147,0.21825 1.81365,0.38515 2.30547,0.53281 0.095,0.0285 0.10455,0.0303 0.15013,0.0274 0.0912,-0.006 0.24538,-0.0697 0.39286,-0.16326 0.45852,-0.29073 1.14842,-0.98109 1.46779,-1.46878 0.0574,-0.0877 0.11414,-0.19645 0.12573,-0.24113 0.006,-0.0254 0.006,-0.0317 -0.008,-0.069 -0.009,-0.0226 -0.10922,-0.29111 -0.22388,-0.59663 -0.20703,-0.55167 -0.63618,-1.70268 -0.9672,-2.59407 -0.095,-0.25583 -0.1703,-0.46602 -0.16733,-0.46713 0.003,-10e-4 0.031,-0.0177 0.0625,-0.0369 0.0521,-0.0319 0.0569,-0.0364 0.0559,-0.0523 -0.001,-0.0169 0.0153,-0.0273 0.62757,-0.39401 1.03144,-0.61783 1.76315,-1.05061 1.95384,-1.15559 0.002,-10e-4 0.0588,0.0634 0.12593,0.14346 0.19033,0.22707 0.31974,0.37914 0.85216,1.0014 0.69211,0.80886 1.00037,1.17488 1.29569,1.53842 0.0635,0.0782 0.12698,0.152 0.14102,0.16404 0.0759,0.065 0.21273,0.11226 0.40088,0.13833 0.0948,0.0131 0.35477,0.0182 0.48644,0.009 0.54735,-0.0363 1.14827,-0.17994 1.5872,-0.37949 0.0949,-0.0431 0.16092,-0.0805 0.2183,-0.1235 0.0506,-0.0379 0.11155,-0.1014 0.12759,-0.13285 0.0255,-0.0499 0.27326,-1.49659 0.63901,-3.7307 l 0.0437,-0.26725 0.0628,-0.003 0.0628,-0.003 0.002,-0.0165 0.002,-0.0165 1.45443,0.002 1.45442,0.002 0.002,0.0148 c 0.001,0.008 0.006,0.0176 0.01,0.0211 0.0208,0.0165 0.10132,0.48696 0.22206,1.29742 0.16946,1.13751 0.25587,1.63159 0.35501,2.02985 0.0564,0.22632 0.0847,0.30465 0.13698,0.37786 0.034,0.0477 0.13824,0.14726 0.20103,0.19208 0.32186,0.22976 0.89654,0.43247 1.52418,0.53765 0.24446,0.041 0.43654,0.0595 0.66854,0.0645 0.219,0.005 0.3692,-0.006 0.51518,-0.0368 0.0967,-0.0204 0.11665,-0.0359 0.2163,-0.1682 0.34938,-0.464 0.67958,-0.86293 1.5113,-1.82589 0.21397,-0.24772 0.46052,-0.53482 0.5479,-0.63799 0.0874,-0.10317 0.16079,-0.18877 0.16315,-0.19023 0.002,-10e-4 0.019,0.006 0.0371,0.0177 l 0.0328,0.0203 0.03,-0.0323 0.03,-0.0323 1.21311,0.75067 c 0.66721,0.41286 1.21716,0.753 1.22212,0.75586 0.008,0.004 0.007,0.0106 -0.006,0.0456 l -0.0144,0.0404 0.013,0.0106 c 0.007,0.006 0.0163,0.0116 0.0204,0.013 0.006,0.002 0.006,0.007 1.3e-4,0.023 -0.004,0.0113 -0.26028,0.72043 -0.5695,1.5759 l -0.56222,1.55543 0.004,0.0571 c 0.015,0.25997 0.23163,0.70905 0.54755,1.13502 0.47654,0.64255 1.10845,1.18214 1.48005,1.26382 l 0.0452,0.01 0.09,-0.0399 c 0.54059,-0.24011 1.0461,-0.42687 2.23395,-0.82533 0.52889,-0.17743 0.78651,-0.26555 1.01715,-0.34798 0.0838,-0.0299 0.15566,-0.0544 0.15969,-0.0544 0.004,0 0.0104,0.007 0.0142,0.015 l 0.007,0.015 0.0401,-0.0151 c 0.0221,-0.008 0.0412,-0.0139 0.0426,-0.0125 10e-4,0.001 0.33455,0.57733 0.74037,1.27988 l 0.73785,1.27736 -0.0281,0.024 c -0.0155,0.0132 -0.0303,0.026 -0.033,0.0285 -0.002,0.002 0.006,0.0215 0.0173,0.0423 0.0146,0.0249 0.0204,0.0404 0.0168,0.0454 -0.003,0.004 -0.0486,0.0437 -0.10145,0.0879 -1.31366,1.09929 -2.51006,2.10553 -2.72759,2.29403 -0.0807,0.07 -0.10503,0.11308 -0.12131,0.215 -0.0412,0.25787 -0.0361,0.60953 0.0146,0.9939 0.0716,0.54371 0.22363,1.08208 0.38837,1.37526 0.0725,0.12905 0.16031,0.23412 0.22409,0.26818 0.0481,0.0257 0.17324,0.0489 1.92759,0.35636 0.48225,0.0845 1.02003,0.17913 1.19509,0.21021 0.67943,0.12063 0.69701,0.12387 0.7552,0.13918 0.01,0.002 0.0105,0.0787 0.0105,1.49145 l 0,1.48868 -0.021,0.004 -0.0211,0.004 0,0.068 c 0,0.0595 -0.001,0.0684 -0.0105,0.0712 -0.0629,0.0192 -0.76703,0.12328 -2.21752,0.32796 -0.91553,0.1292 -1.33855,0.19403 -1.41414,0.21674 -0.0797,0.0239 -0.15268,0.0714 -0.23106,0.15034 -0.14173,0.14268 -0.25517,0.34532 -0.348,0.62164 -0.20525,0.61093 -0.27771,1.40955 -0.17464,1.92477 0.0335,0.16746 0.0931,0.31414 0.15659,0.38536 0.017,0.019 0.1177,0.10391 0.22383,0.18857 0.46301,0.36932 0.82374,0.66942 1.70935,1.42205 0.31288,0.26591 0.78005,0.66103 0.80941,0.68458 0.002,0.001 -0.1561,0.27286 -0.27784,0.47742 -0.0423,0.071 -0.18413,0.30883 -0.31528,0.52849 -0.49096,0.82229 -0.70437,1.19188 -0.88338,1.5298 -0.025,0.0472 -0.0349,0.0607 -0.0425,0.0583 -0.008,-0.002 -0.0185,0.0131 -0.0478,0.0692 -0.0208,0.0398 -0.0404,0.0723 -0.0435,0.0723 -0.003,0 -0.056,-0.0192 -0.11743,-0.0427 -1.32119,-0.5047 -2.7556,-1.04107 -2.88235,-1.0778 -0.40551,-0.11751 -1.10424,0.18782 -1.78149,0.77848 -0.10183,0.0888 -0.33178,0.31949 -0.40976,0.41105 -0.19948,0.23421 -0.3395,0.45569 -0.38349,0.60655 -0.0273,0.0936 -0.0244,0.13341 0.023,0.31529 0.17941,0.68844 0.40329,1.33096 0.79331,2.27675 0.0735,0.17822 0.42937,1.02473 0.43665,1.03862 0.004,0.007 -0.0106,0.0184 -0.0713,0.0536 -0.0419,0.0243 -0.64774,0.37656 -1.34633,0.78279 -0.69858,0.40622 -1.27421,0.73946 -1.27916,0.74052 -0.006,10e-4 -0.22223,-0.25391 -0.59755,-0.70425 -0.98464,-1.18144 -1.75558,-2.10136 -1.81036,-2.16024 -0.0349,-0.0376 -0.0827,-0.0613 -0.16533,-0.0822 -0.12085,-0.0306 -0.21126,-0.0385 -0.4385,-0.0385 -0.24425,0 -0.39577,0.0114 -0.68163,0.0514 -0.42575,0.0596 -0.88235,0.17101 -1.17707,0.28722 -0.14934,0.0589 -0.30295,0.14661 -0.33729,0.19262 -0.0204,0.0273 -0.0832,0.36835 -0.53968,2.93357 -0.0929,0.52187 -0.17167,0.9644 -0.17508,0.98339 l -0.006,0.0345 -1.57463,0 -1.57462,0 -0.008,-0.0465 z m 1.5188,-1.10727 c 0.25434,-0.0337 0.47096,-0.19038 0.6053,-0.43763 0.0755,-0.13895 0.13147,-0.33532 0.15833,-0.55551 0.0127,-0.10401 0.0109,-0.48093 -0.003,-0.58854 -0.0336,-0.263 -0.10382,-0.47409 -0.20936,-0.62902 -0.046,-0.0675 -0.13646,-0.15936 -0.19557,-0.19861 -0.14183,-0.0942 -0.2992,-0.13483 -0.49695,-0.12838 -0.2262,0.007 -0.39047,0.0724 -0.53853,0.21329 -0.18055,0.1718 -0.28799,0.42177 -0.33348,0.77597 -0.015,0.11666 -0.0149,0.47097 1.3e-4,0.59432 0.0315,0.25837 0.10068,0.47135 0.20302,0.62496 0.0498,0.0748 0.14302,0.16845 0.2123,0.2134 0.16279,0.10559 0.37077,0.14588 0.59769,0.11575 z m -0.18317,-0.28202 c -0.0956,-0.009 -0.18963,-0.0542 -0.261,-0.12483 -0.0652,-0.0645 -0.10922,-0.13797 -0.15305,-0.25535 -0.0182,-0.0489 -0.0208,-0.0607 -0.0143,-0.0668 0.0137,-0.0128 1.02152,-0.76054 1.02903,-0.76342 0.0113,-0.004 0.0235,0.20795 0.0186,0.32454 -0.0123,0.2971 -0.0661,0.51042 -0.16809,0.66681 -0.10499,0.16107 -0.26214,0.23737 -0.45122,0.21912 z m -0.5046,-0.86823 c -0.0108,-0.2442 0.0173,-0.50446 0.0726,-0.67333 0.0956,-0.29182 0.27218,-0.43772 0.51576,-0.42612 0.20412,0.01 0.35773,0.14125 0.44059,0.37728 l 0.0181,0.0516 -0.49018,0.36281 c -0.2696,0.19954 -0.5042,0.37289 -0.52133,0.3852 l -0.0311,0.0224 -0.004,-0.0998 z m 2.2655,1.05056 c 0.007,-0.0404 0.0198,-0.10998 0.0277,-0.15464 l 0.0144,-0.0812 -0.17337,0 -0.17337,0 0,0.15626 0,0.15625 0.14563,-0.002 0.14563,-0.002 0.0133,-0.0734 z m -3.01305,-0.10374 0,-0.13212 -0.0247,0 c -0.0225,0 -0.0244,0.001 -0.0215,0.0135 0.002,0.007 0.012,0.0669 0.0228,0.13212 0.0109,0.0652 0.0206,0.1186 0.0216,0.1186 0.001,0 0.002,-0.0594 0.002,-0.13212 z m 9.61577,-0.81716 c 0.58959,-0.3426 0.59716,-0.34719 0.70275,-0.42685 0.0651,-0.0491 0.0703,-0.0519 0.0721,-0.0388 0.002,0.0132 0.0113,0.009 0.15504,-0.0755 0.0842,-0.0493 0.15694,-0.0919 0.16159,-0.0946 0.0168,-0.01 -0.0331,-0.22171 -0.0809,-0.34307 -0.11501,-0.29236 -0.30437,-0.46299 -0.58078,-0.52333 -0.0531,-0.0115 -0.079,-0.0134 -0.19057,-0.0132 -0.11044,0 -0.13802,0.002 -0.19058,0.0134 -0.38922,0.0842 -0.63075,0.4027 -0.70666,0.93195 -0.0298,0.20753 -0.0273,0.49768 0.006,0.72143 l 0.01,0.0638 0.0427,0.0518 c 0.0234,0.0285 0.0446,0.0518 0.0469,0.0518 0.002,0 0.25113,-0.14342 0.5528,-0.31871 z m -0.33487,-0.0507 c -0.002,-0.008 -0.002,-0.10898 -6.1e-4,-0.2237 0.002,-0.17331 0.006,-0.22281 0.016,-0.29266 0.0565,-0.36542 0.19102,-0.57636 0.41179,-0.64558 0.0595,-0.0187 0.15862,-0.0228 0.22552,-0.009 0.16958,0.0338 0.30458,0.16976 0.37589,0.37853 0.0114,0.0334 0.0127,0.0431 0.007,0.0487 -0.0128,0.0118 -1.0251,0.75925 -1.0283,0.75925 -0.002,0 -0.005,-0.007 -0.007,-0.0151 z m -15.61343,0.0902 c 0.006,-0.043 0.011,-0.14428 0.013,-0.22521 0.0115,-0.48481 -0.0843,-0.8517 -0.28221,-1.08098 -0.14265,-0.16522 -0.35023,-0.25223 -0.60175,-0.25223 -0.21286,0 -0.38541,0.0586 -0.53401,0.18139 -0.11384,0.094 -0.21389,0.24218 -0.27618,0.40895 -0.0373,0.10008 -0.0502,0.0801 0.11147,0.17404 0.0771,0.0448 0.14376,0.0823 0.14812,0.0834 0.006,0.001 0.0123,-0.0152 0.0219,-0.0521 0.064,-0.24806 0.17955,-0.40988 0.33882,-0.4746 0.0858,-0.0349 0.20858,-0.0423 0.29801,-0.018 0.0887,0.024 0.17663,0.0851 0.23863,0.16559 0.0497,0.0646 0.12557,0.2254 0.11691,0.24795 -0.002,0.004 -0.12358,0.0971 -0.27075,0.2058 -0.14717,0.10867 -0.26767,0.19936 -0.26778,0.20154 -1.2e-4,0.002 0.0611,0.0396 0.13613,0.0833 0.1223,0.0712 0.13757,0.0785 0.14864,0.0717 0.007,-0.004 0.0809,-0.0588 0.16462,-0.12116 0.0838,-0.0624 0.15371,-0.11208 0.15545,-0.11034 0.0102,0.0101 0.0187,0.23642 0.0139,0.36687 l -0.002,0.0721 0.15581,0.091 0.15582,0.091 0.004,-0.016 c 0.002,-0.009 0.009,-0.0511 0.0139,-0.094 z m 1.33254,-0.92477 0.18361,-0.20712 0,-0.20125 0,-0.20127 -0.15005,0 -0.15005,0 -0.38293,0.20185 c -0.21062,0.11101 -0.38745,0.20423 -0.39297,0.20715 -0.009,0.005 -0.002,0.0224 0.0511,0.14646 0.0336,0.0777 0.0633,0.14118 0.066,0.14118 0.002,0 0.13162,-0.069 0.28644,-0.1532 0.15483,-0.0843 0.2857,-0.15482 0.29083,-0.15678 0.008,-0.003 0.009,0.0197 0.009,0.21326 0,0.11926 0.001,0.21683 0.002,0.21683 10e-4,0 0.0852,-0.0932 0.18617,-0.20711 z m 8.05078,-0.0716 0.29126,-0.15846 0.003,0.082 0.003,0.082 0.047,-0.25926 c 0.0259,-0.1426 0.0485,-0.26507 0.0504,-0.27216 0.003,-0.0115 0.001,-0.0127 -0.0172,-0.011 -0.0218,0.002 -0.79743,0.40605 -0.79768,0.41552 -1.3e-4,0.005 0.10291,0.24662 0.1149,0.26951 0.003,0.006 0.007,0.0105 0.01,0.0104 0.002,0 0.13537,-0.0714 0.29556,-0.15856 z m 8.24371,-0.0194 0.0552,-0.0324 -0.0212,-0.0494 c -0.0117,-0.0272 -0.0249,-0.0581 -0.0294,-0.0689 -0.004,-0.0107 -0.01,-0.0195 -0.0113,-0.0195 -0.0102,0 -0.0987,0.1756 -0.11467,0.22769 -0.004,0.0144 -0.004,0.0144 0.0308,-0.006 0.0194,-0.0109 0.0601,-0.0344 0.0905,-0.0522 z m -3.31322,-0.26029 0,-0.25823 -0.15027,0 -0.15027,0 -0.048,0.0242 -0.048,0.0242 0.1959,0.23408 c 0.10774,0.12875 0.19697,0.23409 0.19829,0.23409 0.001,0 0.002,-0.1162 0.002,-0.25823 z m -15.06773,-2.00255 c 0.34176,-0.0518 0.59057,-0.29987 0.69967,-0.69731 0.0435,-0.1584 0.0623,-0.30053 0.0671,-0.50705 0.009,-0.36823 -0.0445,-0.66935 -0.15753,-0.89291 -0.1486,-0.29382 -0.39028,-0.44031 -0.72641,-0.44031 -0.16525,0 -0.30748,0.0351 -0.42765,0.10552 l -0.0254,0.0149 0.0614,0.0765 c 0.0337,0.0421 0.0757,0.0959 0.0932,0.11966 l 0.0318,0.0431 0.0372,-0.0202 c 0.0702,-0.0382 0.11571,-0.0482 0.21735,-0.0479 0.0805,0 0.0951,0.002 0.1368,0.0159 0.14096,0.0471 0.24963,0.16143 0.3169,0.33348 0.0135,0.0344 0.0236,0.0668 0.0226,0.0721 -0.001,0.006 -0.087,0.0725 -0.19097,0.1495 -0.10401,0.077 -0.18999,0.1426 -0.19107,0.14583 -0.001,0.003 0.004,0.0256 0.0101,0.0497 0.0187,0.0676 0.0316,0.14562 0.0359,0.21576 l 0.004,0.0638 0.19671,-0.14638 c 0.10819,-0.0805 0.19783,-0.1464 0.19921,-0.1464 0.0127,0 0.0224,0.2269 0.0153,0.36189 -0.0242,0.46386 -0.16744,0.7493 -0.41729,0.83125 -0.0387,0.0127 -0.0631,0.0163 -0.12612,0.0185 -0.074,0.002 -0.11296,-0.002 -0.182,-0.0232 -0.009,-0.002 -0.1172,0.26241 -0.1126,0.2749 0.002,0.007 0.067,0.0235 0.12548,0.032 0.0551,0.008 0.226,0.006 0.28623,-0.002 z m 2.13195,0 c 0.26911,-0.0408 0.47948,-0.20083 0.61242,-0.46569 0.0983,-0.1959 0.14723,-0.42798 0.15439,-0.73289 0.0156,-0.6637 -0.16117,-1.09609 -0.51685,-1.2643 -0.21299,-0.10073 -0.52106,-0.10078 -0.73392,0 -0.29485,0.13944 -0.47208,0.43902 -0.53502,0.9043 -0.0139,0.10233 -0.0159,0.48481 -0.003,0.59154 0.0261,0.21876 0.0682,0.37639 0.13928,0.52247 0.0457,0.094 0.0874,0.15536 0.1499,0.22111 0.0777,0.0816 0.14579,0.12969 0.24043,0.16962 0.0548,0.0231 0.14275,0.0476 0.20118,0.056 0.0597,0.009 0.22885,0.007 0.29127,-0.002 z m -0.24923,-0.2908 c -0.1641,-0.0406 -0.28261,-0.16532 -0.35685,-0.37568 -0.0182,-0.0514 -0.0185,-0.0541 -0.008,-0.0639 0.0233,-0.0223 1.02421,-0.76272 1.02706,-0.75987 0.0168,0.0168 0.0204,0.35495 0.006,0.48651 -0.0473,0.40803 -0.19727,0.65171 -0.43844,0.71228 -0.0611,0.0154 -0.16802,0.0156 -0.22875,6e-4 z m -0.4447,-0.82241 c -0.006,-0.0891 6e-4,-0.33062 0.0121,-0.42442 0.0251,-0.20755 0.0804,-0.37818 0.1627,-0.50201 0.0348,-0.0523 0.1111,-0.12449 0.16139,-0.15262 0.0223,-0.0124 0.0611,-0.0296 0.0865,-0.038 0.0416,-0.014 0.0551,-0.0154 0.13912,-0.0154 0.0849,0 0.0973,0.001 0.14113,0.0161 0.0264,0.009 0.0656,0.0263 0.0871,0.0387 0.0565,0.0328 0.13436,0.11325 0.17258,0.17828 0.0337,0.0573 0.0816,0.17226 0.0785,0.18834 -0.001,0.008 -0.43517,0.33236 -0.97267,0.72809 l -0.064,0.0471 -0.004,-0.0641 z m 2.84479,1.11019 c 0.3635,-0.0628 0.61583,-0.34973 0.70794,-0.80522 0.0275,-0.13589 0.0361,-0.22353 0.0399,-0.40213 0.005,-0.24478 -0.0118,-0.42792 -0.0558,-0.60655 -0.0494,-0.19995 -0.13038,-0.36518 -0.23592,-0.48115 -0.0361,-0.0397 -0.0365,-0.0399 -0.14901,-0.0863 -0.0621,-0.0256 -0.16737,-0.0705 -0.234,-0.0999 l -0.12115,-0.0534 -0.086,6e-5 c -0.1852,0 -0.32909,0.0398 -0.46281,0.12788 -0.24624,0.16212 -0.39167,0.44976 -0.44391,0.878 -0.0127,0.10427 -0.0109,0.4746 0.003,0.5855 0.0421,0.33892 0.13744,0.57221 0.30086,0.73647 0.116,0.1166 0.2591,0.18759 0.42684,0.21177 0.0713,0.0103 0.23685,0.008 0.31018,-0.005 z m -0.27115,-0.2889 c -0.16076,-0.0415 -0.28196,-0.16979 -0.35394,-0.37468 -0.0181,-0.0514 -0.0184,-0.0541 -0.008,-0.0638 0.006,-0.006 0.23883,-0.17955 0.5176,-0.38663 0.37239,-0.27662 0.50819,-0.37442 0.51188,-0.36862 0.003,0.004 0.005,0.0146 0.005,0.0227 6e-5,0.008 0.003,0.0591 0.007,0.11318 0.008,0.10788 4.5e-4,0.28659 -0.0159,0.40223 -0.045,0.31799 -0.16406,0.53539 -0.34034,0.62151 -0.0308,0.0151 -0.0754,0.0316 -0.0992,0.0368 -0.0609,0.0133 -0.16657,0.012 -0.22403,-0.003 z m -0.44053,-0.81188 c -0.0137,-0.19247 0.004,-0.45234 0.0423,-0.61415 0.0652,-0.27739 0.19245,-0.45001 0.37725,-0.51183 0.0439,-0.0146 0.0561,-0.0161 0.14113,-0.0161 0.0849,0 0.0973,0.001 0.14113,0.0161 0.14847,0.0497 0.26033,0.17279 0.3259,0.35869 l 0.018,0.0511 -0.47466,0.35132 c -0.26107,0.19324 -0.49548,0.36665 -0.52091,0.38538 l -0.0462,0.034 -0.004,-0.0545 z m 2.84362,1.10066 c 0.33063,-0.0571 0.56818,-0.29654 0.67999,-0.68552 0.0206,-0.0717 0.0428,-0.18501 0.0558,-0.28461 0.0156,-0.12024 0.0156,-0.47684 -1.3e-4,-0.60492 -0.0161,-0.13117 -0.01,-0.12031 -0.0734,-0.12959 -0.0295,-0.004 -0.1275,-0.0199 -0.21778,-0.0345 -0.0903,-0.0147 -0.1675,-0.0267 -0.17158,-0.0267 -0.004,0 -0.22612,0.16184 -0.49343,0.35967 l -0.48604,0.35967 -0.005,-0.0549 c -0.007,-0.0774 -3.1e-4,-0.33382 0.0111,-0.43024 0.0175,-0.14769 0.0528,-0.28853 0.0963,-0.38314 0.0139,-0.0302 0.0179,-0.0446 0.0129,-0.0464 -0.0528,-0.0187 -0.30737,-0.0865 -0.31098,-0.0828 -0.01,0.01 -0.059,0.14002 -0.0773,0.20399 -0.0557,0.19446 -0.0759,0.37888 -0.0707,0.64721 0.004,0.18386 0.013,0.28156 0.0403,0.41785 0.0623,0.31115 0.19504,0.53878 0.38696,0.66386 0.0822,0.0536 0.19013,0.0954 0.28564,0.11073 0.0248,0.004 0.0491,0.008 0.054,0.009 0.005,0.001 0.0554,0.002 0.11201,0.002 0.0776,6e-4 0.11977,-0.002 0.17116,-0.0111 z M 190.40492,476.15 c -0.16006,-0.0413 -0.27379,-0.16064 -0.35108,-0.36843 -0.0182,-0.0491 -0.0207,-0.0608 -0.0142,-0.0671 0.0275,-0.0268 1.02865,-0.76482 1.0322,-0.76099 0.002,0.002 0.008,0.056 0.0118,0.11879 0.0161,0.24574 -0.0123,0.50146 -0.0763,0.68735 -0.0585,0.17026 -0.16001,0.29959 -0.28022,0.35726 -0.0302,0.0145 -0.0745,0.0307 -0.0983,0.0359 -0.0609,0.0134 -0.16644,0.0121 -0.22402,-0.003 z m 2.40309,0.28878 c 0.36756,-0.0635 0.61803,-0.35024 0.71061,-0.8137 0.0309,-0.15477 0.0361,-0.21935 0.0361,-0.4477 0,-0.14211 -0.003,-0.23899 -0.008,-0.29056 l -0.008,-0.0774 -0.0697,0.004 c -0.17708,0.01 -0.31024,0.0155 -0.45693,0.0193 l -0.15907,0.004 -0.3574,0.26437 c -0.19657,0.1454 -0.3659,0.27078 -0.37627,0.27862 l -0.0189,0.0143 -0.005,-0.1008 c -0.005,-0.10918 0.004,-0.34079 0.0175,-0.42723 0.006,-0.0349 0.006,-0.0507 10e-4,-0.0521 -0.004,-10e-4 -0.0672,-0.006 -0.14151,-0.0118 -0.0743,-0.006 -0.14623,-0.0114 -0.15982,-0.0132 -0.0294,-0.004 -0.0273,-0.009 -0.0423,0.10329 -0.0152,0.11279 -0.0152,0.47344 -1.4e-4,0.59744 0.0478,0.39125 0.17936,0.66882 0.38819,0.81917 0.0882,0.0635 0.20703,0.11276 0.31257,0.12959 0.0248,0.004 0.0491,0.008 0.054,0.009 0.005,0.001 0.0554,0.002 0.112,0.002 0.0777,6.1e-4 0.11977,-0.002 0.17115,-0.0111 z m -0.26981,-0.28825 c -0.13291,-0.0359 -0.23779,-0.12576 -0.30679,-0.26277 -0.0217,-0.0431 -0.0507,-0.11474 -0.0597,-0.14733 l -0.006,-0.0225 0.51311,-0.38163 c 0.28221,-0.20989 0.51672,-0.383 0.52113,-0.3847 0.0124,-0.005 0.0246,0.2014 0.0193,0.32698 -0.0206,0.49016 -0.16046,0.77548 -0.42412,0.86582 -0.0571,0.0196 -0.19478,0.0228 -0.25669,0.006 z m 2.40176,0.2883 c 0.37609,-0.0646 0.62879,-0.36136 0.71623,-0.84107 0.028,-0.15387 0.0351,-0.26224 0.0316,-0.47742 -0.004,-0.27066 -0.0251,-0.41821 -0.0833,-0.5979 l -0.0186,-0.0573 -0.16575,0.0419 c -0.0912,0.023 -0.16644,0.0423 -0.16727,0.0429 -6.1e-4,6e-4 0.004,0.0169 0.0106,0.0362 0.006,0.0194 0.0101,0.037 0.008,0.0392 -0.0155,0.0137 -1.02468,0.7576 -1.03118,0.76009 -0.0124,0.005 -0.0181,-0.18999 -0.01,-0.33744 0.006,-0.10481 0.0202,-0.22963 0.0341,-0.29618 l 0.004,-0.0204 -0.0204,0.004 c -0.0113,0.002 -0.0772,0.0106 -0.14655,0.0189 -0.0694,0.008 -0.13895,0.0168 -0.15465,0.0187 -0.0156,0.002 -0.0285,0.006 -0.0286,0.007 -5e-5,0.002 -0.006,0.0444 -0.0123,0.094 -0.0158,0.11662 -0.0218,0.37029 -0.0122,0.50446 0.0454,0.62662 0.28632,0.9854 0.71188,1.06036 0.0872,0.0154 0.24486,0.0153 0.33453,0 z m -0.2701,-0.28873 c -0.12069,-0.0316 -0.2249,-0.11608 -0.29263,-0.23719 -0.0233,-0.0417 -0.0579,-0.12296 -0.0714,-0.16767 l -0.008,-0.0273 0.51352,-0.38183 c 0.28243,-0.21001 0.51688,-0.38313 0.52098,-0.3847 0.009,-0.004 0.0135,0.0433 0.019,0.19292 0.006,0.17449 -0.0111,0.35723 -0.0486,0.50831 -0.0463,0.18671 -0.12264,0.32575 -0.22539,0.41079 -0.0437,0.0361 -0.13089,0.0789 -0.18316,0.0898 -0.0606,0.0127 -0.1696,0.0111 -0.22415,-0.003 z m 4.50684,0.29394 c 0.30812,-0.0428 0.54874,-0.2497 0.67086,-0.57668 0.0839,-0.22457 0.11997,-0.50261 0.10599,-0.81609 -0.0194,-0.43662 -0.11942,-0.73133 -0.31495,-0.92867 -0.11641,-0.11749 -0.24916,-0.18291 -0.42665,-0.21024 -0.0759,-0.0117 -0.25958,-0.008 -0.32731,0.007 -0.10638,0.023 -0.20113,0.0625 -0.28825,0.12021 -0.0655,0.0433 -0.1698,0.14986 -0.21773,0.22225 -0.1496,0.22599 -0.22657,0.53934 -0.22666,0.92286 -1.2e-4,0.48202 0.10858,0.8409 0.31804,1.05008 0.0315,0.0314 0.0767,0.07 0.10039,0.0858 0.0882,0.0584 0.20132,0.10238 0.31121,0.12094 0.059,0.01 0.23178,0.0116 0.29506,0.003 z m -0.24177,-0.29364 c -0.1647,-0.0432 -0.28069,-0.16746 -0.35635,-0.38179 l -0.0175,-0.0497 0.52062,-0.38721 0.52062,-0.38723 0.004,0.0339 c 0.002,0.0186 0.006,0.0906 0.008,0.15998 0.0122,0.3601 -0.0563,0.6599 -0.19179,0.83977 -0.0632,0.0839 -0.15705,0.14761 -0.25373,0.17233 -0.0621,0.0159 -0.17355,0.0159 -0.23424,0 z m -0.43732,-0.76831 c -0.006,-0.0105 -0.004,-0.35394 0.002,-0.42691 0.037,-0.38955 0.167,-0.64062 0.37741,-0.72918 0.13935,-0.0586 0.32375,-0.0389 0.43955,0.0472 0.0669,0.0497 0.13645,0.13859 0.17535,0.22406 0.0258,0.0568 0.0478,0.12315 0.0424,0.12811 -0.007,0.006 -1.00523,0.74443 -1.02012,0.75419 -0.009,0.006 -0.0146,0.006 -0.0171,0.002 z m -0.748,0.88228 0,-0.15614 -0.27926,0 -0.27925,0 0,-1.08999 0,-1.09 -0.0454,0 c -0.0413,0 -0.0516,0.002 -0.11429,0.03 -0.18837,0.082 -0.44462,0.18314 -0.63907,0.25219 -0.0956,0.034 -0.2821,0.12211 -0.28221,0.13339 -6e-5,0.007 0.11463,0.27153 0.12012,0.27727 0.004,0.004 0.42664,-0.22045 0.58999,-0.31267 0.002,-0.001 0.005,0.40299 0.005,0.89864 l 0,0.90116 -0.3183,0 -0.31828,0 0,0.15614 0,0.15615 0.78071,0 0.7807,0 0,-0.15615 z m 4.05369,0.14958 c 0,-0.004 -0.0218,-0.0739 -0.0485,-0.15613 l -0.0485,-0.14959 -0.12269,0 -0.1227,0 0,-1.08999 0,-1.09 -0.15198,0 -0.15199,0 -0.39001,0.20514 c -0.21451,0.11283 -0.39108,0.20601 -0.3924,0.20709 -0.003,0.002 0.11287,0.27259 0.12001,0.28068 0.004,0.004 0.36371,-0.18668 0.5625,-0.29805 l 0.0315,-0.0177 0,0.90139 0,0.9014 -0.31829,0 -0.31829,0 0,0.15614 0,0.15614 0.67561,0 c 0.48445,0 0.67562,-0.002 0.67562,-0.006 z m -8.58782,-1.86722 c 0.57089,-0.0252 1.08389,-0.0867 1.62487,-0.19488 2.49286,-0.49864 4.72693,-1.90528 6.26554,-3.94496 1.20567,-1.59832 1.91318,-3.50557 2.03653,-5.48986 0.0259,-0.41685 0.0248,-0.90551 -0.003,-1.3272 -0.072,-1.08959 -0.31261,-2.15103 -0.71598,-3.15888 -0.11004,-0.27497 -0.20922,-0.49464 -0.35381,-0.78371 -0.19656,-0.39297 -0.38031,-0.71067 -0.6235,-1.07798 -0.72855,-1.10038 -1.65237,-2.04445 -2.73855,-2.79859 -0.91763,-0.63711 -1.95484,-1.12836 -3.02368,-1.4321 -1.29421,-0.3678 -2.64573,-0.47725 -3.99972,-0.32391 -2.19352,0.24841 -4.2464,1.197 -5.86734,2.71117 -0.12812,0.11968 -0.43154,0.42449 -0.54088,0.54336 -1.64577,1.78927 -2.59418,4.06291 -2.70167,6.47678 -0.0285,0.64148 0.003,1.30267 0.0929,1.93075 0.21923,1.53549 0.76964,2.98139 1.62794,4.27651 0.67235,1.01453 1.5298,1.91434 2.51046,2.63447 1.46588,1.07645 3.17599,1.73651 4.96565,1.91663 0.20346,0.0205 0.34559,0.0303 0.64258,0.0444 0.0976,0.005 0.68315,0.003 0.80174,-0.002 z m 14.03658,-0.44132 c 0.0118,-0.0247 0.0104,-0.0252 -0.0205,-0.008 -0.0256,0.0144 -0.0288,0.0206 -0.0128,0.0248 0.0206,0.006 0.0234,0.004 0.0333,-0.0169 z m -27.20958,-1.92955 c 0.227,-0.0498 0.4043,-0.18114 0.53136,-0.39348 0.1337,-0.22345 0.20048,-0.55298 0.19008,-0.93794 -0.005,-0.18953 -0.018,-0.3058 -0.0492,-0.44613 -0.0972,-0.43573 -0.33154,-0.68922 -0.68721,-0.74323 -0.0654,-0.01 -0.21723,-0.0113 -0.27925,-0.002 -0.10715,0.0151 -0.0753,-0.007 -0.37695,0.26499 l -0.27165,0.24519 -0.0199,0.0466 c -0.0865,0.20248 -0.13105,0.5262 -0.11567,0.84079 0.0175,0.35859 0.0839,0.60669 0.2156,0.80626 0.0394,0.0597 0.12491,0.15043 0.18089,0.19192 0.0914,0.0678 0.20735,0.1147 0.33391,0.13524 0.0782,0.0128 0.27512,0.008 0.34804,-0.008 z m -0.28225,-0.28 c -0.12502,-0.0289 -0.22809,-0.10603 -0.29899,-0.22391 -0.0292,-0.0486 -0.0795,-0.16459 -0.0854,-0.19707 -0.003,-0.0176 0.005,-0.024 0.51484,-0.40251 l 0.51808,-0.38462 0.005,0.0213 c 0.002,0.0117 0.006,0.0983 0.008,0.19245 0.002,0.1356 0.001,0.1905 -0.006,0.26424 -0.042,0.39747 -0.18054,0.64093 -0.40878,0.71821 -0.0409,0.0139 -0.0602,0.0166 -0.12912,0.0183 -0.0544,0.001 -0.093,-6.1e-4 -0.11711,-0.006 z m -0.45673,-0.80605 c -0.007,-0.0651 10e-4,-0.37514 0.012,-0.45814 0.0363,-0.27808 0.12999,-0.49323 0.26016,-0.59778 0.0473,-0.038 0.13307,-0.0796 0.18758,-0.0909 0.0683,-0.0143 0.1805,-0.009 0.24322,0.0116 0.14704,0.0482 0.26417,0.17783 0.32464,0.3594 0.0135,0.0406 0.0148,0.0495 0.008,0.0559 -0.012,0.0112 -1.02531,0.75985 -1.02848,0.75985 -0.001,0 -0.005,-0.018 -0.007,-0.0399 z m 24.15033,1.09341 c 0.11564,-0.0172 0.21891,-0.0566 0.31424,-0.12006 0.22262,-0.14811 0.3686,-0.41104 0.42491,-0.76531 0.0212,-0.13338 0.0268,-0.21546 0.0265,-0.39035 -4.5e-4,-0.28002 -0.0285,-0.47858 -0.0952,-0.67309 -0.0297,-0.0866 -0.0905,-0.20853 -0.13529,-0.27138 -0.0475,-0.0666 -0.14594,-0.16178 -0.20617,-0.19932 -0.0908,-0.0566 -0.20511,-0.0965 -0.32008,-0.11184 -0.0674,-0.009 -0.25272,-0.004 -0.31423,0.009 -0.15968,0.033 -0.2821,0.0993 -0.39975,0.21644 -0.19332,0.1925 -0.3009,0.48543 -0.32758,0.89194 -0.008,0.12129 -0.004,0.3164 0.01,0.44139 0.0632,0.59143 0.3166,0.9215 0.7507,0.97776 0.0504,0.006 0.21393,0.004 0.27228,-0.006 z m -0.25061,-0.2906 c -0.12882,-0.0316 -0.24163,-0.12782 -0.30998,-0.26431 -0.0306,-0.0611 -0.0641,-0.14915 -0.0618,-0.16256 0.001,-0.006 0.20983,-0.16565 0.51831,-0.39505 l 0.51648,-0.38408 0.004,0.0308 c 0.002,0.017 0.006,0.093 0.008,0.169 0.0165,0.56132 -0.14974,0.9341 -0.44877,1.00578 -0.0651,0.0156 -0.16408,0.0158 -0.22682,6.1e-4 z m -0.44239,-0.78364 c -0.008,-0.0409 0.001,-0.41597 0.012,-0.48975 0.0525,-0.36954 0.18689,-0.59117 0.40273,-0.66413 0.0692,-0.0235 0.18277,-0.0276 0.25513,-0.009 0.13655,0.0345 0.24222,0.12477 0.31379,0.26799 0.0315,0.063 0.0617,0.14652 0.0552,0.15257 -0.008,0.007 -1.00428,0.74416 -1.02137,0.75536 -0.0129,0.009 -0.0136,0.008 -0.0175,-0.0128 z m 2.82269,1.0746 c 0.17593,-0.0265 0.31462,-0.0971 0.44185,-0.2247 0.16119,-0.16172 0.26106,-0.39049 0.30563,-0.70006 0.0413,-0.28678 0.0253,-0.65951 -0.0389,-0.90771 -0.024,-0.0926 -0.0487,-0.16106 -0.0875,-0.24201 -0.1167,-0.24372 -0.28598,-0.38607 -0.52621,-0.4425 -0.0809,-0.019 -0.24378,-0.0261 -0.33594,-0.0144 -0.28746,0.0361 -0.50802,0.20341 -0.64525,0.48966 -0.14062,0.29329 -0.18682,0.7726 -0.11595,1.2025 0.0799,0.48467 0.3144,0.76999 0.68719,0.83619 0.0804,0.0143 0.23103,0.0157 0.31506,0.003 z m -0.246,-0.29046 c -0.1101,-0.0272 -0.21316,-0.10289 -0.27788,-0.20404 -0.0287,-0.0449 -0.0692,-0.13223 -0.0863,-0.18635 -0.0139,-0.0441 -0.0139,-0.0444 -0.002,-0.0524 0.006,-0.004 0.24031,-0.17801 0.51941,-0.3857 l 0.50747,-0.37761 0.006,0.0337 c 0.003,0.0185 0.006,0.12016 0.006,0.22586 1.9e-4,0.15179 -0.002,0.20795 -0.0102,0.26724 -0.0346,0.24631 -0.10434,0.42637 -0.21131,0.54526 -0.0559,0.0622 -0.15418,0.1193 -0.23437,0.1363 -0.0568,0.012 -0.16286,0.011 -0.21603,-0.002 z m -0.44478,-0.79089 c -0.007,-0.0495 0.002,-0.40812 0.0121,-0.483 0.052,-0.3692 0.18624,-0.59033 0.4033,-0.66425 0.068,-0.0231 0.18227,-0.0273 0.25341,-0.009 0.11512,0.0291 0.20474,0.0939 0.27566,0.19919 0.043,0.0639 0.10559,0.21122 0.0942,0.22189 -0.009,0.009 -1.0298,0.76301 -1.03227,0.76301 -10e-4,0 -0.004,-0.0123 -0.006,-0.0275 z m -26.33662,0.90426 0,-0.15614 -0.2762,0 -0.2762,0 -0.002,-0.34523 -0.002,-0.34522 -0.18467,0.16904 -0.18467,0.16904 0,0.17619 0,0.17618 -0.18784,0 -0.18784,0 -0.0381,0.0384 c -0.021,0.0211 -0.0371,0.0411 -0.0359,0.0443 0.001,0.003 0.0332,0.0562 0.0711,0.11772 l 0.0689,0.11187 0.61723,0 0.61722,0 0,-0.15614 z m 4.26389,0 0,-0.15614 -0.27625,0 -0.27626,0 0,-1.09299 0,-1.093 -0.14546,0 -0.14547,0 -0.39052,0.2051 c -0.21478,0.11281 -0.39363,0.20749 -0.39742,0.21042 -0.005,0.004 0.0104,0.0455 0.0538,0.14623 0.0334,0.0775 0.0622,0.14089 0.064,0.14089 0.003,0 0.45299,-0.2433 0.55112,-0.29798 l 0.0376,-0.0209 0,0.90111 0,0.90112 -0.31829,0 -0.31829,0 0,0.15613 0,0.15615 0.78071,0 0.78071,0 0,-0.15615 z m 2.13194,0 0,-0.15614 -0.27625,0 -0.27625,0 0,-0.63107 0,-0.63107 -0.0733,-0.10007 c -0.0583,-0.0796 -0.25748,-0.36635 -0.29114,-0.41919 -0.006,-0.009 -0.007,0.18924 -0.008,0.88508 l -3.2e-4,0.89632 -0.31829,0 -0.31828,0 0,0.15213 c 0,0.0837 0.002,0.15395 0.004,0.15615 0.002,0.002 0.35352,0.004 0.78071,0.004 l 0.77671,0 0,-0.15614 z m 14.92685,0.14974 c 0.006,-0.0104 -6.1e-4,-0.0127 -0.009,-0.003 -0.005,0.006 -0.006,0.009 -0.001,0.009 0.004,0 0.008,-0.003 0.0104,-0.006 z m 2.13329,-0.15124 0.002,-0.15464 -0.27635,0 -0.27636,0 -3.1e-4,-0.72516 -3.3e-4,-0.72516 -0.0132,0.0175 c -0.007,0.01 -0.0547,0.0731 -0.10551,0.14102 -0.0508,0.0679 -0.12848,0.16883 -0.17266,0.22422 l -0.0803,0.10069 0,0.48345 0,0.48346 -0.31828,0 -0.3183,0 0,0.15615 0,0.15617 0.77921,-0.002 0.77921,-0.002 0.002,-0.15465 z m 6.38528,0.13812 c 0.011,-0.018 0.0119,-0.0306 0.0119,-0.15614 l 0,-0.13662 -0.27625,0 -0.27626,0 0,-0.33906 0,-0.33907 -0.18467,-0.15674 -0.18467,-0.15673 -0.002,0.4958 -0.002,0.4958 -0.31826,0 -0.31825,0 0,0.15614 0,0.15614 0.76878,0 0.76879,0 0.0119,-0.0195 z m -24.66774,-1.93226 c 0.15812,-0.0859 0.28865,-0.15731 0.29006,-0.15871 0.001,-0.001 -0.0308,-0.0552 -0.0716,-0.11956 -0.0408,-0.0643 -0.077,-0.12173 -0.0805,-0.12751 -0.006,-0.009 -0.0333,0.004 -0.26724,0.12638 -0.1435,0.0753 -0.26678,0.1405 -0.27394,0.14491 -0.013,0.008 -0.0127,0.009 0.048,0.1493 0.0335,0.0777 0.0626,0.1413 0.0643,0.14132 0.002,0 0.13266,-0.0702 0.29078,-0.15613 z m -1.55521,-2.2932 c 0.1892,-0.0418 0.34292,-0.13895 0.46218,-0.29214 0.0594,-0.0763 0.12934,-0.1993 0.12936,-0.22746 0,-0.006 -0.0173,-0.0697 -0.0386,-0.14114 -0.0514,-0.17317 -0.0862,-0.30088 -0.12969,-0.47649 -0.0378,-0.15226 -0.0433,-0.17162 -0.0397,-0.13686 0.004,0.0385 -0.007,0.25438 -0.0173,0.32435 -0.0449,0.32336 -0.15845,0.53649 -0.33418,0.6276 -0.0768,0.0398 -0.13922,0.0531 -0.23332,0.0495 -0.0609,-0.002 -0.0842,-0.006 -0.12311,-0.0191 -0.11065,-0.0375 -0.19656,-0.10993 -0.26145,-0.22025 -0.0247,-0.042 -0.0741,-0.15821 -0.0802,-0.18853 -0.004,-0.0178 0.001,-0.0215 0.50104,-0.3928 0.27755,-0.20613 0.50557,-0.37638 0.50671,-0.37835 0.003,-0.005 -0.0588,-0.31878 -0.0626,-0.31878 -0.002,0 -0.2296,0.16772 -0.50656,0.3727 -0.27696,0.205 -0.50532,0.37096 -0.50746,0.36881 -0.007,-0.007 -0.008,-0.29411 -0.001,-0.39006 0.0336,-0.45216 0.18638,-0.72465 0.44333,-0.79036 0.0621,-0.0159 0.16869,-0.0159 0.23092,7e-5 0.11546,0.0295 0.21458,0.10799 0.28589,0.22633 0.0177,0.0294 0.0306,0.0479 0.0287,0.0413 -0.005,-0.0183 -0.0435,-0.28065 -0.0588,-0.40094 l -0.0135,-0.10667 -0.0634,-0.0202 c -0.1022,-0.0326 -0.13359,-0.0367 -0.28261,-0.0366 -0.14433,5e-5 -0.18464,0.006 -0.28057,0.0366 -0.1929,0.063 -0.3565,0.20729 -0.4656,0.41074 -0.12342,0.23017 -0.18338,0.5726 -0.16649,0.95105 0.0159,0.35457 0.0834,0.6085 0.21525,0.80855 0.0398,0.0605 0.14418,0.16783 0.19845,0.20419 0.0828,0.0555 0.18214,0.0959 0.28577,0.11627 0.0731,0.0143 0.0815,0.0149 0.20719,0.0127 0.0887,-0.002 0.1302,-0.005 0.17115,-0.014 z m 23.44235,0.002 c 0.0832,-0.0172 0.15098,-0.0406 0.1565,-0.0542 0.003,-0.007 0.01,-0.0407 0.0149,-0.0754 0.0169,-0.10758 0.063,-0.32446 0.0849,-0.39935 0.002,-0.006 -0.011,0.01 -0.0286,0.0361 -0.0763,0.11415 -0.17708,0.18467 -0.30169,0.21119 -0.0644,0.0137 -0.17261,0.008 -0.23528,-0.0122 -0.12613,-0.0408 -0.22697,-0.13751 -0.29395,-0.28183 -0.0276,-0.0595 -0.0535,-0.13284 -0.0504,-0.14217 10e-4,-0.003 0.23441,-0.17856 0.51847,-0.38976 l 0.51647,-0.38402 0.006,0.034 c 0.009,0.0548 0.008,0.40332 -0.002,0.46828 -0.004,0.0308 -0.007,0.0571 -0.006,0.0584 10e-4,10e-4 0.0142,-0.0266 0.0285,-0.062 0.0765,-0.18905 0.18318,-0.37946 0.2815,-0.50237 0.0378,-0.0472 0.0373,-0.0446 0.0216,-0.15012 -0.0262,-0.17569 -0.0727,-0.32966 -0.13775,-0.45601 -0.1231,-0.23922 -0.31323,-0.37972 -0.57028,-0.42141 -0.064,-0.0104 -0.22216,-0.0117 -0.28909,-0.002 -0.17939,0.0249 -0.32189,0.096 -0.45016,0.22431 -0.198,0.19812 -0.30495,0.49711 -0.3281,0.91728 -0.008,0.14329 -0.001,0.33468 0.0164,0.47041 0.0475,0.3655 0.17484,0.62892 0.37738,0.78057 0.0949,0.071 0.20557,0.11582 0.34306,0.1388 0.0636,0.0106 0.2646,0.007 0.3273,-0.006 z m -0.72402,-1.07578 c -0.007,-0.0496 0.002,-0.40813 0.0121,-0.48311 0.0518,-0.36827 0.18536,-0.58868 0.40264,-0.66471 0.0449,-0.0156 0.0544,-0.0168 0.14413,-0.0169 0.0848,-6e-5 0.10104,0.002 0.13813,0.0139 0.1243,0.0415 0.21578,0.12474 0.28477,0.25923 0.0352,0.0685 0.0644,0.14877 0.0569,0.15569 -0.007,0.007 -1.01851,0.75384 -1.02745,0.75915 -0.005,0.003 -0.008,-0.004 -0.0113,-0.0234 z m -24.20468,0.90115 0,-0.15915 -0.27625,0 -0.27625,0 0,-1.08999 0,-1.08999 -0.14669,0 -0.1467,0 -0.39529,0.2081 c -0.21743,0.11445 -0.39594,0.20854 -0.3967,0.20908 -0.002,0.002 0.12062,0.28546 0.12404,0.28533 0.002,0 0.13453,-0.0715 0.29473,-0.15859 l 0.29127,-0.15846 0.003,0.89276 0.003,0.89275 0.0399,0.12912 c 0.0219,0.071 0.0443,0.14466 0.0497,0.16365 l 0.01,0.0345 0.41121,0 0.41121,0 0,-0.15914 z m 23.45737,0 0,-0.15915 -0.27624,0 -0.27624,0 -0.001,-1.08848 -0.001,-1.0885 -0.10344,-0.002 c -0.10335,-0.002 -0.10344,-0.002 -0.10627,0.012 -0.002,0.008 -0.007,0.0528 -0.0125,0.10074 -0.0228,0.20493 -0.075,0.53711 -0.12285,0.78071 l -0.0242,0.12312 -6e-5,0.58103 -6e-5,0.58102 -0.15764,0 -0.15765,0 -0.0202,0.0585 c -0.0111,0.0322 -0.0361,0.10286 -0.0556,0.15707 -0.0194,0.0542 -0.0353,0.0995 -0.0353,0.10059 0,10e-4 0.30402,0.002 0.67562,0.002 l 0.67561,0 0,-0.15915 z m -25.5769,-1.66296 c -0.10758,-0.40314 -0.33156,-0.63225 -0.66995,-0.68531 -0.0971,-0.0152 -0.27545,-0.01 -0.36339,0.011 -0.17761,0.042 -0.32918,0.1393 -0.44147,0.28344 -0.055,0.0706 -0.0968,0.14112 -0.0836,0.14112 0.002,0 0.0723,0.015 0.15659,0.0334 0.0843,0.0184 0.1568,0.0326 0.16118,0.0315 0.004,-10e-4 0.0225,-0.0206 0.0402,-0.0437 0.09,-0.11687 0.2137,-0.17748 0.36176,-0.17726 0.10383,0 0.18009,0.022 0.2539,0.0727 0.0904,0.0621 0.1748,0.18161 0.21474,0.30403 0.006,0.0173 0.0107,0.0316 0.0113,0.0318 0.0354,0.0101 0.37396,0.0741 0.37526,0.0709 0.001,-0.002 -0.006,-0.0356 -0.0165,-0.0737 z m 28.39346,-0.0307 c 0.0566,-0.009 0.0589,-0.0105 0.28826,-0.13491 l 0.23121,-0.12543 0.002,0.0897 c 6e-4,0.0494 0.003,0.0897 0.005,0.0897 0.006,0 0.34246,-0.0485 0.35535,-0.0514 l 0.0135,-0.003 0,-0.25511 0,-0.25512 -0.14703,0 -0.14704,0 -0.39496,0.20802 c -0.21723,0.11441 -0.3957,0.20861 -0.39662,0.20935 -0.001,6.1e-4 0.0218,0.0559 0.0504,0.12258 0.0506,0.11803 0.0524,0.12117 0.0677,0.1181 0.009,-0.002 0.0414,-0.007 0.0728,-0.0126 z m 2.42758,-0.35085 c 0.36181,-0.052 0.51791,-0.0752 0.69096,-0.10258 0.0621,-0.01 0.1142,-0.0178 0.11591,-0.0178 0.002,0 0.002,-0.0153 0.001,-0.034 l -0.002,-0.034 -0.0601,-0.0319 c -0.0746,-0.0396 -0.16653,-0.0699 -0.2524,-0.0834 -0.0968,-0.0152 -0.27532,-0.01 -0.36316,0.011 -0.14125,0.0334 -0.25812,0.0971 -0.36546,0.19911 -0.0366,0.0348 -0.0833,0.0899 -0.10574,0.12487 -0.009,0.0147 -0.01,0.0165 -10e-4,0.0165 0.006,0 0.15894,-0.0215 0.34149,-0.0477 z m -33.5179,-0.2045 0,-0.0901 -0.14692,0 -0.14692,0 -0.0794,0.0416 c -0.0662,0.0347 -0.077,0.0422 -0.0647,0.045 0.008,0.002 0.10925,0.0234 0.22486,0.0478 0.1156,0.0245 0.21086,0.0447 0.21169,0.0451 6e-4,0 10e-4,-0.0399 10e-4,-0.0895 z m 6.23068,-1.82628 c 0.0581,-0.007 0.15461,-0.0297 0.18159,-0.0426 0.014,-0.007 0.0168,-0.012 0.0181,-0.0349 0.005,-0.0878 0.0203,-0.29529 0.0235,-0.3178 l 0.004,-0.0265 -0.0308,0.0265 c -0.1412,0.1218 -0.3392,0.1489 -0.50235,0.0688 -0.0995,-0.0489 -0.16655,-0.11762 -0.22394,-0.22957 -0.0354,-0.069 -0.0715,-0.16845 -0.0637,-0.1754 0.003,-0.002 0.2209,-0.16486 0.48431,-0.3605 0.26342,-0.19563 0.47894,-0.35637 0.47894,-0.35718 0,-6e-4 0.009,-0.0472 0.0206,-0.10309 0.0339,-0.1672 0.0675,-0.3137 0.11519,-0.50251 0.0268,-0.10629 0.0435,-0.18371 0.0412,-0.19106 -0.007,-0.0229 -0.12449,-0.13455 -0.17907,-0.17056 -0.0889,-0.0586 -0.2,-0.0997 -0.31925,-0.11789 -0.067,-0.0102 -0.22178,-0.009 -0.29134,0.002 -0.25842,0.0428 -0.45994,0.191 -0.59323,0.43629 -0.12508,0.23021 -0.18626,0.57518 -0.16932,0.95487 0.016,0.35852 0.0834,0.61136 0.2158,0.80929 0.12806,0.19144 0.32405,0.30843 0.55883,0.33358 0.0477,0.005 0.1808,0.004 0.23122,-0.002 z m -0.66572,-1.08787 c -0.006,-0.0494 -0.004,-0.28278 0.002,-0.36847 0.0306,-0.39056 0.15318,-0.65198 0.35146,-0.74996 0.0955,-0.0472 0.22159,-0.0604 0.3228,-0.0338 0.1345,0.0354 0.24784,0.13727 0.31649,0.28455 0.0328,0.0704 0.0523,0.12886 0.045,0.13565 -0.008,0.008 -1.03022,0.76353 -1.03243,0.76353 -0.001,0 -0.004,-0.0141 -0.006,-0.0315 z m 26.32555,1.07674 c 0.19728,-0.0421 0.37026,-0.15776 0.49008,-0.32756 0.0781,-0.11078 0.14762,-0.27608 0.18367,-0.43705 0.0174,-0.0779 0.0392,-0.22169 0.0394,-0.26004 l 1.2e-4,-0.0244 -0.16286,-0.0284 c -0.0896,-0.0156 -0.16407,-0.0271 -0.16556,-0.0257 -0.002,10e-4 -0.006,0.0306 -0.008,0.0649 -0.0429,0.47751 -0.23013,0.74997 -0.5264,0.76614 -0.10294,0.006 -0.18265,-0.0132 -0.26863,-0.0634 -0.0496,-0.029 -0.12608,-0.10822 -0.16115,-0.16701 -0.0289,-0.0484 -0.079,-0.16406 -0.0857,-0.19747 -0.004,-0.0176 0.001,-0.0215 0.30645,-0.24831 0.1705,-0.12672 0.30893,-0.23149 0.30762,-0.23279 -0.004,-0.004 -0.37168,-0.0682 -0.38857,-0.0681 -0.01,6e-5 -0.0616,0.0345 -0.15274,0.10193 -0.0758,0.0561 -0.13927,0.10033 -0.14113,0.0985 -0.002,-0.002 -0.005,-0.0605 -0.006,-0.13036 l -0.003,-0.12695 -0.16617,-0.0304 -0.16616,-0.0304 -0.004,0.0175 c -0.009,0.0461 0.001,0.30446 0.018,0.43633 0.0506,0.40253 0.20438,0.68792 0.44648,0.82836 0.0784,0.0455 0.18892,0.0819 0.29168,0.096 0.0702,0.01 0.25494,0.003 0.32275,-0.0113 z m 2.13195,0 c 0.0968,-0.0206 0.19537,-0.0614 0.27257,-0.11268 l 0.0323,-0.0214 -3.8e-4,-0.26489 c -3.9e-4,-0.24956 -0.001,-0.26368 -0.0102,-0.24387 -0.0635,0.13639 -0.0927,0.18233 -0.15479,0.24322 -0.0872,0.0855 -0.19341,0.12877 -0.31684,0.12901 -0.0734,0 -0.13571,-0.0137 -0.19943,-0.0445 -0.11797,-0.0569 -0.19612,-0.14854 -0.2593,-0.30381 -0.0424,-0.10431 -0.0497,-0.0867 0.0727,-0.17695 0.0581,-0.0428 0.10556,-0.0793 0.10556,-0.0811 0,-0.004 -0.60592,-0.11087 -0.60899,-0.1075 -0.004,0.004 0.0148,0.14042 0.0294,0.21255 0.0586,0.2898 0.17986,0.51096 0.35068,0.63975 0.0816,0.0615 0.20672,0.11523 0.31299,0.13436 0.0789,0.0142 0.0859,0.0147 0.20419,0.0124 0.0835,-0.002 0.12565,-0.006 0.16962,-0.0146 z m -33.46996,-0.17442 0,-0.15614 -0.27625,0 -0.27625,0 0,-0.25824 c 0,-0.2172 -0.001,-0.25824 -0.008,-0.25824 -0.005,0 -0.0858,0.0122 -0.18044,0.027 -0.0946,0.0149 -0.17463,0.027 -0.17777,0.027 -0.004,0 -0.006,0.0886 -0.006,0.23121 l 0,0.23121 -0.0661,0 -0.0661,0 0,0.15615 0,0.15613 0.52848,0 0.52848,0 0,-0.15613 z m 2.13194,0 0,-0.15614 -0.27625,0 -0.27625,0 0,-0.41138 0,-0.41137 -0.0135,6e-5 c -0.007,0 -0.0878,0.009 -0.17866,0.021 -0.0908,0.0115 -0.16854,0.021 -0.17266,0.021 -0.006,6e-5 -0.008,0.0821 -0.008,0.39039 l 0,0.39036 -0.31829,0 -0.31829,0 0,0.15614 0,0.15615 0.78071,0 0.78071,0 0,-0.15615 z m 2.13195,0 0,-0.15614 -0.27625,0 -0.27625,0 0,-1.0901 0,-1.0901 -0.14263,0.002 -0.14263,0.002 -0.0226,0.0661 c -0.0309,0.0904 -0.0723,0.19694 -0.10808,0.27804 -0.0164,0.0373 -0.0287,0.069 -0.0273,0.0705 0.001,10e-4 0.018,-0.006 0.0368,-0.0157 l 0.034,-0.0185 0,0.89828 0,0.89826 -0.31829,0 -0.31829,0 0,0.15615 0,0.15614 0.78071,0 0.78071,0 0,-0.15614 z m 23.45737,0 0,-0.15614 -0.27626,0 -0.27625,0 0,-1.09 0,-1.08999 -0.14785,0 -0.14786,0 -0.13891,0.073 c -0.0764,0.0401 -0.13935,0.0732 -0.1399,0.0736 -5.8e-4,6.1e-4 0.0149,0.0571 0.0345,0.12613 0.0194,0.069 0.0371,0.13461 0.0392,0.1457 0.002,0.0111 0.006,0.0216 0.009,0.0234 0.003,0.002 0.0299,-0.0104 0.0602,-0.0271 0.0302,-0.0167 0.0559,-0.0303 0.0572,-0.0303 0.001,0 0.002,0.13025 0.002,0.28943 l 0,0.28943 0.0237,0.12044 c 0.0788,0.39937 0.1436,0.88732 0.16837,1.26749 0.004,0.0562 0.008,0.11088 0.01,0.12161 l 0.003,0.0195 0.36007,0 0.36005,0 0,-0.15614 z m 2.13194,0 0,-0.15614 -0.27626,0 -0.27625,0 0,-1.09 0,-1.08999 -0.14778,0 -0.14779,0 -0.39421,0.20773 c -0.21681,0.11425 -0.39499,0.20849 -0.39594,0.20942 -0.002,0.002 0.11706,0.27971 0.12132,0.28397 0.001,10e-4 0.12345,-0.0637 0.27162,-0.14441 0.14817,-0.0806 0.28088,-0.15247 0.29493,-0.15961 l 0.0256,-0.013 0,0.89793 0,0.89794 -0.3183,0 -0.31829,0 0,0.15615 0,0.15614 0.78071,0 0.78071,0 0,-0.15614 z m -2.78363,-4.0839 c 0.11127,-0.0235 0.18726,-0.0553 0.28121,-0.11787 0.22462,-0.14954 0.37098,-0.42715 0.42462,-0.80544 0.0426,-0.30031 0.0229,-0.67473 -0.0492,-0.9352 -0.11458,-0.41412 -0.36016,-0.63799 -0.7353,-0.67032 -0.17052,-0.0147 -0.33321,0.015 -0.47303,0.0864 -0.0789,0.0403 -0.13891,0.0859 -0.20794,0.1582 -0.16551,0.1733 -0.26397,0.41998 -0.30416,0.762 -0.0145,0.12373 -0.0146,0.42349 -6e-5,0.55434 0.0397,0.35788 0.14073,0.60846 0.31204,0.77409 0.0664,0.0642 0.11174,0.0958 0.19256,0.13421 0.0718,0.0341 0.14926,0.0573 0.23036,0.069 0.0839,0.0121 0.24966,0.007 0.32884,-0.009 z m -0.24613,-0.27435 c -0.0875,-0.0121 -0.17766,-0.0571 -0.24301,-0.12131 -0.0255,-0.0251 -0.058,-0.0628 -0.0722,-0.084 -0.0482,-0.0718 -0.11209,-0.22736 -0.0988,-0.24063 0.003,-0.003 0.23678,-0.17754 0.51915,-0.38751 l 0.5134,-0.38174 0.006,0.0347 c 0.003,0.0191 0.006,0.11983 0.006,0.22388 2.5e-4,0.19887 -0.005,0.26269 -0.0331,0.39936 -0.0161,0.0785 -0.0578,0.20462 -0.0862,0.26125 -0.0495,0.0987 -0.13308,0.19448 -0.20855,0.23913 -0.0819,0.0485 -0.20085,0.0708 -0.30197,0.0568 z m -0.48678,-0.79112 c -0.002,-0.0119 -0.002,-0.11273 -0.001,-0.22414 0.003,-0.21109 0.011,-0.29277 0.0404,-0.41893 0.0676,-0.28981 0.20446,-0.46758 0.4006,-0.52023 0.0671,-0.018 0.17357,-0.018 0.23779,-6e-5 0.13691,0.0383 0.23395,0.12447 0.30897,0.27421 0.0243,0.0485 0.0592,0.13976 0.0548,0.14345 -0.001,10e-4 -0.23205,0.17169 -0.5128,0.37911 -0.28076,0.20741 -0.51368,0.3796 -0.51762,0.38263 -0.005,0.004 -0.008,-6e-4 -0.0112,-0.0161 z m -22.07277,0.89149 0,-0.15614 -0.27625,0 -0.27625,0 0,-1.08999 0,-1.09 -0.1479,0 -0.1479,0 -0.39409,0.20771 c -0.21675,0.11424 -0.39475,0.20835 -0.39554,0.20912 -0.001,10e-4 0.11792,0.28002 0.12168,0.28462 6e-4,0.001 0.13353,-0.07 0.29495,-0.15774 l 0.29346,-0.15955 0.001,0.81347 10e-4,0.81348 0.0446,0.0365 c 0.0823,0.0672 0.14778,0.17199 0.19179,0.30666 0.0113,0.0347 0.024,0.08 0.028,0.10058 l 0.007,0.0375 0.32652,0 0.32652,0 0,-0.15614 z m 2.13194,0 0,-0.15614 -0.27625,0 -0.27626,0 0,-1.08999 0,-1.09 -0.14754,0 -0.14754,0 -0.35541,0.18699 c -0.19548,0.10284 -0.37346,0.19687 -0.39551,0.20894 l -0.0401,0.0219 0.0605,0.14089 c 0.0333,0.0775 0.0611,0.14171 0.062,0.14272 6e-4,10e-4 0.12542,-0.0655 0.27689,-0.14781 0.15147,-0.0823 0.28419,-0.15415 0.29493,-0.15964 l 0.0195,-0.01 0,0.89797 0,0.89797 -0.31829,0 -0.31829,0 0,0.15614 0,0.15614 0.78071,0 0.78071,0 0,-0.15614 z m 0.66082,0.1066 c 0.014,-0.0273 0.0509,-0.0959 0.0817,-0.15245 0.0309,-0.0566 0.0561,-0.10456 0.0561,-0.10659 0,-0.002 -0.0513,-0.004 -0.1141,-0.004 l -0.11411,0 0,0.15614 0,0.15614 0.0323,0 0.0323,0 0.0256,-0.0495 z m 22.22804,0 c 0.0147,-0.0668 0.053,-0.18093 0.0757,-0.22601 l 0.0186,-0.0368 -0.0391,0 -0.0391,0 0,-1.08999 0,-1.08999 -0.1482,0 -0.14819,0 -0.38779,0.20426 c -0.2133,0.11234 -0.39133,0.2065 -0.39564,0.20925 -0.006,0.004 0.006,0.0377 0.053,0.14544 0.0335,0.0773 0.0615,0.14122 0.0625,0.14215 6e-4,0.001 0.13344,-0.07 0.29448,-0.15753 0.16104,-0.0876 0.29387,-0.15923 0.29519,-0.15923 10e-4,0 0.002,0.40403 0.002,0.89782 l 0,0.89782 -0.31829,0 -0.31829,0 0,0.15615 0,0.15614 0.49101,0 0.491,0 0.0109,-0.0495 z m -21.60172,-1.04171 c 0.074,-0.10942 0.18247,-0.26201 0.25104,-0.35325 l 0.0413,-0.0549 0,-0.49642 0,-0.49643 -0.1474,0 -0.14741,0 -0.39458,0.20783 c -0.21703,0.11431 -0.3951,0.20826 -0.39571,0.20881 -0.001,6e-4 0.11821,0.27976 0.12173,0.2849 6e-4,0.001 0.13331,-0.0699 0.29466,-0.15752 l 0.29337,-0.15943 0.001,0.56557 c 6e-4,0.31106 0.004,0.56301 0.006,0.55989 0.003,-0.003 0.0365,-0.0522 0.075,-0.10905 z m 17.35384,-0.80345 0,-0.59754 -0.14824,0 -0.14825,0 -0.2286,0.12011 c -0.12572,0.0661 -0.23231,0.1225 -0.23684,0.12542 -0.006,0.004 0.01,0.0252 0.0661,0.0887 0.0409,0.0459 0.0878,0.0986 0.10433,0.11726 l 0.03,0.0339 0.0871,-0.0481 c 0.0479,-0.0265 0.0905,-0.0495 0.0946,-0.0511 0.006,-0.002 0.008,0.0325 0.008,0.16284 l 0,0.16592 0.0585,0.0734 c 0.0716,0.0899 0.29609,0.38835 0.30019,0.39901 0.002,0.004 0.006,0.008 0.008,0.008 0.003,0 0.006,-0.25091 0.006,-0.59754 z m -22.83286,0.47894 c -6e-5,-0.0395 -0.0159,-0.18505 -0.0276,-0.25361 -0.0668,-0.39192 -0.24291,-0.6639 -0.50285,-0.77643 -0.18337,-0.0794 -0.4312,-0.0904 -0.62554,-0.0278 -0.061,0.0197 -0.0755,0.0271 -0.0654,0.034 0.004,0.002 0.0612,0.0518 0.12792,0.10954 l 0.12127,0.10503 0.0763,10e-4 c 0.0903,10e-4 0.12677,0.01 0.20319,0.0471 0.11737,0.0575 0.21149,0.17809 0.26657,0.34136 l 0.0139,0.041 -0.0172,0.0137 -0.0172,0.0137 0.023,0.0204 c 0.0961,0.0853 0.41569,0.35925 0.41929,0.35944 0.002,1.2e-4 0.004,-0.0126 0.004,-0.0283 z m 29.20917,-0.64622 0.0195,-0.0183 0,-0.20601 0,-0.20601 -0.14808,0 -0.14809,0 -0.3879,0.20436 c -0.21335,0.11239 -0.39134,0.20649 -0.39552,0.20911 -0.006,0.004 0.008,0.0401 0.0531,0.14546 0.0334,0.0774 0.0614,0.14145 0.0623,0.14236 6.1e-4,10e-4 0.13352,-0.07 0.29472,-0.15765 0.1612,-0.0876 0.294,-0.15929 0.29511,-0.15929 0.001,0 0.002,0.0771 0.002,0.17135 l 0,0.17135 0.16665,-0.13928 c 0.0917,-0.0766 0.17543,-0.14748 0.18617,-0.15752 z m -27.9104,-2.16485 c 0.006,-0.002 -0.097,-0.026 -0.24865,-0.0567 -0.14256,-0.029 -0.26041,-0.0514 -0.26188,-0.0499 -0.008,0.008 0.12941,0.0655 0.20388,0.0849 0.082,0.0213 0.27344,0.0348 0.30665,0.0217 z m 4.29112,-0.001 c 0.19654,-0.0214 0.34631,-0.0921 0.48204,-0.22762 0.17091,-0.17064 0.2741,-0.41975 0.31607,-0.76294 0.0131,-0.10696 0.015,-0.44325 0.003,-0.55251 -0.0573,-0.52818 -0.2523,-0.84436 -0.59054,-0.95753 -0.0986,-0.033 -0.15952,-0.0418 -0.29186,-0.0419 -0.078,-1.2e-4 -0.11765,0.002 -0.12224,0.006 -0.005,0.005 0.006,0.0412 0.0435,0.1408 l 0.0503,0.13402 0.0629,0.007 c 0.17399,0.0194 0.29663,0.1097 0.38266,0.28157 0.024,0.0478 0.0557,0.12936 0.0556,0.14298 0,0.004 -0.0767,0.0638 -0.17047,0.13311 l -0.17042,0.12597 -0.0223,0.0526 c -0.0584,0.13784 -0.18889,0.33414 -0.37197,0.55947 -0.0399,0.0491 -0.0793,0.0977 -0.0876,0.10804 l -0.015,0.0187 0.018,-0.0128 c 0.01,-0.007 0.21259,-0.15752 0.45041,-0.33437 0.42171,-0.31359 0.4325,-0.32114 0.4365,-0.30541 0.0103,0.0404 0.0166,0.23648 0.0111,0.34167 -0.007,0.13128 -0.0139,0.19096 -0.0336,0.28912 -0.0676,0.33597 -0.22437,0.52922 -0.45916,0.56591 -0.0247,0.004 -0.068,0.006 -0.0963,0.004 -0.19792,-0.0127 -0.34295,-0.13108 -0.4302,-0.35131 l -0.0221,-0.0559 -0.0189,0.0199 c -0.0104,0.0109 -0.0683,0.0718 -0.12849,0.13533 l -0.10958,0.11554 0.0282,0.0464 c 0.11184,0.18421 0.25702,0.29575 0.45599,0.35034 0.0979,0.0269 0.22988,0.0358 0.34427,0.0234 z m 21.38777,-0.008 c 0.16039,-0.0288 0.30278,-0.10294 0.4156,-0.21632 0.0487,-0.049 0.12913,-0.15077 0.12313,-0.15587 -0.005,-0.004 -0.95816,0.3244 -0.98386,0.33869 -0.0144,0.008 0.0947,0.0354 0.17686,0.0443 0.0478,0.006 0.21739,-0.002 0.26827,-0.0108 z m -18.52189,-0.17762 0,-0.15614 -0.27626,0 -0.27625,0 0,-1.08999 0,-1.09 -0.14787,0 -0.14786,0 -0.3611,0.19002 c -0.19861,0.10451 -0.3763,0.19843 -0.3949,0.20872 l -0.0338,0.0187 0.0614,0.1411 c 0.0337,0.0776 0.0639,0.14062 0.067,0.14004 0.003,-5.8e-4 0.12443,-0.0657 0.26967,-0.14478 0.14525,-0.079 0.27557,-0.14956 0.2896,-0.15671 l 0.0256,-0.013 0,0.89794 0,0.89794 -0.31828,0 -0.3183,0 0,0.15614 0,0.15614 0.78072,0 0.78071,0 0,-0.15614 z m 12.79765,0 0,-0.15614 -0.27625,0 -0.27625,0 0,-1.08999 0,-1.09 -0.14966,0 -0.14967,0 -0.38932,0.20495 c -0.21414,0.11272 -0.39162,0.20702 -0.39441,0.20955 -0.004,0.004 0.0862,0.22427 0.1123,0.27432 0.006,0.0128 0.0144,0.009 0.29479,-0.14325 0.15834,-0.0861 0.29144,-0.15782 0.29576,-0.15948 0.006,-0.002 0.008,0.15732 0.008,0.89544 l 0,0.89846 -0.31828,0 -0.3183,0 0,0.15614 0,0.15614 0.78072,0 0.78071,0 0,-0.15614 z m 2.13195,0 0,-0.15614 -0.27626,0 -0.27625,0 0,-1.08999 0,-1.09 -0.14937,0 -0.14937,0 -0.38962,0.205 c -0.21429,0.11274 -0.39187,0.207 -0.39462,0.20948 -0.003,0.002 0.0226,0.0683 0.0563,0.14614 0.0585,0.13535 0.0618,0.14137 0.0741,0.13504 0.007,-0.004 0.13892,-0.0752 0.29309,-0.15896 0.15418,-0.0838 0.28187,-0.15234 0.28376,-0.15234 0.002,0 0.004,0.40401 0.004,0.89782 l 0,0.89781 -0.31829,0 -0.31828,0 0,0.15614 0,0.15614 0.7807,0 0.78072,0 0,-0.15614 z m 5.61107,0.0256 c -0.0415,-0.0718 -0.0893,-0.15494 -0.10629,-0.18467 l -0.0308,-0.054 -0.002,0.0285 -0.002,0.0285 -0.31797,0 -0.31795,0 0,0.15614 0,0.15614 0.42608,0 0.42608,0 -0.0755,-0.13062 z m -29.54335,0.091 c 0.0765,-0.0353 0.1604,-0.0956 0.22747,-0.1634 0.034,-0.0344 0.0609,-0.0654 0.0597,-0.0691 -0.002,-0.006 -0.12928,-0.033 -0.16052,-0.0337 -0.0159,-3.8e-4 -0.0297,0.019 -0.15594,0.21801 -0.0559,0.0881 -0.0561,0.0877 0.0294,0.0482 z m 9.88635,-0.22253 0.14769,-0.0774 -0.0487,-0.0514 c -0.0268,-0.0282 -0.0617,-0.0731 -0.0776,-0.0996 -0.0299,-0.0499 -0.0799,-0.16707 -0.0833,-0.19509 -0.002,-0.0148 0.0355,-0.0439 0.51451,-0.40025 0.31991,-0.238 0.51793,-0.38161 0.5203,-0.37735 0.002,0.004 0.007,0.0583 0.0111,0.12101 0.0132,0.20636 -0.009,0.45555 -0.0535,0.61106 -0.006,0.0223 -0.009,0.0406 -0.006,0.0406 0.003,0 0.0386,-0.0132 0.0791,-0.0294 0.0405,-0.0161 0.1223,-0.0475 0.18176,-0.0696 0.0594,-0.0221 0.10874,-0.0408 0.10951,-0.0416 6e-4,-6e-4 0.007,-0.0457 0.0148,-0.10003 0.0118,-0.0868 0.0134,-0.12464 0.0135,-0.31488 6e-5,-0.17038 -0.002,-0.23465 -0.0106,-0.30328 -0.0403,-0.32969 -0.13744,-0.57405 -0.29213,-0.73475 -0.0639,-0.0664 -0.11346,-0.10398 -0.18641,-0.14134 -0.12958,-0.0663 -0.28173,-0.097 -0.4384,-0.0884 -0.23071,0.0127 -0.41169,0.0928 -0.55737,0.24672 -0.15753,0.16642 -0.2547,0.40517 -0.29946,0.73579 -0.0157,0.11613 -0.0157,0.48684 -5e-5,0.60955 0.0396,0.30933 0.12632,0.53851 0.26559,0.70166 0.019,0.0223 0.0377,0.0394 0.0414,0.038 0.004,-0.001 0.0732,-0.0374 0.15441,-0.08 z m -0.13626,-0.83534 c -0.006,-0.0945 6e-4,-0.31564 0.0125,-0.41588 0.0428,-0.36274 0.1741,-0.59928 0.37809,-0.68094 0.058,-0.0233 0.13949,-0.0359 0.20189,-0.0312 0.19513,0.0144 0.33701,0.13042 0.42375,0.34645 0.0147,0.0366 0.0258,0.0716 0.0249,0.0778 -0.001,0.007 -0.1964,0.15524 -0.51758,0.39285 -0.28365,0.20984 -0.51647,0.38152 -0.51738,0.38152 -6.1e-4,0 -0.004,-0.0318 -0.006,-0.0706 z m 9.9183,0.80924 0,-0.024 -0.045,0 c -0.0248,0 -0.045,0.001 -0.045,0.003 0,0.003 0.0785,0.0444 0.0856,0.0448 0.002,2e-4 0.004,-0.0106 0.004,-0.0237 z m -0.55851,-1.22512 0,-0.97889 -0.14679,0 -0.14679,0 -0.3892,0.20485 c -0.21405,0.11266 -0.39157,0.20706 -0.39449,0.20978 -0.007,0.007 0.11418,0.28553 0.12336,0.28315 0.004,-0.001 0.13611,-0.072 0.29373,-0.15764 0.15761,-0.0857 0.28819,-0.15579 0.29018,-0.15579 0.002,0 0.004,0.31917 0.005,0.70928 l 0.001,0.70929 0.17716,0.0767 c 0.0974,0.0422 0.17919,0.077 0.18166,0.0774 0.002,3.8e-4 0.004,-0.4398 0.004,-0.97819 z m -1.50323,0.22416 c -0.004,-0.20542 -0.006,-0.24719 -0.0283,-0.37729 -0.0258,-0.15374 -0.0631,-0.27434 -0.12265,-0.39637 -0.11202,-0.22954 -0.28054,-0.37108 -0.5071,-0.42594 -0.15894,-0.0385 -0.34727,-0.0336 -0.4961,0.0128 -0.16964,0.053 -0.31965,0.16819 -0.4244,0.32602 -0.0362,0.0546 -0.0939,0.17065 -0.11938,0.24022 -0.0451,0.12306 -0.0959,0.38005 -0.0958,0.48471 l 0,0.0168 0.15608,0.017 c 0.0859,0.009 0.16151,0.0185 0.16815,0.0202 0.0107,0.003 0.012,1.9e-4 0.0121,-0.0231 6e-5,-0.0144 0.004,-0.0625 0.009,-0.10679 0.0451,-0.40336 0.19703,-0.65052 0.43829,-0.71278 0.0562,-0.0145 0.17078,-0.0147 0.22521,-2.5e-4 0.1636,0.0432 0.28345,0.16721 0.35346,0.36572 l 0.0186,0.0525 -0.0794,0.0588 c -0.0437,0.0323 -0.18811,0.13925 -0.32098,0.23758 -0.13288,0.0983 -0.24288,0.18088 -0.24446,0.18344 -0.002,0.002 0.0328,0.0108 0.0764,0.0183 0.0436,0.008 0.13164,0.0242 0.19561,0.0369 0.064,0.0128 0.11936,0.0214 0.12311,0.019 0.004,-0.002 0.0753,-0.0552 0.15903,-0.11744 0.0837,-0.0623 0.15303,-0.1124 0.15403,-0.11134 0.002,0.002 0.0152,0.20376 0.0168,0.26292 l 0.001,0.0448 0.12011,0.0309 c 0.0661,0.017 0.13903,0.0362 0.16215,0.0427 0.0231,0.006 0.0444,0.01 0.0473,0.007 0.003,-0.002 0.004,-0.0945 0.002,-0.20764 z m -5.20061,0.0998 c 0.0502,-0.0118 0.30148,-0.0657 0.30592,-0.0657 0.001,0 0.002,-0.27835 0.002,-0.61856 l 0,-0.61856 -0.1474,0 -0.14739,0 -0.3886,0.20465 c -0.21372,0.11254 -0.39113,0.20711 -0.39424,0.21014 -0.004,0.004 0.0167,0.0574 0.0532,0.14217 0.0323,0.0752 0.0606,0.13844 0.0627,0.14061 0.002,0.002 0.13498,-0.0673 0.29517,-0.15453 l 0.29126,-0.15846 0.002,0.46531 c 0.001,0.29056 0.004,0.46531 0.007,0.46531 0.003,0 0.0294,-0.006 0.0585,-0.0123 z m 2.38087,-0.26991 0.0591,0 0,-0.51648 0,-0.51647 -0.14731,0 -0.1473,0 -0.38869,0.20476 c -0.21377,0.11262 -0.39114,0.2071 -0.39415,0.20996 -0.005,0.004 0.10427,0.27079 0.11577,0.28294 0.002,0.002 0.13488,-0.0673 0.29507,-0.15442 l 0.29126,-0.15843 0.002,0.32802 0.002,0.32803 0.12703,-0.004 c 0.0699,-0.002 0.15363,-0.004 0.18613,-0.004 z m -8.58579,-2.77774 c 0.36209,-0.0639 0.61279,-0.35066 0.70534,-0.80689 0.0262,-0.12921 0.0368,-0.23225 0.0406,-0.39701 0.006,-0.27708 -0.0198,-0.5007 -0.0826,-0.70425 -0.021,-0.0679 -0.0732,-0.19355 -0.0883,-0.21264 l -0.0104,-0.0131 -0.14413,0.086 c -0.0793,0.0473 -0.14352,0.0883 -0.14276,0.0911 6e-4,0.003 0.0109,0.0285 0.0225,0.0568 0.0116,0.0285 0.0225,0.0595 0.0243,0.069 0.003,0.017 -0.01,0.0268 -0.51494,0.40029 l -0.51813,0.3829 -0.004,-0.0315 c -0.002,-0.0173 -0.004,-0.089 -0.004,-0.1592 -3.1e-4,-0.0702 -0.002,-0.12761 -0.003,-0.12761 -10e-4,0 -0.0775,0.045 -0.16902,0.1 l -0.16644,0.1 0.004,0.0817 c 0.009,0.18087 0.038,0.34408 0.0874,0.49308 0.0919,0.2772 0.24431,0.45713 0.46138,0.54466 0.0585,0.0236 0.152,0.0471 0.22057,0.0554 0.0642,0.008 0.21527,0.003 0.28226,-0.009 z m -0.24409,-0.28203 c -0.0252,-0.005 -0.0604,-0.0144 -0.0781,-0.0213 -0.0911,-0.0356 -0.18811,-0.12279 -0.24092,-0.21633 -0.0304,-0.0539 -0.0768,-0.16582 -0.0785,-0.18955 -6.1e-4,-0.0122 0.0705,-0.0675 0.51543,-0.39864 0.5073,-0.37757 0.51654,-0.3841 0.52058,-0.36783 0.0105,0.0422 0.0166,0.23698 0.011,0.3447 -0.0288,0.54507 -0.21678,0.84075 -0.54354,0.85506 -0.0383,0.002 -0.0767,-5.1e-4 -0.10598,-0.006 z m 6.56939,0.29118 c 0.25739,-0.0271 0.45523,-0.14678 0.59862,-0.36212 0.0743,-0.11153 0.11983,-0.21814 0.15959,-0.37349 0.0423,-0.16548 0.0598,-0.32336 0.06,-0.54112 1.2e-4,-0.34165 -0.0478,-0.60059 -0.15025,-0.81012 -0.0368,-0.0754 -0.08,-0.14713 -0.0886,-0.14713 -0.003,0 -0.0317,0.15742 -0.0643,0.34982 -0.0706,0.41665 -0.0667,0.38978 -0.0565,0.38758 0.021,-0.004 0.0273,0.34166 0.009,0.49373 -0.0268,0.22339 -0.0884,0.40925 -0.17255,0.52037 -0.0237,0.0314 -0.0327,0.0494 -0.0386,0.0775 -0.0269,0.12834 -0.12989,0.25457 -0.30562,0.37441 l -0.0537,0.0366 0.0236,-1.3e-4 c 0.013,-6e-5 0.0486,-0.003 0.0792,-0.006 z m 2.13427,-2e-4 c 0.18508,-0.0186 0.33917,-0.0872 0.46785,-0.20829 0.17975,-0.16909 0.28763,-0.41633 0.33351,-0.76433 0.0131,-0.0997 0.0183,-0.39635 0.009,-0.51503 -0.0297,-0.37695 -0.13092,-0.6546 -0.30372,-0.83309 -0.1339,-0.13828 -0.31182,-0.21305 -0.53149,-0.22334 -0.25404,-0.0119 -0.46421,0.0654 -0.63081,0.232 -0.18352,0.18353 -0.2925,0.46749 -0.32393,0.844 -0.008,0.0943 -0.008,0.31564 1.3e-4,0.41769 0.0386,0.49709 0.20489,0.82448 0.49218,0.96932 0.14152,0.0713 0.30831,0.0991 0.48731,0.0811 z m -0.15979,-0.28827 c -0.15092,-0.0237 -0.27301,-0.11955 -0.35153,-0.27598 -0.0272,-0.0541 -0.0687,-0.16148 -0.0642,-0.16596 0.019,-0.019 1.03532,-0.76875 1.0382,-0.7659 0.002,0.002 0.007,0.0573 0.0117,0.12247 0.0125,0.19398 -0.006,0.42217 -0.0456,0.5803 -0.0703,0.27729 -0.21001,0.45079 -0.39958,0.49617 -0.0494,0.0118 -0.14241,0.0162 -0.18896,0.009 z m -0.48699,-0.86305 c -0.006,-0.11695 0.005,-0.34198 0.0207,-0.44901 0.0328,-0.21899 0.10372,-0.39574 0.20414,-0.50846 0.0775,-0.0869 0.18975,-0.13958 0.31297,-0.14667 0.22709,-0.0131 0.40708,0.1282 0.49585,0.3892 l 0.0137,0.0403 -0.51452,0.38053 c -0.28299,0.20928 -0.51762,0.38235 -0.5214,0.38458 -0.005,0.003 -0.008,-0.0222 -0.0114,-0.0905 z m 7.04521,1.15101 c 0.13612,-0.0136 0.26316,-0.0585 0.37243,-0.13165 0.0657,-0.044 0.17174,-0.15177 0.21818,-0.22184 0.13673,-0.20634 0.20629,-0.45632 0.2228,-0.80071 0.006,-0.1291 -5.9e-4,-0.33481 -0.0154,-0.44779 -0.0128,-0.0992 -0.0333,-0.20553 -0.039,-0.202 -0.002,0.002 -0.0692,0.0777 -0.14799,0.16892 -0.12521,0.14513 -0.14301,0.16826 -0.14209,0.18463 0.0156,0.27798 0.004,0.46928 -0.0408,0.65139 -0.068,0.27872 -0.19907,0.44535 -0.39382,0.50045 -0.0604,0.0171 -0.1765,0.0185 -0.23607,0.003 -0.0545,-0.0142 -0.12812,-0.0518 -0.17341,-0.0884 -0.0371,-0.0301 -0.0386,-0.0306 -0.0492,-0.0199 -0.006,0.006 -0.0514,0.0624 -0.10109,0.1252 l -0.0902,0.1141 0.0223,0.0193 c 0.0308,0.0268 0.10184,0.0664 0.16155,0.0904 0.12983,0.0521 0.27491,0.0706 0.43171,0.0548 z m 2.12934,3.3e-4 c 0.15974,-0.0161 0.3033,-0.0718 0.41671,-0.16209 0.18788,-0.1495 0.31297,-0.38598 0.36913,-0.69781 0.0252,-0.14001 0.0423,-0.41236 0.0318,-0.50592 l -0.005,-0.0419 -0.26424,-0.16372 c -0.14533,-0.0901 -0.26558,-0.1637 -0.26724,-0.16366 -0.002,4e-5 -0.20839,0.15229 -0.45942,0.33831 -0.35701,0.26457 -0.45754,0.33632 -0.46158,0.32947 -0.003,-0.005 -0.004,-0.10644 -0.002,-0.22584 0.002,-0.18264 0.005,-0.23026 0.0159,-0.30035 0.0367,-0.23536 0.10618,-0.40685 0.2106,-0.51978 0.0166,-0.0179 0.0301,-0.0332 0.0301,-0.034 0,-0.003 -0.26431,-0.16462 -0.2696,-0.16462 -0.009,0 -0.0791,0.087 -0.11454,0.14113 -0.16269,0.24869 -0.23969,0.64904 -0.21024,1.093 0.0297,0.44766 0.16024,0.75994 0.39002,0.93296 0.15217,0.11459 0.36624,0.16717 0.58958,0.1448 z m -0.15415,-0.28756 c -0.11811,-0.019 -0.22179,-0.0813 -0.29534,-0.17764 -0.0378,-0.0495 -0.0849,-0.14156 -0.10896,-0.21324 l -0.0172,-0.0511 0.51923,-0.38617 c 0.28558,-0.2124 0.52004,-0.38533 0.52103,-0.38431 0.008,0.008 0.0161,0.20829 0.0131,0.31715 -0.006,0.19354 -0.0278,0.3411 -0.0736,0.47897 -0.0421,0.12687 -0.0923,0.21226 -0.17047,0.28974 -0.0585,0.0579 -0.11789,0.093 -0.19257,0.11378 -0.0502,0.014 -0.14822,0.0204 -0.19532,0.0128 z m -14.03163,0.11906 c 0,-0.1306 -6e-4,-0.13973 -0.0124,-0.15615 l -0.0124,-0.0174 -0.26383,0 -0.26383,0 0,-0.31128 0,-0.31127 -0.18467,-0.21545 -0.18467,-0.21546 -0.002,0.52672 -0.001,0.52674 -0.31827,0 -0.31825,0 0,0.15614 0,0.15614 0.78071,0 0.78071,0 0,-0.1387 z m 8.2365,0.0826 c -0.19418,-0.10014 -0.31798,-0.1856 -0.42181,-0.29117 -0.0888,-0.0903 -0.13546,-0.16706 -0.17897,-0.29459 l -0.0258,-0.0758 -4.5e-4,0.20268 -4.5e-4,0.20269 -0.31829,0 -0.31829,0 0,0.15614 0,0.15615 0.68612,-1.4e-4 0.68613,-1.3e-4 -0.10811,-0.0557 z m 7.22956,-0.79795 c 0.0351,-0.0981 0.0646,-0.18153 0.0655,-0.18536 10e-4,-0.006 -0.19399,-0.13329 -0.19832,-0.12896 -0.004,0.004 0.0115,0.21253 0.0203,0.27953 0.005,0.038 0.0156,0.10146 0.0237,0.14106 0.008,0.0396 0.0148,0.0746 0.0148,0.0778 0,0.0177 0.0163,-0.0229 0.074,-0.18404 z m -16.83401,-1.03388 c -0.009,-0.0105 -0.18429,-0.21631 -0.19193,-0.22588 -0.001,-0.002 -0.0195,0.006 -0.0406,0.0169 l -0.0383,0.0198 0.0199,0.0461 c 0.011,0.0254 0.0378,0.0876 0.0597,0.13836 0.0219,0.0507 0.0411,0.0944 0.0427,0.097 0.002,0.002 0.0382,-0.0142 0.0814,-0.0374 l 0.0785,-0.0421 -0.0115,-0.0128 z m 8.55949,0.002 c 0.0628,-0.0338 0.12243,-0.0665 0.1326,-0.0726 l 0.0185,-0.0111 -0.026,-0.15731 c -0.0143,-0.0865 -0.0267,-0.15778 -0.0275,-0.15837 -0.004,-0.002 -0.39134,0.2058 -0.39308,0.21102 -0.001,0.003 0.0228,0.0623 0.0528,0.13161 0.0301,0.0693 0.0572,0.13217 0.0602,0.13984 l 0.006,0.014 0.0315,-0.0177 c 0.0173,-0.01 0.0829,-0.0454 0.14562,-0.0793 z"
       id="path9796"
       inkscape:connector-curvature="0" />
  </g>
</svg>
